//Event file generated from Sappy .s format.
	#include "MPlayDef.event"

	#define	lyingcoldly_grp  MusicVoices
	#define	lyingcoldly_pri  0
	#define	lyingcoldly_rev  0
	#define	lyingcoldly_mvl  75
	#define	lyingcoldly_key  0
	#define	lyingcoldly_tbs  1
	#define	lyingcoldly_exg  0
	#define	lyingcoldly_cmp  1

	// .rodata
	//	lyingcoldly
	ALIGN 4

//**************** Track 1 (Midi-Chn.1) ****************//

lyingcoldly_1:
	BYTE	KEYSH   lyingcoldly_key+0
// 000   ----------------------------------------
	BYTE	TEMPO   154*lyingcoldly_tbs/2
	BYTE		VOICE   123
	BYTE		VOL     100*lyingcoldly_mvl/mxv
	BYTE		PAN     c_v+0
	BYTE		BEND    c_v+0
	BYTE		N01     Cn1   v124
	BYTE		N02     Fs1   v020
	BYTE	W06
	BYTE		        Fs1   v044
	BYTE	W06
	BYTE		        As1   v056
	BYTE	W12
	BYTE		N01     Cn1   v124
	BYTE		N02     Fs1   v060
	BYTE	W06
	BYTE		        Fs1   v040
	BYTE	W06
	BYTE		        As1   v056
	BYTE	W12
	BYTE		N01     Cn1   v120
	BYTE		N02     Fs1   v060
	BYTE	W06
	BYTE		        Fs1   v040
	BYTE	W06
	BYTE		        As1   v064
	BYTE	W12
	BYTE		N01     Cn1   v120
	BYTE		N02     Fs1   v064
	BYTE	W06
	BYTE		        Fs1   v048
	BYTE	W06
	BYTE		        As1   v060
	BYTE	W12
// 001   ----------------------------------------
	BYTE		N01     Cn1   v124
	BYTE		N02     Fs1   v060
	BYTE	W06
	BYTE		        Fs1   v044
	BYTE	W06
	BYTE		        As1   v064
	BYTE	W12
	BYTE		N01     Cn1   v124
	BYTE		N02     Fs1   v052
	BYTE	W06
	BYTE		        Fs1   v040
	BYTE	W06
	BYTE		        As1   v064
	BYTE	W12
	BYTE		N01     Cn1   v120
	BYTE		N02     Fs1   v052
	BYTE	W06
	BYTE		        Fs1   v044
	BYTE	W06
	BYTE		        As1   v060
	BYTE	W12
	BYTE		N01     Cn1   v120
	BYTE		N02     Fs1   v024
	BYTE	W06
	BYTE		        Fs1   v044
	BYTE	W06
	BYTE		        As1   v056
	BYTE	W12
// 002   ----------------------------------------
	BYTE		N01     Cn1   v124
	BYTE		N02     Fs1   v056
	BYTE	W06
	BYTE		        Fs1   v044
	BYTE	W06
	BYTE		        As1   v060
	BYTE	W12
	BYTE		N01     Cn1   v124
	BYTE		N02     Fs1   v060
	BYTE	W06
	BYTE		        Fs1   v036
	BYTE	W06
	BYTE		        As1   v056
	BYTE	W12
	BYTE		N01     Cn1   v120
	BYTE		N02     Fs1   v060
	BYTE	W06
	BYTE		        Fs1   v052
	BYTE	W06
	BYTE		        As1   v056
	BYTE	W12
	BYTE		N01     Cn1   v120
	BYTE		N02     Fs1   v056
	BYTE	W06
	BYTE		        Fs1   v040
	BYTE	W06
	BYTE		        As1   v060
	BYTE	W12
// 003   ----------------------------------------
	BYTE		N01     Cn1   v124
	BYTE		N05     Dn1   v127
	BYTE		N01     Fs1   v056
	BYTE	W12
	BYTE		        As1   v060
	BYTE	W06
	BYTE		N05     Dn1   v127
	BYTE	W06
	BYTE		N01     Fs1   v060
	BYTE	W12
	BYTE		        Cn1   v127
	BYTE		N05     Dn1 
	BYTE		N01     Fs1   v060
	BYTE	W24
	BYTE		N01   
	BYTE	W12
	BYTE		N11     Dn1   v127
	BYTE	W12
	BYTE		N01     As1   v072
	BYTE	W12
lyingcoldly_1_B1:
// 004   ----------------------------------------
lyingcoldly_1_004:
	BYTE		N01     Cn1   v124
	BYTE		N44     Cs2   v100
	BYTE	W12
	BYTE		N01     Fs1   v060
	BYTE	W12
	BYTE		        Cn1   v124
	BYTE		N11     Dn1   v120
	BYTE		N01     Fs1   v060
	BYTE	W12
	BYTE		N01   
	BYTE	W12
	BYTE		        Cn1   v120
	BYTE		N01     Fs1   v060
	BYTE	W12
	BYTE		N01   
	BYTE	W12
	BYTE		        Cn1   v120
	BYTE		N11     Dn1 
	BYTE		N01     Fs1   v060
	BYTE	W12
	BYTE		N01   
	BYTE	W12
	BYTE	PEND
// 005   ----------------------------------------
lyingcoldly_1_005:
	BYTE		N01     Cn1   v124
	BYTE		N01     Fs1   v060
	BYTE	W12
	BYTE		N01   
	BYTE	W12
	BYTE		        Cn1   v124
	BYTE		N11     Dn1   v120
	BYTE		N01     Fs1   v060
	BYTE	W12
	BYTE		N01   
	BYTE	W12
	BYTE		        Cn1   v120
	BYTE		N01     Fs1   v060
	BYTE	W12
	BYTE		N01   
	BYTE	W12
	BYTE		        Cn1   v120
	BYTE		N11     Dn1 
	BYTE		N01     Fs1   v060
	BYTE	W12
	BYTE		N01   
	BYTE	W12
	BYTE	PEND
// 006   ----------------------------------------
lyingcoldly_1_006:
	BYTE		N01     Cn1   v124
	BYTE		N01     Fs1   v060
	BYTE	W12
	BYTE		N01   
	BYTE	W12
	BYTE		        Cn1   v124
	BYTE		N11     Dn1 
	BYTE		N01     Fs1   v060
	BYTE	W12
	BYTE		N01   
	BYTE	W12
	BYTE		        Cn1   v120
	BYTE		N01     Fs1   v060
	BYTE	W12
	BYTE		N01   
	BYTE	W12
	BYTE		        Cn1   v120
	BYTE		N11     Dn1   v116
	BYTE		N01     Fs1   v060
	BYTE	W12
	BYTE		N01   
	BYTE	W12
	BYTE	PEND
// 007   ----------------------------------------
	BYTE		        Cn1   v124
	BYTE		N01     Fs1   v060
	BYTE	W12
	BYTE		N01   
	BYTE	W12
	BYTE		        Cn1   v124
	BYTE		N11     Dn1 
	BYTE		N01     Fs1   v060
	BYTE	W12
	BYTE		        Fs1   v044
	BYTE	W06
	BYTE		        Fs1   v040
	BYTE	W06
	BYTE		        Cn1   v127
	BYTE		N01     Fs1   v076
	BYTE	W04
	BYTE		        Fs1   v032
	BYTE	W04
	BYTE		N01   
	BYTE	W04
	BYTE		        Fs1   v064
	BYTE	W06
	BYTE		        Fs1   v044
	BYTE	W06
	BYTE		        Cn1   v127
	BYTE		N05     Dn1   v124
	BYTE	W06
	BYTE		N11   
	BYTE		N01     Fs1   v052
	BYTE	W06
	BYTE		N11     As1   v068
	BYTE	W12
// 008   ----------------------------------------
	BYTE	PATT
	 POIN2	lyingcoldly_1_004
// 009   ----------------------------------------
	BYTE	PATT
	 POIN2	lyingcoldly_1_005
// 010   ----------------------------------------
	BYTE	PATT
	 POIN2	lyingcoldly_1_006
// 011   ----------------------------------------
	BYTE		N01     Cn1   v124
	BYTE		N01     Fs1   v068
	BYTE	W12
	BYTE		        Fs1   v052
	BYTE	W12
	BYTE		        Cn1   v124
	BYTE		N01     Fs1   v076
	BYTE	W12
	BYTE		N11     Dn1   v124
	BYTE		N01     Fs1   v044
	BYTE	W06
	BYTE		        Fs1   v040
	BYTE	W06
	BYTE		        Cn1   v124
	BYTE		N01     Fs1   v076
	BYTE	W04
	BYTE		        Fs1   v032
	BYTE	W04
	BYTE		N01   
	BYTE	W04
	BYTE		        Fs1   v064
	BYTE	W06
	BYTE		        Cn1   v120
	BYTE		N01     Fs1   v044
	BYTE	W06
	BYTE		N05     Dn1   v124
	BYTE	W06
	BYTE		N11   
	BYTE		N01     Fs1   v052
	BYTE	W06
	BYTE		        Cn1   v120
	BYTE		N11     As1   v068
	BYTE	W06
	BYTE		        Dn1   v124
	BYTE	W06
// 012   ----------------------------------------
	BYTE		N01     Cn1 
	BYTE		N44     Cs2   v100
	BYTE	W12
	BYTE		N01     Fs1   v060
	BYTE	W12
	BYTE		        Cn1   v124
	BYTE		N11     Dn1 
	BYTE		N01     Fs1   v068
	BYTE	W12
	BYTE		        Fs1   v032
	BYTE	W06
	BYTE		        Fs1   v024
	BYTE	W06
	BYTE		        Cn1   v120
	BYTE		N01     Fs1   v060
	BYTE	W18
	BYTE		        Fs1   v032
	BYTE	W06
	BYTE		        Cn1   v120
	BYTE		N01     Fs1   v064
	BYTE	W06
	BYTE		        Fs1   v056
	BYTE	W06
	BYTE		N11     Dn1   v116
	BYTE		N01     Fs1   v060
	BYTE	W12
// 013   ----------------------------------------
	BYTE		        Cn1   v124
	BYTE		N01     Fs1   v072
	BYTE	W12
	BYTE		        Fs1   v064
	BYTE	W12
	BYTE		        Cn1   v124
	BYTE		N11     Dn1 
	BYTE		N01     Fs1   v072
	BYTE	W12
	BYTE		        Fs1   v032
	BYTE	W06
	BYTE		N11     Dn1   v120
	BYTE	W06
	BYTE		N01     Cn1 
	BYTE		N01     Fs1   v052
	BYTE	W12
	BYTE		        Fs1   v056
	BYTE	W12
	BYTE		        Cn1   v120
	BYTE		N11     Dn1   v124
	BYTE		N01     Fs1   v072
	BYTE	W12
	BYTE		        Fs1   v044
	BYTE	W12
// 014   ----------------------------------------
	BYTE		        Cn1   v124
	BYTE		N01     Fs1   v068
	BYTE	W12
	BYTE		        Fs1   v056
	BYTE	W12
	BYTE		        Cn1   v124
	BYTE		N11     Dn1 
	BYTE		N01     Fs1   v072
	BYTE	W12
	BYTE		        Fs1   v032
	BYTE	W12
	BYTE		        Cn1   v120
	BYTE		N01     Fs1   v052
	BYTE	W12
	BYTE		        Fs1   v056
	BYTE	W12
	BYTE		        Cn1   v120
	BYTE		N01     Fs1   v060
	BYTE	W12
	BYTE		N11     Dn1   v116
	BYTE		N01     Fs1   v040
	BYTE	W12
// 015   ----------------------------------------
	BYTE		        Cn1   v124
	BYTE		N01     Fs1   v060
	BYTE	W12
	BYTE		        Fs1   v048
	BYTE	W12
	BYTE		        Cn1   v124
	BYTE		N11     Dn1 
	BYTE		N01     Fs1   v068
	BYTE	W12
	BYTE		        Fs1   v048
	BYTE	W06
	BYTE		N11     Dn1   v120
	BYTE	W06
	BYTE		N01     Cn1   v127
	BYTE		N01     Fs1   v060
	BYTE	W12
	BYTE		N01   
	BYTE	W12
	BYTE		        Cn1   v127
	BYTE		N05     Dn1   v124
	BYTE		N01     Fs1   v064
	BYTE	W06
	BYTE		N11     Dn1   v124
	BYTE	W06
	BYTE		N01     Fs1   v056
	BYTE	W06
	BYTE		N11     Dn1   v124
	BYTE		N01     Fs1   v068
	BYTE	W06
// 016   ----------------------------------------
	BYTE		        Cn1   v124
	BYTE		N11     As1   v084
	BYTE	W12
	BYTE		N01     Fs1   v048
	BYTE	W12
	BYTE		        Cn1   v124
	BYTE		N11     Dn1 
	BYTE		N01     Fs1   v064
	BYTE	W12
	BYTE		        Fs1   v040
	BYTE	W12
	BYTE		        Cn1   v120
	BYTE		N01     Fs1   v056
	BYTE	W12
	BYTE		N01   
	BYTE	W12
	BYTE		        Cn1   v120
	BYTE		N01     Fs1   v072
	BYTE	W12
	BYTE		N11     Dn1   v116
	BYTE		N01     Fs1   v040
	BYTE	W12
// 017   ----------------------------------------
	BYTE		        Cn1   v124
	BYTE		N01     Fs1   v064
	BYTE	W12
	BYTE		        Fs1   v048
	BYTE	W12
	BYTE		        Cn1   v124
	BYTE		N11     Dn1 
	BYTE		N01     Fs1   v072
	BYTE	W12
	BYTE		        Fs1   v032
	BYTE	W06
	BYTE		N11     Dn1   v120
	BYTE	W06
	BYTE		N01     Cn1 
	BYTE		N01     Fs1   v056
	BYTE	W12
	BYTE		        Fs1   v060
	BYTE	W12
	BYTE		        Cn1   v120
	BYTE		N11     Dn1   v124
	BYTE		N01     Fs1   v076
	BYTE	W12
	BYTE		        Fs1   v048
	BYTE	W12
// 018   ----------------------------------------
	BYTE		        Cn1   v124
	BYTE		N01     Fs1   v068
	BYTE	W12
	BYTE		        Fs1   v044
	BYTE	W12
	BYTE		        Cn1   v124
	BYTE		N11     Dn1 
	BYTE		N01     Fs1   v072
	BYTE	W12
	BYTE		        Fs1   v036
	BYTE	W12
	BYTE		        Cn1   v120
	BYTE		N01     Fs1   v060
	BYTE	W12
	BYTE		        Fs1   v064
	BYTE	W12
	BYTE		        Cn1   v120
	BYTE		N01     Fs1   v068
	BYTE	W12
	BYTE		N05     Dn1   v116
	BYTE		N01     Fs1   v052
	BYTE	W06
	BYTE		N02     Dn1   v072
	BYTE	W03
	BYTE		        Dn1   v096
	BYTE	W03
// 019   ----------------------------------------
	BYTE		N01     Cn1   v124
	BYTE		N12     Dn1   v127
	BYTE		N01     Fs1   v060
	BYTE	W12
	BYTE		N01   
	BYTE	W12
	BYTE		        Cn1   v124
	BYTE		N11     Dn1   v120
	BYTE		N01     Fs1   v056
	BYTE	W12
	BYTE		        Fs1   v060
	BYTE	W12
	BYTE		        Cn1   v127
	BYTE		N11     Dn1   v124
	BYTE		N01     Fs1   v056
	BYTE	W06
	BYTE		        Fs1   v052
	BYTE	W06
	BYTE		N11     Dn1   v120
	BYTE		N11     As1   v068
	BYTE	W12
	BYTE		N01     Cn1   v127
	BYTE		N01     Fs1   v036
	BYTE	W06
	BYTE		N05     Dn1   v124
	BYTE	W06
	BYTE		N05   
	BYTE		N01     Fs1   v048
	BYTE	W06
	BYTE		N11     Dn1   v124
	BYTE	W06
// 020   ----------------------------------------
	BYTE		N01     Cn1 
	BYTE		N44     Cs2   v100
	BYTE	W12
	BYTE		N01     Fs1   v064
	BYTE	W12
	BYTE		        Cn1   v124
	BYTE		N11     Dn1 
	BYTE		N01     Fs1   v060
	BYTE	W12
	BYTE		        Fs1   v052
	BYTE	W12
	BYTE		        Cn1   v120
	BYTE		N01     Fs1   v060
	BYTE	W12
	BYTE		N01   
	BYTE	W12
	BYTE		        Cn1   v120
	BYTE		N11     Dn1   v116
	BYTE		N01     Fs1   v056
	BYTE	W12
	BYTE		        Fs1   v060
	BYTE	W12
// 021   ----------------------------------------
	BYTE		        Cn1   v124
	BYTE		N01     Fs1   v056
	BYTE	W12
	BYTE		        Fs1   v052
	BYTE	W12
	BYTE		        Cn1   v124
	BYTE		N11     Dn1   v120
	BYTE		N01     Fs1   v068
	BYTE	W12
	BYTE		        Fs1   v044
	BYTE	W06
	BYTE		        Fs1   v056
	BYTE	W06
	BYTE		        Cn1   v120
	BYTE		N01     Fs1   v068
	BYTE	W06
	BYTE		        Fs1   v036
	BYTE	W06
	BYTE		        Fs1   v056
	BYTE	W06
	BYTE		N01   
	BYTE	W06
	BYTE		        Cn1   v120
	BYTE		N11     Dn1 
	BYTE	W06
	BYTE		N01     Fs1   v036
	BYTE	W06
	BYTE		        Fs1   v068
	BYTE	W06
	BYTE		        Fs1   v040
	BYTE	W06
// 022   ----------------------------------------
	BYTE		        Cn1   v120
	BYTE		N44     Cs2   v100
	BYTE	W12
	BYTE		N01     Fs1   v060
	BYTE	W06
	BYTE		        Cn1   v116
	BYTE	W06
	BYTE		N11     Dn1   v124
	BYTE		N01     Fs1   v068
	BYTE	W12
	BYTE		        Cn1   v120
	BYTE		N44     En2   v100
	BYTE	W06
	BYTE		N01     Fs1   v032
	BYTE	W06
	BYTE		        Fs1   v056
	BYTE	W06
	BYTE		        Fs1   v048
	BYTE	W06
	BYTE		        Cn1   v120
	BYTE		N01     Fs1   v060
	BYTE	W06
	BYTE		        Fs1   v056
	BYTE	W06
	BYTE		N11     Dn1   v116
	BYTE	W06
	BYTE		N01     Fs1   v072
	BYTE	W06
	BYTE		        Cn1   v120
	BYTE		N01     Fs1   v064
	BYTE	W12
// 023   ----------------------------------------
	BYTE		        Cn1   v120
	BYTE		N44     Cs2   v100
	BYTE	W12
	BYTE		N01     Fs1   v052
	BYTE	W06
	BYTE		        Cn1   v120
	BYTE	W06
	BYTE		N11     Dn1   v124
	BYTE		N01     Fs1   v068
	BYTE	W12
	BYTE		        Cn1   v124
	BYTE		N44     En2   v100
	BYTE	W12
	BYTE		N01     Fs1   v052
	BYTE	W06
	BYTE		        Cn1   v124
	BYTE	W06
	BYTE		        Fs1   v056
	BYTE	W12
	BYTE		        Cn1   v120
	BYTE		N01     Fs1   v056
	BYTE	W06
	BYTE		N05     Dn1   v124
	BYTE	W06
	BYTE		N11   
	BYTE		N11     As1   v072
	BYTE	W06
	BYTE		N01     Cn1   v116
	BYTE	W06
// 024   ----------------------------------------
	BYTE		        Cn1   v124
	BYTE		N44     En2   v100
	BYTE	W12
	BYTE		N01     Fs1   v060
	BYTE	W12
	BYTE		        Cn1   v124
	BYTE		N11     Dn1 
	BYTE		N21     Ds2   v068
	BYTE	W12
	BYTE		N01     Fs1   v048
	BYTE	W06
	BYTE		        Fs1   v028
	BYTE	W06
	BYTE		        Cn1   v120
	BYTE		N21     Ds2   v076
	BYTE	W06
	BYTE		N11     Dn1   v116
	BYTE	W06
	BYTE		N01     Fs1   v064
	BYTE	W12
	BYTE		        Cn1   v120
	BYTE		N11     Dn1   v124
	BYTE		N21     Ds2   v080
	BYTE	W06
	BYTE		N01     Fs1   v044
	BYTE	W06
	BYTE		        Fs1   v060
	BYTE	W06
	BYTE		N01   
	BYTE	W06
// 025   ----------------------------------------
	BYTE		        Cn1   v124
	BYTE		N21     Ds2   v100
	BYTE	W12
	BYTE		N01     Fs1   v044
	BYTE	W12
	BYTE		        Cn1   v124
	BYTE		N11     Dn1 
	BYTE		N21     Ds2   v076
	BYTE	W12
	BYTE		N01     Fs1   v028
	BYTE	W06
	BYTE		        Fs1   v052
	BYTE	W06
	BYTE		        Cn1   v120
	BYTE		N21     Ds2   v092
	BYTE	W06
	BYTE		N01     Fs1   v072
	BYTE	W06
	BYTE		N05     Dn1   v108
	BYTE		N01     Fs1   v068
	BYTE	W06
	BYTE		N05     Dn1   v108
	BYTE	W06
	BYTE		N01     Cn1   v120
	BYTE		N05     Dn1   v124
	BYTE		N21     Ds2   v056
	BYTE	W06
	BYTE		N11     Dn1   v124
	BYTE	W06
	BYTE		N01     Fs1   v048
	BYTE	W06
	BYTE		N11     Dn1   v124
	BYTE		N01     Fs1   v068
	BYTE	W06
// 026   ----------------------------------------
	BYTE		        Cn1   v124
	BYTE		N01     As1   v052
	BYTE	W24
	BYTE		        Cn1   v124
	BYTE		N11     Dn1 
	BYTE		N01     As1   v068
	BYTE	W24
	BYTE		        Cn1   v120
	BYTE		N01     As1   v072
	BYTE	W12
	BYTE		N11     Dn1   v127
	BYTE	W12
	BYTE		N01     Cn1   v120
	BYTE		N01     As1   v100
	BYTE	W06
	BYTE		N05     Dn1   v120
	BYTE	W06
	BYTE		N11     Dn1   v127
	BYTE	W12
// 027   ----------------------------------------
	BYTE		N01     Cn1   v116
	BYTE		N11     Dn1   v120
	BYTE		N01     Fs1   v080
	BYTE	W42
	BYTE		N02     Dn1   v100
	BYTE	W03
	BYTE		        Dn1   v108
	BYTE	W03
	BYTE		N05     Dn1   v116
	BYTE	W06
	BYTE		N11     Dn1   v124
	BYTE	W06
	BYTE		N01     Cn1   v116
	BYTE	W06
	BYTE		N11     Dn1   v124
	BYTE	W06
	BYTE		N01     Cn1   v120
	BYTE	W06
	BYTE		N05     Dn1   v124
	BYTE	W06
	BYTE		N11   
	BYTE	W06
	BYTE		N01     Cn1   v120
	BYTE	W06
// 028   ----------------------------------------
	BYTE		        Cn1   v124
	BYTE		N44     Cs2   v100
	BYTE	W12
	BYTE		N01     As1   v068
	BYTE	W12
	BYTE		        Cn1   v124
	BYTE		N11     Dn1 
	BYTE		N01     Fs1   v048
	BYTE	W12
	BYTE		        As1   v056
	BYTE	W12
	BYTE		        Cn1   v120
	BYTE		N01     Fs1   v064
	BYTE	W12
	BYTE		        As1 
	BYTE	W12
	BYTE		        Cn1   v120
	BYTE		N11     Dn1 
	BYTE		N01     Fs1   v056
	BYTE	W12
	BYTE		        As1   v068
	BYTE	W12
// 029   ----------------------------------------
	BYTE		        Cn1   v124
	BYTE		N01     Fs1   v060
	BYTE	W12
	BYTE		        As1   v064
	BYTE	W12
	BYTE		        Cn1   v124
	BYTE		N11     Dn1 
	BYTE		N01     Fs1   v064
	BYTE	W12
	BYTE		        As1   v068
	BYTE	W12
	BYTE		        Cn1   v120
	BYTE		N01     Fs1   v056
	BYTE	W12
	BYTE		        As1   v068
	BYTE	W12
	BYTE		        Cn1   v120
	BYTE		N11     Dn1 
	BYTE		N01     Fs1   v060
	BYTE	W12
	BYTE		        As1   v064
	BYTE	W06
	BYTE		N11     Dn1   v116
	BYTE	W06
// 030   ----------------------------------------
	BYTE		N01     Cn1   v124
	BYTE		N01     Fs1   v052
	BYTE	W12
	BYTE		        As1   v064
	BYTE	W12
	BYTE		        Cn1   v124
	BYTE		N11     Dn1 
	BYTE		N01     Fs1   v064
	BYTE	W12
	BYTE		        As1   v068
	BYTE	W12
	BYTE		        Cn1   v120
	BYTE		N01     Fs1   v060
	BYTE	W12
	BYTE		        As1 
	BYTE	W12
	BYTE		        Cn1   v120
	BYTE		N11     Dn1 
	BYTE		N01     Fs1   v052
	BYTE	W12
	BYTE		        As1   v068
	BYTE	W12
// 031   ----------------------------------------
	BYTE		        Cn1   v124
	BYTE		N01     Fs1   v056
	BYTE	W12
	BYTE		        As1 
	BYTE	W12
	BYTE		        Cn1   v124
	BYTE		N11     Dn1 
	BYTE		N01     Fs1   v064
	BYTE	W12
	BYTE		        As1   v060
	BYTE	W12
	BYTE		        Cn1   v127
	BYTE		N01     Fs1   v064
	BYTE	W12
	BYTE		        As1   v060
	BYTE	W06
	BYTE		N11     Dn1   v116
	BYTE	W06
	BYTE		N01     Cn1   v127
	BYTE		N01     Fs1   v060
	BYTE	W06
	BYTE		N05     Dn1   v124
	BYTE	W06
	BYTE		N11   
	BYTE		N01     As1   v068
	BYTE	W12
// 032   ----------------------------------------
	BYTE		        Cn1   v124
	BYTE		N01     Fs1   v052
	BYTE	W12
	BYTE		        As1   v056
	BYTE	W12
	BYTE		        Cn1   v124
	BYTE		N11     Dn1 
	BYTE		N01     Fs1   v060
	BYTE	W12
	BYTE		        As1   v064
	BYTE	W12
	BYTE		        Cn1   v120
	BYTE		N01     Fs1   v056
	BYTE	W12
	BYTE		        As1   v064
	BYTE	W12
	BYTE		        Cn1   v120
	BYTE		N11     Dn1   v124
	BYTE		N01     Fs1   v056
	BYTE	W12
	BYTE		        As1   v064
	BYTE	W12
// 033   ----------------------------------------
lyingcoldly_1_033:
	BYTE		N01     Cn1   v124
	BYTE		N01     Fs1   v060
	BYTE	W12
	BYTE		        As1   v064
	BYTE	W12
	BYTE		        Cn1   v124
	BYTE		N11     Dn1 
	BYTE		N01     Fs1   v060
	BYTE	W12
	BYTE		        As1   v068
	BYTE	W12
	BYTE		        Cn1   v120
	BYTE		N01     Fs1   v060
	BYTE	W12
	BYTE		        As1   v068
	BYTE	W12
	BYTE		        Cn1   v120
	BYTE		N11     Dn1 
	BYTE		N01     Fs1   v056
	BYTE	W12
	BYTE		        As1   v064
	BYTE	W06
	BYTE		N11     Dn1   v120
	BYTE	W06
	BYTE	PEND
// 034   ----------------------------------------
lyingcoldly_1_034:
	BYTE		N01     Cn1   v124
	BYTE		N01     Fs1   v064
	BYTE	W12
	BYTE		        As1 
	BYTE	W12
	BYTE		        Cn1   v124
	BYTE		N11     Dn1 
	BYTE		N01     Fs1   v060
	BYTE	W12
	BYTE		        As1   v064
	BYTE	W12
	BYTE		        Cn1   v120
	BYTE		N01     Fs1   v056
	BYTE	W12
	BYTE		        As1   v064
	BYTE	W12
	BYTE		        Cn1   v120
	BYTE		N11     Dn1 
	BYTE		N01     Fs1   v056
	BYTE	W12
	BYTE		        As1   v064
	BYTE	W12
	BYTE	PEND
// 035   ----------------------------------------
lyingcoldly_1_035:
	BYTE		N01     Cn1   v124
	BYTE		N01     Fs1   v056
	BYTE	W12
	BYTE		        As1   v060
	BYTE	W12
	BYTE		        Cn1   v124
	BYTE		N11     Dn1 
	BYTE		N01     Fs1   v060
	BYTE	W12
	BYTE		        As1   v056
	BYTE	W12
	BYTE		        Cn1   v127
	BYTE		N01     Fs1   v060
	BYTE	W12
	BYTE		N11     Dn1   v120
	BYTE		N01     As1   v068
	BYTE	W12
	BYTE		        Cn1   v127
	BYTE		N05     Dn1   v120
	BYTE		N01     Fs1   v056
	BYTE	W06
	BYTE		N11     Dn1   v120
	BYTE	W06
	BYTE		N01     As1   v068
	BYTE	W06
	BYTE		N11     Dn1   v120
	BYTE	W06
	BYTE	PEND
// 036   ----------------------------------------
lyingcoldly_1_036:
	BYTE		N01     Cn1   v124
	BYTE		N44     Cs2   v100
	BYTE	W12
	BYTE		N01     As1   v060
	BYTE	W12
	BYTE		        Cn1   v124
	BYTE		N11     Dn1   v127
	BYTE		N01     Fs1   v056
	BYTE	W12
	BYTE		        As1   v064
	BYTE	W12
	BYTE		        Cn1   v120
	BYTE		N01     Fs1   v056
	BYTE	W12
	BYTE		        As1 
	BYTE	W12
	BYTE		        Cn1   v120
	BYTE		N11     Dn1   v127
	BYTE		N01     Fs1   v056
	BYTE	W12
	BYTE		        As1   v064
	BYTE	W12
	BYTE	PEND
// 037   ----------------------------------------
lyingcoldly_1_037:
	BYTE		N01     Cn1   v124
	BYTE		N01     Fs1   v056
	BYTE	W12
	BYTE		        As1   v064
	BYTE	W12
	BYTE		        Cn1   v124
	BYTE		N11     Dn1   v127
	BYTE		N01     Fs1   v056
	BYTE	W12
	BYTE		        As1   v060
	BYTE	W12
	BYTE		        Cn1   v120
	BYTE		N01     Fs1   v056
	BYTE	W12
	BYTE		        As1   v068
	BYTE	W12
	BYTE		        Cn1   v120
	BYTE		N11     Dn1   v127
	BYTE		N01     Fs1   v060
	BYTE	W12
	BYTE		        As1   v076
	BYTE	W06
	BYTE		N11     Dn1   v124
	BYTE	W06
	BYTE	PEND
// 038   ----------------------------------------
lyingcoldly_1_038:
	BYTE		N01     Cn1   v124
	BYTE		N01     Fs1   v060
	BYTE	W12
	BYTE		        As1 
	BYTE	W12
	BYTE		        Cn1   v124
	BYTE		N11     Dn1   v127
	BYTE		N01     Fs1   v056
	BYTE	W12
	BYTE		        As1   v064
	BYTE	W12
	BYTE		        Cn1   v120
	BYTE		N01     Fs1   v056
	BYTE	W12
	BYTE		        As1 
	BYTE	W12
	BYTE		        Cn1   v120
	BYTE		N11     Dn1   v127
	BYTE		N01     Fs1   v056
	BYTE	W12
	BYTE		        As1   v064
	BYTE	W12
	BYTE	PEND
// 039   ----------------------------------------
	BYTE		        Cn1   v124
	BYTE		N01     Fs1   v056
	BYTE	W12
	BYTE		        As1   v064
	BYTE	W12
	BYTE		        Cn1   v124
	BYTE		N05     Dn1 
	BYTE		N01     Fs1   v056
	BYTE	W06
	BYTE		N11     Dn1   v116
	BYTE	W06
	BYTE		N01     As1   v060
	BYTE	W06
	BYTE		N11     Dn1   v120
	BYTE	W06
	BYTE		N01     Cn1   v127
	BYTE		N01     Fs1   v056
	BYTE	W06
	BYTE		N05     Dn1   v112
	BYTE	W06
	BYTE		        Dn1   v127
	BYTE		N01     As1   v068
	BYTE	W06
	BYTE		N05     Dn1   v127
	BYTE	W06
	BYTE		N01     Cn1 
	BYTE		N05     Dn1   v120
	BYTE		N01     Fs1   v060
	BYTE	W06
	BYTE		N05     Dn1   v120
	BYTE	W06
	BYTE		N05   
	BYTE		N01     As1   v076
	BYTE	W06
	BYTE		N11     Dn1   v120
	BYTE	W06
// 040   ----------------------------------------
	BYTE		N01     Cn1   v124
	BYTE		N04     Fs1   v060
	BYTE	W48
	BYTE		N01     Cn1   v124
	BYTE	W12
	BYTE		N11     Dn1   v120
	BYTE	W12
	BYTE		N01     Cn1   v124
	BYTE	W06
	BYTE		N05     Dn1 
	BYTE	W06
	BYTE		N05   
	BYTE	W06
	BYTE		N11   
	BYTE	W06
// 041   ----------------------------------------
	BYTE	PATT
	 POIN2	lyingcoldly_1_004
// 042   ----------------------------------------
	BYTE	PATT
	 POIN2	lyingcoldly_1_005
// 043   ----------------------------------------
	BYTE		N01     Cn1   v124
	BYTE		N01     Fs1   v060
	BYTE	W12
	BYTE		N01   
	BYTE	W12
	BYTE		        Cn1   v124
	BYTE		N11     Dn1 
	BYTE		N01     Fs1   v060
	BYTE	W12
	BYTE		N01   
	BYTE	W12
	BYTE		        Cn1   v127
	BYTE		N01     Fs1   v060
	BYTE	W12
	BYTE		N01   
	BYTE	W12
	BYTE		        Cn1   v127
	BYTE		N11     Dn1   v116
	BYTE		N01     Fs1   v060
	BYTE	W12
	BYTE		N01   
	BYTE	W12
// 044   ----------------------------------------
	BYTE		        Cn1   v124
	BYTE		N01     Fs1   v060
	BYTE	W12
	BYTE		N01   
	BYTE	W12
	BYTE		        Cn1   v124
	BYTE		N11     Dn1 
	BYTE		N01     Fs1   v060
	BYTE	W12
	BYTE		        Fs1   v044
	BYTE	W06
	BYTE		        Fs1   v040
	BYTE	W06
	BYTE		        Cn1   v120
	BYTE		N01     Fs1   v076
	BYTE	W04
	BYTE		        Fs1   v032
	BYTE	W04
	BYTE		N01   
	BYTE	W04
	BYTE		        Fs1   v064
	BYTE	W06
	BYTE		        Fs1   v044
	BYTE	W06
	BYTE		        Cn1   v120
	BYTE		N05     Dn1   v124
	BYTE	W06
	BYTE		N11   
	BYTE		N01     Fs1   v052
	BYTE	W06
	BYTE		N11     As1   v068
	BYTE	W12
// 045   ----------------------------------------
	BYTE	PATT
	 POIN2	lyingcoldly_1_004
// 046   ----------------------------------------
	BYTE	PATT
	 POIN2	lyingcoldly_1_005
// 047   ----------------------------------------
	BYTE		N01     Cn1   v124
	BYTE		N01     Fs1   v060
	BYTE	W12
	BYTE		N01   
	BYTE	W12
	BYTE		        Cn1   v124
	BYTE		N11     Dn1 
	BYTE		N01     Fs1   v060
	BYTE	W12
	BYTE		N01   
	BYTE	W12
	BYTE		        Cn1   v127
	BYTE		N01     Fs1   v060
	BYTE	W12
	BYTE		N05     Dn1   v116
	BYTE		N01     Fs1   v060
	BYTE	W06
	BYTE		N05     Dn1   v116
	BYTE	W06
	BYTE		N01     Cn1   v127
	BYTE		N05     Dn1   v116
	BYTE		N01     Fs1   v060
	BYTE	W06
	BYTE		N05     Dn1   v116
	BYTE	W06
	BYTE		N05   
	BYTE		N01     Fs1   v060
	BYTE	W06
	BYTE		N11     Dn1   v116
	BYTE	W06
// 048   ----------------------------------------
	BYTE		N01     Cn1   v124
	BYTE		N44     Cs2   v092
	BYTE	W24
	BYTE		N01     Cn1   v124
	BYTE	W24
	BYTE		        Cn1   v120
	BYTE	W24
	BYTE		N01   
	BYTE	W24
// 049   ----------------------------------------
lyingcoldly_1_049:
	BYTE		N01     Cn1   v124
	BYTE	W24
	BYTE		N01   
	BYTE	W24
	BYTE		        Cn1   v120
	BYTE	W24
	BYTE		N01   
	BYTE	W24
	BYTE	PEND
// 050   ----------------------------------------
	BYTE	PATT
	 POIN2	lyingcoldly_1_049
// 051   ----------------------------------------
	BYTE		N01     Cn1   v124
	BYTE	W24
	BYTE		N01   
	BYTE	W12
	BYTE		N05     Dn1   v108
	BYTE	W06
	BYTE		        Dn1   v100
	BYTE	W06
	BYTE		N01     Cn1   v127
	BYTE		N11     Dn1 
	BYTE	W12
	BYTE		N05     Dn1   v112
	BYTE	W06
	BYTE		N11     Dn1   v116
	BYTE	W06
	BYTE		N01     Cn1   v127
	BYTE	W06
	BYTE		N05     Dn1   v124
	BYTE	W06
	BYTE		N05   
	BYTE	W06
	BYTE		N11     Dn1   v120
	BYTE	W06
// 052   ----------------------------------------
	BYTE		N01     Cn1   v124
	BYTE		N44     Cs2   v092
	BYTE	W12
	BYTE		N01     As1   v056
	BYTE	W12
	BYTE		        Cn1   v124
	BYTE		N11     Dn1 
	BYTE		N01     Fs1   v060
	BYTE	W12
	BYTE		        As1   v064
	BYTE	W12
	BYTE		        Cn1   v120
	BYTE		N01     Fs1   v056
	BYTE	W12
	BYTE		        As1   v064
	BYTE	W12
	BYTE		        Cn1   v120
	BYTE		N11     Dn1   v124
	BYTE		N01     Fs1   v056
	BYTE	W12
	BYTE		        As1   v064
	BYTE	W12
// 053   ----------------------------------------
	BYTE	PATT
	 POIN2	lyingcoldly_1_033
// 054   ----------------------------------------
	BYTE	PATT
	 POIN2	lyingcoldly_1_034
// 055   ----------------------------------------
	BYTE	PATT
	 POIN2	lyingcoldly_1_035
// 056   ----------------------------------------
	BYTE	PATT
	 POIN2	lyingcoldly_1_036
// 057   ----------------------------------------
	BYTE	PATT
	 POIN2	lyingcoldly_1_037
// 058   ----------------------------------------
	BYTE	PATT
	 POIN2	lyingcoldly_1_038
// 059   ----------------------------------------
	BYTE		N01     Cn1   v124
	BYTE		N01     Fs1   v056
	BYTE	W12
	BYTE		        As1   v064
	BYTE	W12
	BYTE		        Cn1   v124
	BYTE		N05     Dn1 
	BYTE		N01     Fs1   v056
	BYTE	W06
	BYTE		N11     Dn1   v116
	BYTE	W06
	BYTE		N01     As1   v060
	BYTE	W06
	BYTE		N11     Dn1   v120
	BYTE	W06
	BYTE		N01     Cn1   v127
	BYTE		N01     Fs1   v056
	BYTE	W06
	BYTE		N05     Dn1   v112
	BYTE	W06
	BYTE		        Dn1   v127
	BYTE		N01     As1   v068
	BYTE	W06
	BYTE		N05     Dn1   v127
	BYTE	W06
	BYTE		N01     Cn1 
	BYTE		N05     Dn1   v120
	BYTE		N01     Fs1   v060
	BYTE	W06
	BYTE		N05     Dn1   v120
	BYTE	W06
	BYTE		N06   
	BYTE		N01     As1   v076
	BYTE	W06
	BYTE		N05     Dn1   v120
	BYTE	W06
// 060   ----------------------------------------
	BYTE		N01     Cn1   v124
	BYTE		N04     Fs1   v020
	BYTE	W06
	BYTE		        Fs1   v044
	BYTE	W06
	BYTE		        As1   v056
	BYTE	W12
	BYTE		N01     Cn1   v124
	BYTE		N04     Fs1   v060
	BYTE	W06
	BYTE		        Fs1   v040
	BYTE	W06
	BYTE		        As1   v056
	BYTE	W12
	BYTE		N01     Cn1   v120
	BYTE		N04     Fs1   v060
	BYTE	W06
	BYTE		        Fs1   v040
	BYTE	W06
	BYTE		        As1   v064
	BYTE	W12
	BYTE		N01     Cn1   v120
	BYTE		N04     Fs1   v064
	BYTE	W06
	BYTE		        Fs1   v048
	BYTE	W06
	BYTE		        As1   v060
	BYTE	W12
// 061   ----------------------------------------
	BYTE		N01     Cn1   v124
	BYTE		N04     Fs1   v060
	BYTE	W06
	BYTE		        Fs1   v044
	BYTE	W06
	BYTE		        As1   v064
	BYTE	W12
	BYTE		N01     Cn1   v124
	BYTE		N04     Fs1   v052
	BYTE	W06
	BYTE		        Fs1   v040
	BYTE	W06
	BYTE		        As1   v064
	BYTE	W12
	BYTE		N01     Cn1   v120
	BYTE		N04     Fs1   v052
	BYTE	W06
	BYTE		        Fs1   v044
	BYTE	W06
	BYTE		        As1   v060
	BYTE	W12
	BYTE		N01     Cn1   v120
	BYTE		N04     Fs1   v024
	BYTE	W06
	BYTE		        Fs1   v044
	BYTE	W06
	BYTE		        As1   v056
	BYTE	W12
// 062   ----------------------------------------
	BYTE		N01     Cn1   v124
	BYTE		N04     Fs1   v056
	BYTE	W06
	BYTE		        Fs1   v044
	BYTE	W06
	BYTE		        As1   v060
	BYTE	W12
	BYTE		N01     Cn1   v124
	BYTE		N04     Fs1   v060
	BYTE	W06
	BYTE		        Fs1   v036
	BYTE	W06
	BYTE		        As1   v056
	BYTE	W12
	BYTE		N01     Cn1   v120
	BYTE		N04     Fs1   v060
	BYTE	W06
	BYTE		        Fs1   v052
	BYTE	W06
	BYTE		        As1   v056
	BYTE	W12
	BYTE		N01     Cn1   v120
	BYTE		N04     Fs1   v056
	BYTE	W06
	BYTE		        Fs1   v040
	BYTE	W06
	BYTE		        As1   v060
	BYTE	W12
// 063   ----------------------------------------
	BYTE		N01     Cn1   v124
	BYTE		N05     Dn1   v127
	BYTE		N01     Fs1   v056
	BYTE	W12
	BYTE		        As1   v060
	BYTE	W06
	BYTE		N05     Dn1   v127
	BYTE	W06
	BYTE		N01     Fs1   v060
	BYTE	W12
	BYTE		        Cn1   v127
	BYTE		N05     Dn1 
	BYTE		N01     Fs1   v060
	BYTE	W24
	BYTE		N01   
	BYTE	W12
	BYTE		N05     Dn1   v127
	BYTE	W06
	BYTE		N05   
	BYTE	W06
	BYTE		N01     Cn1 
	BYTE		N11     Gn1 
	BYTE		N01     As1   v072
	BYTE	W12
	BYTE	GoTo
	 POIN2	lyingcoldly_1_B1
lyingcoldly_1_B2:
// 064   ----------------------------------------
	BYTE	FINE

//**************** Track 2 (Midi-Chn.2) ****************//

lyingcoldly_2:
	BYTE	KEYSH   lyingcoldly_key+0
// 000   ----------------------------------------
	BYTE		VOICE   0
	BYTE		VOL     110*lyingcoldly_mvl/mxv
	BYTE		PAN     c_v-20
	BYTE		BEND    c_v+0
	BYTE	W96
// 001   ----------------------------------------
	BYTE	W96
// 002   ----------------------------------------
	BYTE	W96
// 003   ----------------------------------------
	BYTE	W84
	BYTE		N11     Bn2   v112
	BYTE	W12
lyingcoldly_2_B1:
// 004   ----------------------------------------
	BYTE		N28     En3   v127
	BYTE	W96
// 005   ----------------------------------------
	BYTE	W96
// 006   ----------------------------------------
	BYTE	W96
// 007   ----------------------------------------
	BYTE	W96
// 008   ----------------------------------------
	BYTE	W96
// 009   ----------------------------------------
	BYTE	W96
// 010   ----------------------------------------
	BYTE	W96
// 011   ----------------------------------------
	BYTE	W96
// 012   ----------------------------------------
	BYTE	W96
// 013   ----------------------------------------
	BYTE	W96
// 014   ----------------------------------------
	BYTE	W96
// 015   ----------------------------------------
	BYTE	W96
// 016   ----------------------------------------
	BYTE	W96
// 017   ----------------------------------------
	BYTE	W96
// 018   ----------------------------------------
	BYTE	W96
// 019   ----------------------------------------
	BYTE	W96
// 020   ----------------------------------------
	BYTE	W96
// 021   ----------------------------------------
	BYTE	W96
// 022   ----------------------------------------
	BYTE	W96
// 023   ----------------------------------------
	BYTE	W96
// 024   ----------------------------------------
	BYTE	W96
// 025   ----------------------------------------
	BYTE	W96
// 026   ----------------------------------------
	BYTE	W96
// 027   ----------------------------------------
	BYTE		N24     Bn2   v124
	BYTE	W84
	BYTE		N11   
	BYTE	W12
// 028   ----------------------------------------
	BYTE		N24     En3   v116
	BYTE	W96
// 029   ----------------------------------------
	BYTE	W84
	BYTE		N11     Bn2   v120
	BYTE	W12
// 030   ----------------------------------------
	BYTE		N24     En3   v116
	BYTE	W96
// 031   ----------------------------------------
	BYTE	W84
	BYTE		N11     Bn2   v120
	BYTE	W12
// 032   ----------------------------------------
	BYTE		N28     En3   v116
	BYTE	W96
// 033   ----------------------------------------
	BYTE	W84
	BYTE		N11     Bn2   v120
	BYTE	W12
// 034   ----------------------------------------
	BYTE		N24     En3   v116
	BYTE	W96
// 035   ----------------------------------------
	BYTE	W96
// 036   ----------------------------------------
	BYTE	W96
// 037   ----------------------------------------
	BYTE	W96
// 038   ----------------------------------------
	BYTE	W96
// 039   ----------------------------------------
	BYTE	W96
// 040   ----------------------------------------
	BYTE	W96
// 041   ----------------------------------------
	BYTE		N30     Dn3   v127
	BYTE	W96
// 042   ----------------------------------------
	BYTE	W96
// 043   ----------------------------------------
	BYTE	W96
// 044   ----------------------------------------
	BYTE	W96
// 045   ----------------------------------------
	BYTE	W96
// 046   ----------------------------------------
	BYTE	W96
// 047   ----------------------------------------
	BYTE	W96
// 048   ----------------------------------------
	BYTE		N24     Dn3   v116
	BYTE	W96
// 049   ----------------------------------------
	BYTE	W84
	BYTE		N11     An2   v120
	BYTE	W12
// 050   ----------------------------------------
	BYTE		N28     Dn3   v116
	BYTE	W96
// 051   ----------------------------------------
	BYTE	W84
	BYTE		N11     An2   v120
	BYTE	W12
// 052   ----------------------------------------
	BYTE		N30     En3   v116
	BYTE	W96
// 053   ----------------------------------------
	BYTE	W84
	BYTE		N11     Bn2   v120
	BYTE	W12
// 054   ----------------------------------------
	BYTE		N28     En3   v116
	BYTE	W96
// 055   ----------------------------------------
	BYTE	W96
// 056   ----------------------------------------
	BYTE	W96
// 057   ----------------------------------------
	BYTE	W96
// 058   ----------------------------------------
	BYTE	W96
// 059   ----------------------------------------
	BYTE	W96
// 060   ----------------------------------------
	BYTE	W96
// 061   ----------------------------------------
	BYTE	W96
// 062   ----------------------------------------
	BYTE	W96
// 063   ----------------------------------------
	BYTE	W84
	BYTE		N11     Bn2   v112
	BYTE	W12
	BYTE	GoTo
	 POIN2	lyingcoldly_2_B1
lyingcoldly_2_B2:
// 064   ----------------------------------------
	BYTE	FINE

//**************** Track 3 (Midi-Chn.3) ****************//

lyingcoldly_3:
	BYTE	KEYSH   lyingcoldly_key+0
// 000   ----------------------------------------
	BYTE		VOICE   36
	BYTE		VOL     49*lyingcoldly_mvl/mxv
	BYTE		PAN     c_v+0
	BYTE		BEND    c_v+0
	BYTE	W96
// 001   ----------------------------------------
	BYTE	W96
// 002   ----------------------------------------
	BYTE	W96
// 003   ----------------------------------------
lyingcoldly_3_003:
	BYTE		N05     En2   v112
	BYTE	W18
	BYTE		N05   
	BYTE	W18
	BYTE		N05   
	BYTE	W48
	BYTE		N12     Bn1 
	BYTE	W12
	BYTE	PEND
lyingcoldly_3_B1:
// 004   ----------------------------------------
lyingcoldly_3_004:
	BYTE		N05     En1   v112
	BYTE	W06
	BYTE		        En1   v100
	BYTE	W06
	BYTE		        En1   v112
	BYTE	W06
	BYTE		        En1   v100
	BYTE	W06
	BYTE		        En1   v112
	BYTE	W06
	BYTE		        En1   v100
	BYTE	W06
	BYTE		        En1   v112
	BYTE	W06
	BYTE		        En1   v100
	BYTE	W06
	BYTE		        En1   v112
	BYTE	W06
	BYTE		        En1   v100
	BYTE	W06
	BYTE		        En1   v112
	BYTE	W06
	BYTE		        En1   v100
	BYTE	W06
	BYTE		N11     En1   v112
	BYTE	W12
	BYTE		N20     An1 
	BYTE	W12
	BYTE	PEND
// 005   ----------------------------------------
lyingcoldly_3_005:
	BYTE	W12
	BYTE		N05     An1   v112
	BYTE	W06
	BYTE		        An1   v100
	BYTE	W06
	BYTE		        An1   v112
	BYTE	W06
	BYTE		        An1   v100
	BYTE	W06
	BYTE		        An1   v112
	BYTE	W06
	BYTE		        An1   v100
	BYTE	W06
	BYTE		        An1   v112
	BYTE	W06
	BYTE		        An1   v100
	BYTE	W06
	BYTE		        An1   v112
	BYTE	W06
	BYTE		        An1   v100
	BYTE	W06
	BYTE		        An1   v112
	BYTE	W06
	BYTE		        An1   v100
	BYTE	W06
	BYTE		        Bn1   v112
	BYTE	W06
	BYTE		        Bn1   v100
	BYTE	W06
	BYTE	PEND
// 006   ----------------------------------------
	BYTE		        Cn2   v112
	BYTE	W06
	BYTE		        Cn2   v100
	BYTE	W06
	BYTE		        Cn2   v112
	BYTE	W06
	BYTE		        Cn2   v100
	BYTE	W06
	BYTE		N11     Cn2   v112
	BYTE	W12
	BYTE		N22     Dn2 
	BYTE	W24
	BYTE		N05   
	BYTE	W06
	BYTE		        Dn2   v100
	BYTE	W06
	BYTE		        Dn2   v112
	BYTE	W06
	BYTE		        Dn2   v100
	BYTE	W06
	BYTE		N18     En2   v112
	BYTE	W12
// 007   ----------------------------------------
	BYTE	W12
	BYTE		N05     En1 
	BYTE	W06
	BYTE		        En1   v100
	BYTE	W06
	BYTE		        En1   v112
	BYTE	W06
	BYTE		        En1   v100
	BYTE	W06
	BYTE		        En1   v112
	BYTE	W06
	BYTE		        En1   v100
	BYTE	W06
	BYTE		        En1   v112
	BYTE	W06
	BYTE		        En1   v100
	BYTE	W06
	BYTE		        En1   v112
	BYTE	W06
	BYTE		        En1   v100
	BYTE	W06
	BYTE		        En1   v112
	BYTE	W06
	BYTE		        En1   v100
	BYTE	W06
	BYTE		N11     Bn1   v112
	BYTE	W12
// 008   ----------------------------------------
	BYTE	PATT
	 POIN2	lyingcoldly_3_004
// 009   ----------------------------------------
	BYTE	PATT
	 POIN2	lyingcoldly_3_005
// 010   ----------------------------------------
	BYTE		N05     Cn2   v112
	BYTE	W06
	BYTE		        Cn2   v100
	BYTE	W06
	BYTE		        Cn2   v112
	BYTE	W06
	BYTE		        Cn2   v100
	BYTE	W06
	BYTE		        Cn2   v112
	BYTE	W06
	BYTE		        Cn2   v100
	BYTE	W06
	BYTE		N22     Dn2   v112
	BYTE	W24
	BYTE		N05   
	BYTE	W06
	BYTE		        Dn2   v100
	BYTE	W06
	BYTE		        Dn2   v112
	BYTE	W06
	BYTE		        Dn2   v100
	BYTE	W06
	BYTE		N18     En2   v112
	BYTE	W12
// 011   ----------------------------------------
	BYTE	W12
	BYTE		N05   
	BYTE	W06
	BYTE		        En2   v100
	BYTE	W06
	BYTE		        En2   v112
	BYTE	W06
	BYTE		        En2   v100
	BYTE	W06
	BYTE		        En2   v112
	BYTE	W06
	BYTE		        En2   v100
	BYTE	W06
	BYTE		        En2   v112
	BYTE	W06
	BYTE		        En2   v100
	BYTE	W06
	BYTE		        En2   v112
	BYTE	W06
	BYTE		        En2   v100
	BYTE	W06
	BYTE		        Dn2   v112
	BYTE	W06
	BYTE		        Dn2   v100
	BYTE	W06
	BYTE		        Dn2   v112
	BYTE	W06
	BYTE		        Dn2   v100
	BYTE	W06
// 012   ----------------------------------------
lyingcoldly_3_012:
	BYTE		N06     Cn2   v112
	BYTE	W12
	BYTE		N06   
	BYTE	W12
	BYTE		N12   
	BYTE	W12
	BYTE		N06     Gn1 
	BYTE	W06
	BYTE		        An1   v100
	BYTE	W06
	BYTE		N18     Cn2   v112
	BYTE	W18
	BYTE		N06     Cn2   v100
	BYTE	W12
	BYTE		N01   
	BYTE	W06
	BYTE		N06     Cn2   v112
	BYTE	W06
	BYTE		        Gn1   v100
	BYTE	W06
	BYTE	PEND
// 013   ----------------------------------------
lyingcoldly_3_013:
	BYTE		N06     Cn2   v112
	BYTE	W12
	BYTE		N06   
	BYTE	W12
	BYTE		N12   
	BYTE	W12
	BYTE		N06     Gn1 
	BYTE	W06
	BYTE		        An1   v100
	BYTE	W06
	BYTE		N18     Cn2   v112
	BYTE	W18
	BYTE		N06     Cn2   v100
	BYTE	W12
	BYTE		N06   
	BYTE	W06
	BYTE		        Dn2   v112
	BYTE	W06
	BYTE		        Cn2   v100
	BYTE	W06
	BYTE	PEND
// 014   ----------------------------------------
	BYTE		        Bn1   v112
	BYTE	W12
	BYTE		N06   
	BYTE	W12
	BYTE		N12   
	BYTE	W12
	BYTE		N06     Fs1 
	BYTE	W06
	BYTE		        An1   v100
	BYTE	W06
	BYTE		N18     Bn1   v112
	BYTE	W18
	BYTE		N06     Bn1   v100
	BYTE	W12
	BYTE		N01   
	BYTE	W06
	BYTE		N12     Fs1   v112
	BYTE	W12
// 015   ----------------------------------------
	BYTE		N06     Bn1 
	BYTE	W12
	BYTE		N06   
	BYTE	W12
	BYTE		N12   
	BYTE	W12
	BYTE		N06     Fs1 
	BYTE	W06
	BYTE		        An1   v100
	BYTE	W06
	BYTE		        Bn1   v112
	BYTE	W06
	BYTE		        Fs2   v100
	BYTE	W06
	BYTE		        An2   v112
	BYTE	W06
	BYTE		N12     Bn2 
	BYTE	W12
	BYTE		N06     Fs2   v100
	BYTE	W06
	BYTE		        An2   v112
	BYTE	W06
	BYTE		        Bn2   v100
	BYTE	W06
// 016   ----------------------------------------
	BYTE		        An2   v112
	BYTE	W12
	BYTE		        An1 
	BYTE	W12
	BYTE		N12   
	BYTE	W12
	BYTE		N06     En1 
	BYTE	W06
	BYTE		        Gn1   v100
	BYTE	W06
	BYTE		N18     An1   v112
	BYTE	W18
	BYTE		N06     An1   v100
	BYTE	W12
	BYTE		N01   
	BYTE	W06
	BYTE		N12     En1   v112
	BYTE	W12
// 017   ----------------------------------------
	BYTE		N06     An1 
	BYTE	W12
	BYTE		N06   
	BYTE	W12
	BYTE		N12   
	BYTE	W12
	BYTE		N06     En1 
	BYTE	W06
	BYTE		        Gn1   v100
	BYTE	W06
	BYTE		N18     An1   v112
	BYTE	W18
	BYTE		N06     An1   v100
	BYTE	W12
	BYTE		        En1 
	BYTE	W06
	BYTE		        An1   v112
	BYTE	W06
	BYTE		        As1   v100
	BYTE	W06
// 018   ----------------------------------------
	BYTE		        Bn1   v112
	BYTE	W12
	BYTE		N06   
	BYTE	W12
	BYTE		N12   
	BYTE	W12
	BYTE		N06     Fs1 
	BYTE	W06
	BYTE		        An1   v100
	BYTE	W06
	BYTE		N18     Bn1   v112
	BYTE	W18
	BYTE		N06     Bn1   v100
	BYTE	W12
	BYTE		        Fs1 
	BYTE	W06
	BYTE		N12     An1   v112
	BYTE	W12
// 019   ----------------------------------------
	BYTE		        Bn1 
	BYTE	W12
	BYTE		N24     Bn2 
	BYTE	W24
	BYTE		        An2 
	BYTE	W24
	BYTE		        Fs2 
	BYTE	W24
	BYTE		N12     Bn1   v100
	BYTE	W12
// 020   ----------------------------------------
	BYTE	PATT
	 POIN2	lyingcoldly_3_012
// 021   ----------------------------------------
	BYTE	PATT
	 POIN2	lyingcoldly_3_013
// 022   ----------------------------------------
	BYTE		N17     Bn1   v112
	BYTE	W18
	BYTE		N04     Bn1   v100
	BYTE	W12
	BYTE		N06     An1 
	BYTE	W06
	BYTE		N23     Bn1   v112
	BYTE	W24
	BYTE		N09   
	BYTE	W12
	BYTE		N06     An1 
	BYTE	W06
	BYTE		        As1   v100
	BYTE	W06
	BYTE		N10     Bn1   v112
	BYTE	W12
// 023   ----------------------------------------
	BYTE		N17     En2 
	BYTE	W18
	BYTE		N04     En2   v100
	BYTE	W12
	BYTE		N06     Bn1 
	BYTE	W06
	BYTE		N17     En2   v112
	BYTE	W18
	BYTE		N06     Dn2   v100
	BYTE	W06
	BYTE		        En2   v112
	BYTE	W06
	BYTE		        Bn1   v100
	BYTE	W06
	BYTE		        An1   v112
	BYTE	W06
	BYTE		        Gn1   v100
	BYTE	W06
	BYTE		N11     En1   v112
	BYTE	W12
// 024   ----------------------------------------
	BYTE		N17     An1 
	BYTE	W18
	BYTE		N16     An1   v100
	BYTE	W18
	BYTE		N13     As1   v112
	BYTE	W18
	BYTE		N06     Gs1   v100
	BYTE	W06
	BYTE		N12     As1   v112
	BYTE	W12
	BYTE		N12   
	BYTE	W12
	BYTE		N12   
	BYTE	W12
// 025   ----------------------------------------
	BYTE		N16     Bn1 
	BYTE	W18
	BYTE		        Bn1   v100
	BYTE	W18
	BYTE		N12     Cs2   v112
	BYTE	W18
	BYTE		N06     Bn1   v100
	BYTE	W06
	BYTE		N12     Cs2   v112
	BYTE	W12
	BYTE		N12   
	BYTE	W12
	BYTE		N12   
	BYTE	W12
// 026   ----------------------------------------
	BYTE		N06     Fs2 
	BYTE	W12
	BYTE		N06   
	BYTE	W18
	BYTE		        Cs2   v100
	BYTE	W06
	BYTE		        En2   v112
	BYTE	W06
	BYTE		        Cs2   v100
	BYTE	W06
	BYTE		N12     Fs2   v112
	BYTE	W12
	BYTE		        Fs1 
	BYTE	W12
	BYTE		        As1 
	BYTE	W12
	BYTE		        Fs2 
	BYTE	W12
// 027   ----------------------------------------
	BYTE		        Bn1 
	BYTE	W84
	BYTE		N12   
	BYTE	W12
// 028   ----------------------------------------
lyingcoldly_3_028:
	BYTE		N05     En1   v112
	BYTE	W06
	BYTE		        En1   v100
	BYTE	W06
	BYTE		        En1   v112
	BYTE	W06
	BYTE		        En1   v100
	BYTE	W06
	BYTE		        En1   v112
	BYTE	W06
	BYTE		        En1   v100
	BYTE	W06
	BYTE		        En1   v112
	BYTE	W06
	BYTE		        En1   v100
	BYTE	W06
	BYTE		        En1   v112
	BYTE	W06
	BYTE		        En1   v100
	BYTE	W06
	BYTE		        En1   v112
	BYTE	W06
	BYTE		        En2   v100
	BYTE	W06
	BYTE		        En2   v112
	BYTE	W06
	BYTE		        En2   v100
	BYTE	W06
	BYTE		        Dn2   v112
	BYTE	W06
	BYTE		        Dn2   v100
	BYTE	W06
	BYTE	PEND
// 029   ----------------------------------------
lyingcoldly_3_029:
	BYTE		N05     Cn2   v112
	BYTE	W06
	BYTE		        Cn2   v100
	BYTE	W06
	BYTE		        Cn2   v112
	BYTE	W06
	BYTE		        Cn2   v100
	BYTE	W06
	BYTE		        Cn2   v112
	BYTE	W06
	BYTE		        Cn2   v100
	BYTE	W06
	BYTE		        Cn2   v112
	BYTE	W06
	BYTE		        Cn2   v100
	BYTE	W06
	BYTE		        Cn2   v112
	BYTE	W06
	BYTE		        Cn2   v100
	BYTE	W06
	BYTE		        Cn2   v112
	BYTE	W06
	BYTE		        Dn2   v100
	BYTE	W06
	BYTE		        Dn2   v112
	BYTE	W06
	BYTE		        Dn2   v100
	BYTE	W06
	BYTE		        Dn1   v112
	BYTE	W06
	BYTE		        Dn1   v100
	BYTE	W06
	BYTE	PEND
// 030   ----------------------------------------
	BYTE	PATT
	 POIN2	lyingcoldly_3_028
// 031   ----------------------------------------
	BYTE	PATT
	 POIN2	lyingcoldly_3_029
// 032   ----------------------------------------
	BYTE	PATT
	 POIN2	lyingcoldly_3_028
// 033   ----------------------------------------
	BYTE	PATT
	 POIN2	lyingcoldly_3_029
// 034   ----------------------------------------
	BYTE	PATT
	 POIN2	lyingcoldly_3_028
// 035   ----------------------------------------
	BYTE	PATT
	 POIN2	lyingcoldly_3_029
// 036   ----------------------------------------
lyingcoldly_3_036:
	BYTE		N05     Fn1   v112
	BYTE	W06
	BYTE		        Fn1   v100
	BYTE	W06
	BYTE		        Fn1   v112
	BYTE	W06
	BYTE		        Fn1   v100
	BYTE	W06
	BYTE		        Fn1   v112
	BYTE	W06
	BYTE		        Fn1   v100
	BYTE	W06
	BYTE		        Fn1   v112
	BYTE	W06
	BYTE		        Fn1   v100
	BYTE	W06
	BYTE		        Fn1   v112
	BYTE	W06
	BYTE		        Fn1   v100
	BYTE	W06
	BYTE		        Fn1   v112
	BYTE	W06
	BYTE		        Fn1   v100
	BYTE	W06
	BYTE		        Fn1   v112
	BYTE	W06
	BYTE		        Fn1   v100
	BYTE	W06
	BYTE		        Ds1   v112
	BYTE	W06
	BYTE		        En1   v100
	BYTE	W06
	BYTE	PEND
// 037   ----------------------------------------
	BYTE	PATT
	 POIN2	lyingcoldly_3_036
// 038   ----------------------------------------
	BYTE	PATT
	 POIN2	lyingcoldly_3_036
// 039   ----------------------------------------
lyingcoldly_3_039:
	BYTE		N05     Fn1   v112
	BYTE	W06
	BYTE		        Fn1   v100
	BYTE	W06
	BYTE		        Fn1   v112
	BYTE	W06
	BYTE		        Fn1   v100
	BYTE	W06
	BYTE		        Fn1   v112
	BYTE	W06
	BYTE		        Fn1   v100
	BYTE	W06
	BYTE		        Fn1   v112
	BYTE	W06
	BYTE		        Fn1   v100
	BYTE	W06
	BYTE		        Fn1   v112
	BYTE	W06
	BYTE		        Fn2   v100
	BYTE	W06
	BYTE		        Fn2   v112
	BYTE	W06
	BYTE		        Fn2   v100
	BYTE	W06
	BYTE		        Fn2   v112
	BYTE	W06
	BYTE		        Fn2   v100
	BYTE	W06
	BYTE		        Fn2   v112
	BYTE	W06
	BYTE		        Fn2   v100
	BYTE	W06
	BYTE	PEND
// 040   ----------------------------------------
	BYTE		N14     An1   v112
	BYTE	W18
	BYTE		        An1   v100
	BYTE	W18
	BYTE		N13     An1   v112
	BYTE	W60
// 041   ----------------------------------------
lyingcoldly_3_041:
	BYTE		N10     Dn2   v112
	BYTE	W12
	BYTE		N11   
	BYTE	W12
	BYTE		N10   
	BYTE	W12
	BYTE		N11   
	BYTE	W12
	BYTE		N10   
	BYTE	W12
	BYTE		N11   
	BYTE	W12
	BYTE		N11   
	BYTE	W12
	BYTE		N20     Gn1 
	BYTE	W12
	BYTE	PEND
// 042   ----------------------------------------
lyingcoldly_3_042:
	BYTE	W12
	BYTE		N11     Gn1   v112
	BYTE	W12
	BYTE		N11   
	BYTE	W12
	BYTE		N11   
	BYTE	W12
	BYTE		N11   
	BYTE	W12
	BYTE		N11   
	BYTE	W12
	BYTE		N11   
	BYTE	W12
	BYTE		N12     An1 
	BYTE	W12
	BYTE	PEND
// 043   ----------------------------------------
	BYTE		N11     As1 
	BYTE	W12
	BYTE		N11   
	BYTE	W12
	BYTE		N11   
	BYTE	W12
	BYTE		N22     Cn2 
	BYTE	W24
	BYTE		N11   
	BYTE	W12
	BYTE		N11   
	BYTE	W12
	BYTE		N18     Dn2 
	BYTE	W12
// 044   ----------------------------------------
	BYTE	W12
	BYTE		N11   
	BYTE	W12
	BYTE		N11   
	BYTE	W12
	BYTE		N11   
	BYTE	W12
	BYTE		N11   
	BYTE	W12
	BYTE		N11   
	BYTE	W12
	BYTE		N11   
	BYTE	W12
	BYTE		        An1 
	BYTE	W12
// 045   ----------------------------------------
	BYTE	PATT
	 POIN2	lyingcoldly_3_041
// 046   ----------------------------------------
	BYTE	PATT
	 POIN2	lyingcoldly_3_042
// 047   ----------------------------------------
	BYTE		N11     As1   v112
	BYTE	W12
	BYTE		N11   
	BYTE	W12
	BYTE		N11   
	BYTE	W12
	BYTE		N22     Cn2 
	BYTE	W24
	BYTE		N11   
	BYTE	W12
	BYTE		N11   
	BYTE	W12
	BYTE		N12   
	BYTE	W12
// 048   ----------------------------------------
	BYTE		        Dn2 
	BYTE	W96
// 049   ----------------------------------------
	BYTE	W84
	BYTE		N06     Cn1 
	BYTE	W06
	BYTE		        Cn1   v100
	BYTE	W06
// 050   ----------------------------------------
	BYTE		N12     Dn1   v112
	BYTE	W96
// 051   ----------------------------------------
	BYTE	W84
	BYTE		N06     Cn1 
	BYTE	W06
	BYTE		        Dn1   v100
	BYTE	W06
// 052   ----------------------------------------
	BYTE	PATT
	 POIN2	lyingcoldly_3_028
// 053   ----------------------------------------
	BYTE	PATT
	 POIN2	lyingcoldly_3_029
// 054   ----------------------------------------
	BYTE	PATT
	 POIN2	lyingcoldly_3_028
// 055   ----------------------------------------
	BYTE	PATT
	 POIN2	lyingcoldly_3_029
// 056   ----------------------------------------
	BYTE	PATT
	 POIN2	lyingcoldly_3_036
// 057   ----------------------------------------
	BYTE	PATT
	 POIN2	lyingcoldly_3_036
// 058   ----------------------------------------
	BYTE	PATT
	 POIN2	lyingcoldly_3_036
// 059   ----------------------------------------
	BYTE	PATT
	 POIN2	lyingcoldly_3_039
// 060   ----------------------------------------
	BYTE	W96
// 061   ----------------------------------------
	BYTE	W96
// 062   ----------------------------------------
	BYTE	W96
// 063   ----------------------------------------
	BYTE	PATT
	 POIN2	lyingcoldly_3_003
	BYTE	GoTo
	 POIN2	lyingcoldly_3_B1
lyingcoldly_3_B2:
// 064   ----------------------------------------
	BYTE	FINE

//**************** Track 4 (Midi-Chn.4) ****************//

lyingcoldly_4:
	BYTE	KEYSH   lyingcoldly_key+0
// 000   ----------------------------------------
	BYTE		VOICE   55
	BYTE		VOL     115*lyingcoldly_mvl/mxv
	BYTE		PAN     c_v+10
	BYTE		BEND    c_v+0
	BYTE	W96
// 001   ----------------------------------------
	BYTE	W96
// 002   ----------------------------------------
	BYTE	W96
// 003   ----------------------------------------
lyingcoldly_4_003:
	BYTE		N11     En3   v120
	BYTE	W18
	BYTE		N11   
	BYTE	W18
	BYTE		N11   
	BYTE	W60
	BYTE	PEND
lyingcoldly_4_B1:
// 004   ----------------------------------------
	BYTE		N76     En2   v108
	BYTE	W96
// 005   ----------------------------------------
	BYTE	W96
// 006   ----------------------------------------
	BYTE	W96
// 007   ----------------------------------------
	BYTE	W96
// 008   ----------------------------------------
	BYTE	W96
// 009   ----------------------------------------
	BYTE	W96
// 010   ----------------------------------------
	BYTE	W96
// 011   ----------------------------------------
	BYTE	W96
// 012   ----------------------------------------
	BYTE	W96
// 013   ----------------------------------------
	BYTE	W96
// 014   ----------------------------------------
	BYTE	W96
// 015   ----------------------------------------
	BYTE	W96
// 016   ----------------------------------------
	BYTE	W96
// 017   ----------------------------------------
	BYTE	W96
// 018   ----------------------------------------
	BYTE	W96
// 019   ----------------------------------------
	BYTE	W96
// 020   ----------------------------------------
	BYTE	W96
// 021   ----------------------------------------
	BYTE	W96
// 022   ----------------------------------------
	BYTE	W96
// 023   ----------------------------------------
	BYTE	W96
// 024   ----------------------------------------
	BYTE	W96
// 025   ----------------------------------------
	BYTE	W96
// 026   ----------------------------------------
	BYTE	W96
// 027   ----------------------------------------
	BYTE	W96
// 028   ----------------------------------------
lyingcoldly_4_028:
	BYTE		N76     En2   v108
	BYTE		N76     En3   v112
	BYTE	W96
	BYTE	PEND
// 029   ----------------------------------------
	BYTE	W96
// 030   ----------------------------------------
	BYTE	PATT
	 POIN2	lyingcoldly_4_028
// 031   ----------------------------------------
	BYTE	W96
// 032   ----------------------------------------
	BYTE	PATT
	 POIN2	lyingcoldly_4_028
// 033   ----------------------------------------
	BYTE	W96
// 034   ----------------------------------------
	BYTE	PATT
	 POIN2	lyingcoldly_4_028
// 035   ----------------------------------------
	BYTE	W96
// 036   ----------------------------------------
	BYTE	W96
// 037   ----------------------------------------
	BYTE	W96
// 038   ----------------------------------------
	BYTE	W96
// 039   ----------------------------------------
	BYTE	W96
// 040   ----------------------------------------
	BYTE		N14     An2   v116
	BYTE	W18
	BYTE		        An2   v108
	BYTE	W18
	BYTE		N13   
	BYTE	W60
// 041   ----------------------------------------
lyingcoldly_4_041:
	BYTE		N76     Dn2   v108
	BYTE		N76     Dn3   v112
	BYTE	W96
	BYTE	PEND
// 042   ----------------------------------------
	BYTE	W96
// 043   ----------------------------------------
	BYTE	W96
// 044   ----------------------------------------
	BYTE	W96
// 045   ----------------------------------------
	BYTE	W96
// 046   ----------------------------------------
	BYTE	W96
// 047   ----------------------------------------
	BYTE	W96
// 048   ----------------------------------------
	BYTE	PATT
	 POIN2	lyingcoldly_4_041
// 049   ----------------------------------------
	BYTE	W96
// 050   ----------------------------------------
	BYTE	PATT
	 POIN2	lyingcoldly_4_041
// 051   ----------------------------------------
	BYTE	W96
// 052   ----------------------------------------
	BYTE	PATT
	 POIN2	lyingcoldly_4_028
// 053   ----------------------------------------
	BYTE	W96
// 054   ----------------------------------------
	BYTE	PATT
	 POIN2	lyingcoldly_4_028
// 055   ----------------------------------------
	BYTE	W96
// 056   ----------------------------------------
	BYTE	W96
// 057   ----------------------------------------
	BYTE	W96
// 058   ----------------------------------------
	BYTE	W96
// 059   ----------------------------------------
	BYTE	W96
// 060   ----------------------------------------
	BYTE	W96
// 061   ----------------------------------------
	BYTE	W96
// 062   ----------------------------------------
	BYTE	W96
// 063   ----------------------------------------
	BYTE	PATT
	 POIN2	lyingcoldly_4_003
	BYTE	GoTo
	 POIN2	lyingcoldly_4_B1
lyingcoldly_4_B2:
// 064   ----------------------------------------
	BYTE	FINE

//**************** Track 5 (Midi-Chn.5) ****************//

lyingcoldly_5:
	BYTE	KEYSH   lyingcoldly_key+0
// 000   ----------------------------------------
	BYTE		VOICE   4
	BYTE		VOL     70*lyingcoldly_mvl/mxv
	BYTE		PAN     c_v+0
	BYTE		BEND    c_v+0
	BYTE	W96
// 001   ----------------------------------------
	BYTE	W96
// 002   ----------------------------------------
	BYTE	W96
// 003   ----------------------------------------
lyingcoldly_5_003:
	BYTE	W48
	BYTE		N02     An1   v088
	BYTE	W02
	BYTE		        En2   v096
	BYTE	W02
	BYTE		        An2   v092
	BYTE	W02
	BYTE		        Cs3   v084
	BYTE	W02
	BYTE		        En3   v096
	BYTE	W02
	BYTE		        An3   v088
	BYTE	W02
	BYTE		        Cs4   v076
	BYTE	W02
	BYTE		        En4   v096
	BYTE	W02
	BYTE		        An4   v104
	BYTE	W02
	BYTE		        Cs5   v084
	BYTE	W02
	BYTE		        En5   v096
	BYTE	W02
	BYTE		        An5   v104
	BYTE	W02
	BYTE		        Cs6   v088
	BYTE	W02
	BYTE		        An5 
	BYTE	W02
	BYTE		        En5   v092
	BYTE	W02
	BYTE		        Cs5   v080
	BYTE	W02
	BYTE		        An4   v036
	BYTE	W02
	BYTE		        En4   v100
	BYTE	W02
	BYTE		        Cs4   v092
	BYTE	W02
	BYTE		        An3   v084
	BYTE	W02
	BYTE		        En3   v104
	BYTE	W02
	BYTE		        Cs3   v096
	BYTE	W02
	BYTE		        An2   v104
	BYTE	W02
	BYTE		        En2 
	BYTE	W02
	BYTE	PEND
lyingcoldly_5_B1:
// 004   ----------------------------------------
	BYTE	W96
// 005   ----------------------------------------
	BYTE	W96
// 006   ----------------------------------------
	BYTE	W96
// 007   ----------------------------------------
	BYTE	W96
// 008   ----------------------------------------
	BYTE	W96
// 009   ----------------------------------------
	BYTE	W96
// 010   ----------------------------------------
	BYTE	W96
// 011   ----------------------------------------
	BYTE	W96
// 012   ----------------------------------------
	BYTE	W96
// 013   ----------------------------------------
	BYTE	W96
// 014   ----------------------------------------
	BYTE	W96
// 015   ----------------------------------------
	BYTE	W96
// 016   ----------------------------------------
	BYTE	W96
// 017   ----------------------------------------
	BYTE	W96
// 018   ----------------------------------------
	BYTE	W96
// 019   ----------------------------------------
	BYTE	W96
// 020   ----------------------------------------
	BYTE	W96
// 021   ----------------------------------------
	BYTE	W96
// 022   ----------------------------------------
	BYTE	W96
// 023   ----------------------------------------
	BYTE	W96
// 024   ----------------------------------------
	BYTE	W96
// 025   ----------------------------------------
	BYTE	W96
// 026   ----------------------------------------
	BYTE	W96
// 027   ----------------------------------------
	BYTE	W48
	BYTE		N06     Bn5   v080
	BYTE	W02
	BYTE		        Bn4   v072
	BYTE	W02
	BYTE		        An5   v076
	BYTE	W02
	BYTE		        An4 
	BYTE	W02
	BYTE		        Fs5 
	BYTE	W02
	BYTE		        Fs4   v072
	BYTE	W02
	BYTE		        Ds5 
	BYTE	W02
	BYTE		        Ds4   v068
	BYTE	W02
	BYTE		        Cs5 
	BYTE	W02
	BYTE		        Cs4   v064
	BYTE	W02
	BYTE		        Bn4 
	BYTE	W02
	BYTE		        Bn3   v060
	BYTE	W02
	BYTE		        An4 
	BYTE	W02
	BYTE		        An3   v056
	BYTE	W02
	BYTE		        Fs4 
	BYTE	W02
	BYTE		        Fs3   v052
	BYTE	W02
	BYTE		        En4 
	BYTE	W02
	BYTE		        En3   v048
	BYTE	W02
	BYTE		        Ds4 
	BYTE	W02
	BYTE		        Ds3   v044
	BYTE	W02
	BYTE		        Cs4 
	BYTE	W02
	BYTE		        Cs3 
	BYTE	W02
	BYTE		        Bn3   v040
	BYTE	W02
	BYTE		        Bn2 
	BYTE	W02
// 028   ----------------------------------------
	BYTE		        En3   v036
	BYTE	W96
// 029   ----------------------------------------
	BYTE	W96
// 030   ----------------------------------------
	BYTE	W96
// 031   ----------------------------------------
	BYTE	W96
// 032   ----------------------------------------
	BYTE	W96
// 033   ----------------------------------------
	BYTE	W96
// 034   ----------------------------------------
	BYTE	W96
// 035   ----------------------------------------
	BYTE	W96
// 036   ----------------------------------------
	BYTE	W96
// 037   ----------------------------------------
	BYTE	W96
// 038   ----------------------------------------
	BYTE	W96
// 039   ----------------------------------------
	BYTE	W96
// 040   ----------------------------------------
	BYTE	PATT
	 POIN2	lyingcoldly_5_003
// 041   ----------------------------------------
	BYTE	W96
// 042   ----------------------------------------
	BYTE	W96
// 043   ----------------------------------------
	BYTE	W96
// 044   ----------------------------------------
	BYTE	W96
// 045   ----------------------------------------
	BYTE	W96
// 046   ----------------------------------------
	BYTE	W96
// 047   ----------------------------------------
	BYTE	W96
// 048   ----------------------------------------
	BYTE	W96
// 049   ----------------------------------------
	BYTE	W96
// 050   ----------------------------------------
	BYTE	W96
// 051   ----------------------------------------
	BYTE	W96
// 052   ----------------------------------------
	BYTE	W96
// 053   ----------------------------------------
	BYTE	W96
// 054   ----------------------------------------
	BYTE	W96
// 055   ----------------------------------------
	BYTE	W96
// 056   ----------------------------------------
	BYTE	W96
// 057   ----------------------------------------
	BYTE	W96
// 058   ----------------------------------------
	BYTE	W96
// 059   ----------------------------------------
	BYTE	W96
// 060   ----------------------------------------
	BYTE	W96
// 061   ----------------------------------------
	BYTE	W96
// 062   ----------------------------------------
	BYTE	W96
// 063   ----------------------------------------
	BYTE	PATT
	 POIN2	lyingcoldly_5_003
	BYTE	GoTo
	 POIN2	lyingcoldly_5_B1
lyingcoldly_5_B2:
// 064   ----------------------------------------
	BYTE	FINE

//**************** Track 6 (Midi-Chn.6) ****************//

lyingcoldly_6:
	BYTE	KEYSH   lyingcoldly_key+0
// 000   ----------------------------------------
	BYTE		VOICE   0
	BYTE		VOL     75*lyingcoldly_mvl/mxv
	BYTE		PAN     c_v+0
	BYTE		BEND    c_v+0
	BYTE	W96
// 001   ----------------------------------------
	BYTE	W96
// 002   ----------------------------------------
	BYTE	W96
// 003   ----------------------------------------
	BYTE		N05     Gn3   v108
	BYTE		N05     Bn3   v100
	BYTE		N05     Dn4   v104
	BYTE	W18
	BYTE		        Gn3   v108
	BYTE		N05     Bn3 
	BYTE		N05     Dn4   v112
	BYTE	W18
	BYTE		        En3   v108
	BYTE		N05     An3   v112
	BYTE		N05     Cs4 
	BYTE	W60
lyingcoldly_6_B1:
// 004   ----------------------------------------
	BYTE		N44     Bn2   v108
	BYTE		N40     Bn3 
	BYTE		N21     Bn4 
	BYTE	W24
	BYTE		N09     Bn4   v092
	BYTE	W06
	BYTE		        Gn4 
	BYTE	W06
	BYTE		        En4 
	BYTE	W06
	BYTE		        Bn3 
	BYTE	W06
	BYTE		        Gn3 
	BYTE	W12
	BYTE		N11     Fs3   v108
	BYTE		N11     Fs4 
	BYTE	W12
	BYTE		N07     Gn3   v104
	BYTE		N13     Gn4 
	BYTE	W12
	BYTE		N56     An2 
	BYTE		N15     Gn3   v088
	BYTE		N14     Cs4   v104
	BYTE		N17     En4 
	BYTE	W12
// 005   ----------------------------------------
	BYTE	W12
	BYTE		N05     Gn3   v076
	BYTE		N05     Cs4   v088
	BYTE	W06
	BYTE		        En4 
	BYTE	W06
	BYTE		N11     An4 
	BYTE	W06
	BYTE		        En4 
	BYTE	W06
	BYTE		        Cs4 
	BYTE	W06
	BYTE		        An3 
	BYTE	W06
	BYTE		        En3   v076
	BYTE	W06
	BYTE		        Cs3   v064
	BYTE	W06
	BYTE		        An2   v104
	BYTE	W12
	BYTE		N05     En2   v108
	BYTE		N05     En4 
	BYTE	W06
	BYTE		        Fs2   v100
	BYTE		N05     Fs4 
	BYTE	W06
	BYTE		        Gn2   v096
	BYTE		N05     Gn4 
	BYTE	W06
	BYTE		        An2   v104
	BYTE		N05     An4 
	BYTE	W06
// 006   ----------------------------------------
	BYTE		N14     Bn2   v100
	BYTE		N14     En4   v108
	BYTE		N14     Gn4   v104
	BYTE		N15     Bn4   v108
	BYTE	W18
	BYTE		N04     Bn2   v104
	BYTE		N03     En4   v112
	BYTE		N03     Gn4   v108
	BYTE		N03     Bn4 
	BYTE	W18
	BYTE		N23     An2   v104
	BYTE		N32     Dn4   v108
	BYTE		N21     Fs4   v104
	BYTE		N21     An4   v112
	BYTE	W24
	BYTE		N10     Gn2   v116
	BYTE		N10     Gn4 
	BYTE	W12
	BYTE		N09     Fs2   v112
	BYTE		N09     Dn4   v104
	BYTE		N09     Fs4   v112
	BYTE	W12
	BYTE		N54     Gn2   v120
	BYTE		N54     Gn3 
	BYTE		N54     Gn4 
	BYTE	W12
// 007   ----------------------------------------
	BYTE	W48
	BYTE		N11     Bn2   v100
	BYTE	W12
	BYTE		N23     An2   v116
	BYTE		N23     En3 
	BYTE		N23     An3 
	BYTE	W24
	BYTE		N09     As2   v104
	BYTE		N09     As3 
	BYTE	W12
// 008   ----------------------------------------
	BYTE		N28     Bn2 
	BYTE		N24     En3 
	BYTE		N24     Gn3   v108
	BYTE		N28     Bn3   v104
	BYTE	W30
	BYTE		N14     En3   v072
	BYTE	W06
	BYTE		N28     Bn3   v112
	BYTE	W12
	BYTE		N16     En3 
	BYTE		N16     En4 
	BYTE	W18
	BYTE		N17     Fs3   v116
	BYTE		N17     Bn3   v104
	BYTE		N17     Fs4   v116
	BYTE	W18
	BYTE		N16     Bn3 
	BYTE		N21     Cs4   v108
	BYTE		N19     En4   v112
	BYTE		N16     Bn4   v116
	BYTE	W12
// 009   ----------------------------------------
	BYTE	W12
	BYTE		        An3   v112
	BYTE		N18     Cs4   v096
	BYTE		N15     En4   v104
	BYTE		N16     An4   v112
	BYTE	W24
	BYTE		N24     Gn3 
	BYTE		N23     Cs4 
	BYTE		N23     En4 
	BYTE		N24     Gn4 
	BYTE	W36
	BYTE		N05     En4   v108
	BYTE	W06
	BYTE		        Fs4   v100
	BYTE	W06
	BYTE		        Gn4 
	BYTE	W06
	BYTE		        An4   v108
	BYTE	W06
// 010   ----------------------------------------
	BYTE		N14     Bn3   v104
	BYTE		N13     En4   v112
	BYTE		N14     Bn4 
	BYTE	W18
	BYTE		N04     Bn3   v116
	BYTE		N04     En4   v112
	BYTE		N03     Bn4   v116
	BYTE	W18
	BYTE		N19     An3   v112
	BYTE		N19     Dn4   v108
	BYTE		N19     Fs4   v112
	BYTE		N19     An4 
	BYTE	W24
	BYTE		N11     Gn3   v120
	BYTE		N23     Dn4   v112
	BYTE		N11     Gn4   v120
	BYTE	W12
	BYTE		N10     Fs3   v116
	BYTE		N10     Fs4 
	BYTE	W12
	BYTE		N28     En3   v108
	BYTE		TIE     En4 
	BYTE	W12
// 011   ----------------------------------------
	BYTE	W24
	BYTE		N22     Bn2   v096
	BYTE		N22     En3   v084
	BYTE	W12
	BYTE		N08     Gn3   v108
	BYTE		N08     Bn3 
	BYTE	W12
	BYTE		N15     Fs3   v104
	BYTE		N11     An3   v108
	BYTE	W18
	BYTE		N32     En3   v112
	BYTE		N30     Gn3 
	BYTE	W30
// 012   ----------------------------------------
	BYTE	W04
	BYTE		EOT     En4 
	BYTE	W20
	BYTE		N21     Gn3   v116
	BYTE		N21     Gn4   v120
	BYTE	W24
	BYTE		N15     Gn3   v108
	BYTE		N13     Fs4 
	BYTE	W18
	BYTE		N12     Gn3   v100
	BYTE		N13     En4   v108
	BYTE	W18
	BYTE		N44     En3 
	BYTE		N44     Gn3   v104
	BYTE		N44     Bn3 
	BYTE	W12
// 013   ----------------------------------------
	BYTE	W36
	BYTE		N32     En3 
	BYTE		N32     Gn3   v100
	BYTE		N32     An3   v104
	BYTE	W36
	BYTE		N18     En3   v108
	BYTE		N22     Bn3   v112
	BYTE	W24
// 014   ----------------------------------------
	BYTE		N30     Fs3   v108
	BYTE		N28     An3 
	BYTE		N30     Dn4   v120
	BYTE	W36
	BYTE		N54     Fs3   v108
	BYTE		N54     An3   v096
	BYTE	W60
// 015   ----------------------------------------
	BYTE		N32     Dn3   v104
	BYTE		N32     Gn3 
	BYTE	W36
	BYTE		N54     Dn3   v092
	BYTE		N52     Fs3 
	BYTE	W60
// 016   ----------------------------------------
	BYTE		TIE     En2   v096
	BYTE		N32     Cn3   v088
	BYTE		N30     En3   v100
	BYTE	W36
	BYTE		N92     Cn3   v104
	BYTE		N92     En3   v108
	BYTE		N92     Bn3 
	BYTE	W60
// 017   ----------------------------------------
	BYTE	W32
	BYTE	W02
	BYTE		EOT     En2 
	BYTE	W02
	BYTE		N32     Gn2   v104
	BYTE		N32     Cn3 
	BYTE		N30     En3   v100
	BYTE		N32     Gn3   v104
	BYTE	W36
	BYTE		N20     An2 
	BYTE		N18     Cn3 
	BYTE		N20     An3 
	BYTE	W24
// 018   ----------------------------------------
	BYTE		N92     Bn2 
	BYTE		N92     Dn3   v100
	BYTE		N84     Fs3   v088
	BYTE		N92     Bn3   v104
	BYTE	W96
// 019   ----------------------------------------
	BYTE	W12
	BYTE		N11     Fs2   v076
	BYTE		N24     Dn3   v080
	BYTE		N11     Fs3   v076
	BYTE	W12
	BYTE		N10     An2   v108
	BYTE		N10     An3 
	BYTE	W12
	BYTE		N11     Bn2   v096
	BYTE		N11     Bn3 
	BYTE	W12
	BYTE		N16     Dn3   v108
	BYTE		N16     Fs3   v096
	BYTE		N16     Dn4   v108
	BYTE	W18
	BYTE		        En3   v100
	BYTE		N16     En4 
	BYTE	W18
	BYTE		N10     Fs3   v108
	BYTE		N10     Fs4   v112
	BYTE	W12
// 020   ----------------------------------------
	BYTE		N14     Gn3   v116
	BYTE		N14     Bn3   v096
	BYTE		N13     En4   v100
	BYTE		N14     Gn4   v116
	BYTE	W18
	BYTE		N15     Fs3   v108
	BYTE		N15     Bn3   v100
	BYTE		N15     Fs4   v108
	BYTE	W18
	BYTE		N68     En3   v120
	BYTE		N68     Bn3   v104
	BYTE		N68     En4   v120
	BYTE	W60
// 021   ----------------------------------------
	BYTE	W36
	BYTE		N07     Gn3 
	BYTE		N07     Bn3   v112
	BYTE		N06     En4   v108
	BYTE		N07     Gn4   v120
	BYTE	W12
	BYTE		N16     Fs3   v112
	BYTE		N16     Bn3   v108
	BYTE		N16     Fs4   v112
	BYTE	W18
	BYTE		N28     En3 
	BYTE		N28     Bn3   v104
	BYTE		N28     En4   v112
	BYTE	W30
// 022   ----------------------------------------
	BYTE		N17     Dn3   v108
	BYTE		N16     Fs3 
	BYTE		N17     Dn4 
	BYTE	W18
	BYTE		        Dn3 
	BYTE		N16     Fs3 
	BYTE		N17     Dn4 
	BYTE	W18
	BYTE		N48     Bn2   v104
	BYTE		N48     Fs3 
	BYTE		N48     Bn3 
	BYTE	W60
// 023   ----------------------------------------
	BYTE		N15     An2   v108
	BYTE		N15     Bn2   v100
	BYTE		N14     Dn3   v108
	BYTE		N15     An3 
	BYTE	W18
	BYTE		        An2 
	BYTE		N15     Bn2   v100
	BYTE		N14     Dn3   v108
	BYTE		N15     An3 
	BYTE	W18
	BYTE		N32     Gs2   v104
	BYTE		N30     Bn2   v100
	BYTE		N32     Dn3   v108
	BYTE		N32     Gs3   v104
	BYTE	W36
	BYTE		N20     Bn2   v120
	BYTE		N20     Bn3 
	BYTE	W24
// 024   ----------------------------------------
	BYTE		N17     En2   v096
	BYTE		N16     Cn3   v100
	BYTE		N16     En3   v108
	BYTE	W18
	BYTE		N08     Fs2   v112
	BYTE		N08     Cn3   v104
	BYTE		N08     Fs3   v112
	BYTE	W18
	BYTE		N40     Gn2 
	BYTE		N36     Cs3 
	BYTE		N36     En3 
	BYTE		N40     Gn3 
	BYTE	W48
	BYTE		N08     Gn2   v104
	BYTE		N06     Cs3 
	BYTE		N08     En3 
	BYTE		N08     Gn3 
	BYTE	W12
// 025   ----------------------------------------
	BYTE		N16     An2   v112
	BYTE		N16     Dn3   v108
	BYTE		N16     Fs3 
	BYTE		N16     An3   v112
	BYTE	W18
	BYTE		N08     Bn2   v116
	BYTE		N07     Dn3 
	BYTE		N08     Bn3 
	BYTE	W18
	BYTE		N30     Cs3   v112
	BYTE		N28     En3   v108
	BYTE		N28     Gn3   v112
	BYTE		N30     Cs4 
	BYTE	W36
	BYTE		N18     Gn3   v116
	BYTE		N18     Gn4   v120
	BYTE	W24
// 026   ----------------------------------------
	BYTE		N84     Gn3   v108
	BYTE		N90     As3   v112
	BYTE		N84     En4   v104
	BYTE		N90     Gn4   v120
	BYTE	W96
// 027   ----------------------------------------
	BYTE		N12     Fs3   v092
	BYTE		N12     An3   v112
	BYTE		N12     Ds4   v104
	BYTE		N12     Fs4   v116
	BYTE	W96
// 028   ----------------------------------------
lyingcoldly_6_028:
	BYTE	W48
	BYTE		N13     En3   v116
	BYTE		N14     Gn3   v108
	BYTE		N14     Bn3 
	BYTE		N13     En4   v116
	BYTE	W18
	BYTE		N08     Fs3 
	BYTE		N06     Bn3   v108
	BYTE		N08     Fs4   v116
	BYTE	W18
	BYTE		N05     Gn4   v100
	BYTE	W06
	BYTE		N04     An4   v108
	BYTE	W06
	BYTE	PEND
// 029   ----------------------------------------
lyingcoldly_6_029:
	BYTE		N07     Bn3   v104
	BYTE		N07     En4   v108
	BYTE		N07     Gn4 
	BYTE		N07     Bn4 
	BYTE	W12
	BYTE		N05     An3   v112
	BYTE		N06     Bn3   v108
	BYTE		N04     En4 
	BYTE		N05     An4   v112
	BYTE	W12
	BYTE		N06     Gn3 
	BYTE		N07     Bn3   v108
	BYTE		N06     En4   v112
	BYTE		N06     Gn4 
	BYTE	W24
	BYTE		N17     Cn2   v104
	BYTE		N16     Gn3   v112
	BYTE		N16     Cn4 
	BYTE		N16     Gn4 
	BYTE	W18
	BYTE		N28     Dn2   v104
	BYTE		N28     Fs3   v108
	BYTE		N24     Dn4 
	BYTE		N28     Fs4 
	BYTE	W30
	BYTE	PEND
// 030   ----------------------------------------
	BYTE	PATT
	 POIN2	lyingcoldly_6_028
// 031   ----------------------------------------
	BYTE	PATT
	 POIN2	lyingcoldly_6_029
// 032   ----------------------------------------
	BYTE	PATT
	 POIN2	lyingcoldly_6_028
// 033   ----------------------------------------
	BYTE	PATT
	 POIN2	lyingcoldly_6_029
// 034   ----------------------------------------
	BYTE	PATT
	 POIN2	lyingcoldly_6_028
// 035   ----------------------------------------
lyingcoldly_6_035:
	BYTE		N07     Bn3   v104
	BYTE		N07     En4   v108
	BYTE		N07     Gn4 
	BYTE		N07     Bn4 
	BYTE	W12
	BYTE		N05     An3   v112
	BYTE		N06     Bn3   v108
	BYTE		N04     En4 
	BYTE		N05     An4   v112
	BYTE	W12
	BYTE		N06     Gn3 
	BYTE		N07     Bn3   v108
	BYTE		N06     En4   v112
	BYTE		N06     Gn4 
	BYTE	W24
	BYTE		N14     Cn2   v104
	BYTE		N14     Gn3   v112
	BYTE		N14     En4   v116
	BYTE		N14     Gn4   v112
	BYTE	W18
	BYTE		N24     Dn2   v100
	BYTE		N24     Fs3   v108
	BYTE		N24     Dn4 
	BYTE		N24     Fs4   v116
	BYTE	W28
	BYTE	W01
	BYTE		TIE     Fn2   v100
	BYTE	W01
	BYTE	PEND
// 036   ----------------------------------------
lyingcoldly_6_036:
	BYTE		TIE     En3   v112
	BYTE		TIE     En4 
	BYTE	W96
	BYTE	PEND
// 037   ----------------------------------------
	BYTE	W76
	BYTE	W01
	BYTE		EOT     Fn2 
	BYTE	W05
	BYTE		        En3 
	BYTE		        En4 
	BYTE	W02
	BYTE		N07     Bn1 
	BYTE	W11
	BYTE		TIE     Fn1   v104
	BYTE		TIE     Fn2   v100
	BYTE	W01
// 038   ----------------------------------------
	BYTE	W96
// 039   ----------------------------------------
	BYTE	W76
	BYTE	W01
	BYTE		EOT     Fn1 
	BYTE		        Fn2 
	BYTE	W07
	BYTE		N07     Bn1   v112
	BYTE	W12
// 040   ----------------------------------------
	BYTE	W96
// 041   ----------------------------------------
	BYTE	W96
// 042   ----------------------------------------
	BYTE	W96
// 043   ----------------------------------------
	BYTE	W96
// 044   ----------------------------------------
	BYTE	W96
// 045   ----------------------------------------
	BYTE	W96
// 046   ----------------------------------------
	BYTE	W96
// 047   ----------------------------------------
	BYTE	W96
// 048   ----------------------------------------
lyingcoldly_6_048:
	BYTE	W48
	BYTE		N13     Dn3   v116
	BYTE		N14     Fn3   v108
	BYTE		N14     An3 
	BYTE		N13     Dn4   v116
	BYTE	W18
	BYTE		N08     En3 
	BYTE		N06     An3   v108
	BYTE		N08     En4   v116
	BYTE	W18
	BYTE		N05     Fn4   v100
	BYTE	W06
	BYTE		N04     Gn4   v108
	BYTE	W06
	BYTE	PEND
// 049   ----------------------------------------
lyingcoldly_6_049:
	BYTE		N07     An3   v104
	BYTE		N07     Dn4   v108
	BYTE		N07     Fn4 
	BYTE		N07     An4 
	BYTE	W12
	BYTE		N05     Gn3   v112
	BYTE		N06     An3   v108
	BYTE		N04     Dn4 
	BYTE		N05     Gn4   v112
	BYTE	W12
	BYTE		N06     Fn3 
	BYTE		N07     An3   v108
	BYTE		N06     Dn4   v112
	BYTE		N06     Fn4 
	BYTE	W24
	BYTE		N17     As1   v104
	BYTE		N16     Fn3   v112
	BYTE		N16     As3 
	BYTE		N16     Fn4 
	BYTE	W18
	BYTE		N28     Cn2   v104
	BYTE		N28     En3   v108
	BYTE		N24     Cn4 
	BYTE		N28     En4 
	BYTE	W30
	BYTE	PEND
// 050   ----------------------------------------
	BYTE	PATT
	 POIN2	lyingcoldly_6_048
// 051   ----------------------------------------
	BYTE	PATT
	 POIN2	lyingcoldly_6_049
// 052   ----------------------------------------
	BYTE	PATT
	 POIN2	lyingcoldly_6_028
// 053   ----------------------------------------
	BYTE	PATT
	 POIN2	lyingcoldly_6_029
// 054   ----------------------------------------
	BYTE	PATT
	 POIN2	lyingcoldly_6_028
// 055   ----------------------------------------
	BYTE	PATT
	 POIN2	lyingcoldly_6_035
// 056   ----------------------------------------
	BYTE	PATT
	 POIN2	lyingcoldly_6_036
// 057   ----------------------------------------
	BYTE	W76
	BYTE	W01
	BYTE		EOT     Fn2 
	BYTE	W05
	BYTE		        En3 
	BYTE		        En4 
	BYTE	W02
	BYTE		N07     Bn1   v112
	BYTE	W11
	BYTE		TIE     Fn1   v104
	BYTE		TIE     Fn2   v100
	BYTE	W01
// 058   ----------------------------------------
	BYTE	W96
// 059   ----------------------------------------
	BYTE	W76
	BYTE	W01
	BYTE		EOT     Fn1 
	BYTE		        Fn2 
	BYTE	W07
	BYTE		N07     Bn1   v112
	BYTE	W12
// 060   ----------------------------------------
	BYTE	W48
	BYTE		N05     En4 
	BYTE		N05     En5   v104
	BYTE	W18
	BYTE		        En4   v108
	BYTE		N05     En5   v104
	BYTE	W18
	BYTE		        En4   v112
	BYTE		N05     En5   v104
	BYTE	W12
// 061   ----------------------------------------
	BYTE		        Gn3 
	BYTE		N05     Bn3   v096
	BYTE		N05     Dn4   v100
	BYTE	W18
	BYTE		        Gn3   v104
	BYTE		N05     Bn3   v100
	BYTE		N05     Dn4   v104
	BYTE	W18
	BYTE		        En3 
	BYTE		N05     An3 
	BYTE		N05     Cs4   v108
	BYTE	W12
	BYTE		        En4   v116
	BYTE		N05     En5   v104
	BYTE	W18
	BYTE		        En4   v116
	BYTE		N05     En5   v104
	BYTE	W18
	BYTE		N11     Bn1   v108
	BYTE		N05     En4   v116
	BYTE		N05     En5   v104
	BYTE	W12
// 062   ----------------------------------------
	BYTE		        En3   v108
	BYTE		N05     Gn3   v104
	BYTE		N05     Bn3 
	BYTE	W18
	BYTE		        En3   v108
	BYTE		N05     Gn3   v104
	BYTE		N05     Bn3 
	BYTE	W18
	BYTE		        En3   v100
	BYTE		N05     An3   v108
	BYTE		N05     Cs4   v104
	BYTE	W12
	BYTE		        En4   v116
	BYTE		N05     En5   v100
	BYTE	W18
	BYTE		        En4   v112
	BYTE		N05     En5   v104
	BYTE	W18
	BYTE		        En4   v116
	BYTE		N05     En5   v104
	BYTE	W12
// 063   ----------------------------------------
	BYTE		        Gn3 
	BYTE		N05     Bn3   v096
	BYTE		N05     Dn4   v100
	BYTE	W18
	BYTE		        Gn3   v104
	BYTE		N05     Bn3   v100
	BYTE		N05     Dn4   v104
	BYTE	W18
	BYTE		        En3 
	BYTE		N05     An3 
	BYTE		N05     Cs4   v108
	BYTE	W60
	BYTE	GoTo
	 POIN2	lyingcoldly_6_B1
lyingcoldly_6_B2:
// 064   ----------------------------------------
	BYTE	FINE

//**************** Track 7 (Midi-Chn.7) ****************//

lyingcoldly_7:
	BYTE	KEYSH   lyingcoldly_key+0
// 000   ----------------------------------------
	BYTE		VOICE   80
	BYTE		VOL     77*lyingcoldly_mvl/mxv
	BYTE		PAN     c_v+20
	BYTE		BEND    c_v+0
	BYTE	W96
// 001   ----------------------------------------
	BYTE	W96
// 002   ----------------------------------------
	BYTE	W96
// 003   ----------------------------------------
	BYTE	W96
lyingcoldly_7_B1:
// 004   ----------------------------------------
	BYTE	W96
// 005   ----------------------------------------
	BYTE	W96
// 006   ----------------------------------------
	BYTE	W96
// 007   ----------------------------------------
	BYTE	W96
// 008   ----------------------------------------
	BYTE	W96
// 009   ----------------------------------------
	BYTE	W96
// 010   ----------------------------------------
	BYTE	W96
// 011   ----------------------------------------
	BYTE	W96
// 012   ----------------------------------------
	BYTE	W96
// 013   ----------------------------------------
	BYTE	W96
// 014   ----------------------------------------
	BYTE	W96
// 015   ----------------------------------------
	BYTE	W96
// 016   ----------------------------------------
	BYTE	W96
// 017   ----------------------------------------
	BYTE	W96
// 018   ----------------------------------------
	BYTE	W96
// 019   ----------------------------------------
	BYTE	W96
// 020   ----------------------------------------
	BYTE	W96
// 021   ----------------------------------------
	BYTE	W96
// 022   ----------------------------------------
	BYTE	W96
// 023   ----------------------------------------
	BYTE	W96
// 024   ----------------------------------------
	BYTE	W96
// 025   ----------------------------------------
	BYTE	W96
// 026   ----------------------------------------
	BYTE		N64     Gn3   v124
	BYTE	W24
	BYTE		N68     As2   v104
	BYTE	W24
	BYTE		N40     Cs3   v096
	BYTE	W24
	BYTE		N18     Gn3   v112
	BYTE	W24
// 027   ----------------------------------------
	BYTE		N12     Bn2   v108
	BYTE		N12     Ds3 
	BYTE		N12     Fs3   v096
	BYTE	W96
// 028   ----------------------------------------
	BYTE		N04     En3   v116
	BYTE		N05     Gn3   v112
	BYTE	W12
	BYTE		N04     Dn3   v104
	BYTE		N03     Fs3   v100
	BYTE	W12
	BYTE		N07     Bn2   v112
	BYTE		N06     En3   v124
	BYTE	W72
// 029   ----------------------------------------
	BYTE	W96
// 030   ----------------------------------------
	BYTE		N05     En3   v120
	BYTE		N06     Gn3   v112
	BYTE	W12
	BYTE		N04     Dn3   v108
	BYTE		N03     Fs3 
	BYTE	W12
	BYTE		N05     Bn2   v104
	BYTE		N05     En3   v124
	BYTE	W72
// 031   ----------------------------------------
	BYTE	W96
// 032   ----------------------------------------
lyingcoldly_7_032:
	BYTE		N04     En3   v124
	BYTE		N06     Gn3   v112
	BYTE	W12
	BYTE		N05     Dn3   v104
	BYTE		N04     Fs3   v108
	BYTE	W12
	BYTE		N05     Bn2   v116
	BYTE		N04     En3   v124
	BYTE	W72
	BYTE	PEND
// 033   ----------------------------------------
	BYTE	W96
// 034   ----------------------------------------
lyingcoldly_7_034:
	BYTE		N05     En3   v124
	BYTE		N07     Gn3   v108
	BYTE	W12
	BYTE		N05     Dn3 
	BYTE		N04     Fs3 
	BYTE	W12
	BYTE		N05     Bn2   v116
	BYTE		N04     En3   v124
	BYTE	W72
	BYTE	PEND
// 035   ----------------------------------------
	BYTE	W96
// 036   ----------------------------------------
	BYTE	W96
// 037   ----------------------------------------
	BYTE	W96
// 038   ----------------------------------------
	BYTE	W96
// 039   ----------------------------------------
	BYTE	W96
// 040   ----------------------------------------
	BYTE	W96
// 041   ----------------------------------------
	BYTE	W96
// 042   ----------------------------------------
	BYTE	W96
// 043   ----------------------------------------
	BYTE	W96
// 044   ----------------------------------------
	BYTE	W96
// 045   ----------------------------------------
	BYTE	W96
// 046   ----------------------------------------
	BYTE	W96
// 047   ----------------------------------------
	BYTE	W96
// 048   ----------------------------------------
	BYTE		        Dn3   v116
	BYTE		N05     Fn3   v112
	BYTE	W12
	BYTE		N04     Cn3   v104
	BYTE		N03     En3   v100
	BYTE	W12
	BYTE		N07     An2   v112
	BYTE		N06     Dn3   v124
	BYTE	W72
// 049   ----------------------------------------
	BYTE	W96
// 050   ----------------------------------------
	BYTE		N05     Dn3   v120
	BYTE		N06     Fn3   v112
	BYTE	W12
	BYTE		N04     Cn3   v108
	BYTE		N03     En3 
	BYTE	W12
	BYTE		N05     An2   v104
	BYTE		N05     Dn3   v124
	BYTE	W72
// 051   ----------------------------------------
	BYTE	W96
// 052   ----------------------------------------
	BYTE	PATT
	 POIN2	lyingcoldly_7_032
// 053   ----------------------------------------
	BYTE	W96
// 054   ----------------------------------------
	BYTE	PATT
	 POIN2	lyingcoldly_7_034
// 055   ----------------------------------------
	BYTE	W96
// 056   ----------------------------------------
	BYTE	W96
// 057   ----------------------------------------
	BYTE	W96
// 058   ----------------------------------------
	BYTE	W96
// 059   ----------------------------------------
	BYTE	W96
// 060   ----------------------------------------
	BYTE	W96
// 061   ----------------------------------------
	BYTE	W96
// 062   ----------------------------------------
	BYTE	W96
// 063   ----------------------------------------
	BYTE	W96
	BYTE	GoTo
	 POIN2	lyingcoldly_7_B1
lyingcoldly_7_B2:
// 064   ----------------------------------------
	BYTE	FINE

//**************** Track 8 (Midi-Chn.9) ****************//

lyingcoldly_8:
	BYTE	KEYSH   lyingcoldly_key+0
// 000   ----------------------------------------
	BYTE		VOICE   40
	BYTE		VOL     76*lyingcoldly_mvl/mxv
	BYTE		PAN     c_v-54
	BYTE		BEND    c_v+0
	BYTE		N05     Bn3   v112
	BYTE		N05     En4   v108
	BYTE	W18
	BYTE		        Bn3 
	BYTE		N05     En4 
	BYTE	W18
	BYTE		        Cs4   v092
	BYTE		N05     En4   v108
	BYTE	W60
// 001   ----------------------------------------
lyingcoldly_8_001:
	BYTE		N05     Dn4   v104
	BYTE		N05     En4 
	BYTE	W18
	BYTE		        Dn4   v100
	BYTE		N05     En4   v104
	BYTE	W18
	BYTE		        Cs4   v100
	BYTE		N05     En4   v108
	BYTE	W60
	BYTE	PEND
// 002   ----------------------------------------
lyingcoldly_8_002:
	BYTE		N05     Bn3   v112
	BYTE		N05     En4   v104
	BYTE	W18
	BYTE		        Bn3   v100
	BYTE		N05     En4   v104
	BYTE	W18
	BYTE		        Cs4   v096
	BYTE		N05     En4   v108
	BYTE	W60
	BYTE	PEND
// 003   ----------------------------------------
lyingcoldly_8_003:
	BYTE		N05     Dn4   v108
	BYTE	W18
	BYTE		N05   
	BYTE	W18
	BYTE		        Cs4   v096
	BYTE	W60
	BYTE	PEND
lyingcoldly_8_B1:
// 004   ----------------------------------------
	BYTE		N14     En3   v112
	BYTE	W96
// 005   ----------------------------------------
	BYTE	W96
// 006   ----------------------------------------
	BYTE	W96
// 007   ----------------------------------------
	BYTE	W96
// 008   ----------------------------------------
	BYTE		N24     Bn3   v096
	BYTE	W36
	BYTE		N11     Bn3   v108
	BYTE	W12
	BYTE		N15     En4   v104
	BYTE	W18
	BYTE		N17     Fs4 
	BYTE	W18
	BYTE		N22     Bn4   v116
	BYTE	W12
// 009   ----------------------------------------
	BYTE	W12
	BYTE		N23     An4   v108
	BYTE	W24
	BYTE		N24     Gn4   v112
	BYTE	W36
	BYTE		N05     En4   v104
	BYTE	W06
	BYTE		        Fs4   v100
	BYTE	W06
	BYTE		        Gn4   v092
	BYTE	W06
	BYTE		        An4   v096
	BYTE	W06
// 010   ----------------------------------------
	BYTE		N13     Bn4   v116
	BYTE	W18
	BYTE		N06   
	BYTE	W18
	BYTE		N23     An4   v112
	BYTE	W24
	BYTE		N11     Gn4   v100
	BYTE	W12
	BYTE		        Fs4   v112
	BYTE	W12
	BYTE		TIE     En4   v108
	BYTE	W12
// 011   ----------------------------------------
	BYTE	W92
	BYTE	W03
	BYTE		EOT   
	BYTE	W01
// 012   ----------------------------------------
	BYTE		N80     En3   v024
	BYTE	W84
	BYTE		TIE     Gn4   v052
	BYTE	W12
// 013   ----------------------------------------
	BYTE	W84
	BYTE	W02
	BYTE		EOT   
	BYTE	W10
// 014   ----------------------------------------
	BYTE		N32     Fs4   v044
	BYTE	W36
	BYTE		N56     Dn4   v068
	BYTE	W60
// 015   ----------------------------------------
	BYTE		N32     An3   v056
	BYTE	W36
	BYTE		N54     Bn3   v076
	BYTE	W60
// 016   ----------------------------------------
	BYTE	W96
// 017   ----------------------------------------
	BYTE	W96
// 018   ----------------------------------------
	BYTE	W96
// 019   ----------------------------------------
	BYTE	W96
// 020   ----------------------------------------
	BYTE	W48
	BYTE		N17     Gn4   v096
	BYTE	W18
	BYTE		        Fs4   v104
	BYTE	W18
	BYTE		N36     En4 
	BYTE	W12
// 021   ----------------------------------------
	BYTE	W36
	BYTE		N11     Gn4   v112
	BYTE	W12
	BYTE		N16     Fs4   v108
	BYTE	W18
	BYTE		N28     En4 
	BYTE	W30
// 022   ----------------------------------------
	BYTE		N17     Dn4   v096
	BYTE	W18
	BYTE		        Dn4   v112
	BYTE	W18
	BYTE		N44     Bn3   v104
	BYTE	W60
// 023   ----------------------------------------
	BYTE		N17     An3 
	BYTE	W18
	BYTE		        An3   v108
	BYTE	W18
	BYTE		N32     Gs3   v084
	BYTE	W36
	BYTE		N17     Bn3   v092
	BYTE	W24
// 024   ----------------------------------------
	BYTE	W96
// 025   ----------------------------------------
	BYTE	W96
// 026   ----------------------------------------
	BYTE	W72
	BYTE		N23     Gn4   v112
	BYTE	W24
// 027   ----------------------------------------
	BYTE		N12     Fs4   v108
	BYTE	W96
// 028   ----------------------------------------
	BYTE	W48
	BYTE		N17     En4   v104
	BYTE	W18
	BYTE		        Fs4   v100
	BYTE	W18
	BYTE		N05     Gn4   v092
	BYTE	W06
	BYTE		        An4   v100
	BYTE	W06
// 029   ----------------------------------------
	BYTE		N04     Bn4 
	BYTE	W12
	BYTE		        An4   v080
	BYTE	W12
	BYTE		        Gn4   v092
	BYTE	W24
	BYTE		N17     Gn4   v100
	BYTE	W18
	BYTE		N30     Fs4   v108
	BYTE	W30
// 030   ----------------------------------------
lyingcoldly_8_030:
	BYTE	W48
	BYTE		N17     En4   v100
	BYTE	W18
	BYTE		        Fs4   v092
	BYTE	W18
	BYTE		N05     Gn4   v088
	BYTE	W06
	BYTE		        An4   v092
	BYTE	W06
	BYTE	PEND
// 031   ----------------------------------------
	BYTE		N04     Bn4   v100
	BYTE	W12
	BYTE		        An4   v088
	BYTE	W12
	BYTE		        Gn4   v104
	BYTE	W24
	BYTE		N17     Gn4   v100
	BYTE	W18
	BYTE		N30     Fs4   v104
	BYTE	W30
// 032   ----------------------------------------
	BYTE	W48
	BYTE		N17     En4   v108
	BYTE	W18
	BYTE		        Fs4   v092
	BYTE	W18
	BYTE		N05     Gn4   v096
	BYTE	W06
	BYTE		        An4   v088
	BYTE	W06
// 033   ----------------------------------------
	BYTE		N04     Bn4   v096
	BYTE	W12
	BYTE		        An4   v092
	BYTE	W12
	BYTE		        Gn4   v108
	BYTE	W24
	BYTE		N17   
	BYTE	W18
	BYTE		N30     Fs4 
	BYTE	W30
// 034   ----------------------------------------
	BYTE	PATT
	 POIN2	lyingcoldly_8_030
// 035   ----------------------------------------
	BYTE		N04     Bn4   v100
	BYTE	W12
	BYTE		        An4   v092
	BYTE	W12
	BYTE		        Gn4   v104
	BYTE	W24
	BYTE		N17     Gn4   v108
	BYTE	W18
	BYTE		N30     Fs4   v100
	BYTE	W30
// 036   ----------------------------------------
	BYTE		TIE     En4   v096
	BYTE	W96
// 037   ----------------------------------------
	BYTE	W96
// 038   ----------------------------------------
	BYTE	W96
// 039   ----------------------------------------
	BYTE	W92
	BYTE	W02
	BYTE		EOT   
	BYTE	W02
// 040   ----------------------------------------
	BYTE	W96
// 041   ----------------------------------------
	BYTE		N56     An4   v112
	BYTE	W60
	BYTE		N11     En4   v096
	BYTE	W12
	BYTE		        Fn4   v104
	BYTE	W12
	BYTE		N72     Dn4   v100
	BYTE	W12
// 042   ----------------------------------------
	BYTE	W72
	BYTE		N05     Dn4   v096
	BYTE	W06
	BYTE		        En4   v092
	BYTE	W06
	BYTE		        Fn4   v076
	BYTE	W06
	BYTE		        Gn4   v092
	BYTE	W06
// 043   ----------------------------------------
	BYTE		N14     An4   v100
	BYTE	W18
	BYTE		N08     An4   v072
	BYTE	W18
	BYTE		N24     Gn4   v112
	BYTE	W24
	BYTE		N11     Fn4   v096
	BYTE	W12
	BYTE		        En4   v084
	BYTE	W12
	BYTE		N60     Fn4   v104
	BYTE	W12
// 044   ----------------------------------------
	BYTE	W60
	BYTE		N23     Gn3   v112
	BYTE	W24
	BYTE		N11     Gs3   v092
	BYTE	W12
// 045   ----------------------------------------
	BYTE		N24     An3   v096
	BYTE	W36
	BYTE		N11     An3   v108
	BYTE	W12
	BYTE		N15     Dn4   v104
	BYTE	W18
	BYTE		N17     En4 
	BYTE	W18
	BYTE		N22     An4   v116
	BYTE	W12
// 046   ----------------------------------------
	BYTE	W12
	BYTE		N23     Gn4   v108
	BYTE	W24
	BYTE		N24     Fn4   v112
	BYTE	W36
	BYTE		N05     Dn4   v104
	BYTE	W06
	BYTE		        En4   v100
	BYTE	W06
	BYTE		        Fn4   v092
	BYTE	W06
	BYTE		        Gn4   v096
	BYTE	W06
// 047   ----------------------------------------
	BYTE		N13     An4   v116
	BYTE	W18
	BYTE		N06   
	BYTE	W18
	BYTE		N23     Gn4   v112
	BYTE	W24
	BYTE		N11     Fn4   v100
	BYTE	W12
	BYTE		N23     En4   v112
	BYTE	W24
// 048   ----------------------------------------
	BYTE		N11     Dn4   v108
	BYTE	W48
	BYTE		N17     Dn4   v104
	BYTE	W18
	BYTE		        En4   v100
	BYTE	W18
	BYTE		N05     Fn4   v092
	BYTE	W06
	BYTE		        Gn4   v100
	BYTE	W06
// 049   ----------------------------------------
	BYTE		N04     An4 
	BYTE	W12
	BYTE		        Gn4   v080
	BYTE	W12
	BYTE		        Fn4   v092
	BYTE	W24
	BYTE		N17     Fn4   v100
	BYTE	W18
	BYTE		N24     En4   v108
	BYTE	W30
// 050   ----------------------------------------
	BYTE	W48
	BYTE		N17     Dn4   v104
	BYTE	W18
	BYTE		        En4   v096
	BYTE	W18
	BYTE		N05     Fn4 
	BYTE	W06
	BYTE		        Gn4 
	BYTE	W06
// 051   ----------------------------------------
	BYTE		N04     An4   v104
	BYTE	W12
	BYTE		        Gn4   v096
	BYTE	W12
	BYTE		        Fn4   v108
	BYTE	W24
	BYTE		N17     Fn4   v104
	BYTE	W18
	BYTE		N30     En4   v112
	BYTE	W30
// 052   ----------------------------------------
	BYTE	W48
	BYTE		N17   
	BYTE	W18
	BYTE		        Fs4   v096
	BYTE	W18
	BYTE		N05     Gn4   v100
	BYTE	W06
	BYTE		        An4   v096
	BYTE	W06
// 053   ----------------------------------------
	BYTE		N04     Bn4   v104
	BYTE	W12
	BYTE		        An4   v096
	BYTE	W12
	BYTE		        Gn4   v112
	BYTE	W24
	BYTE		N17   
	BYTE	W18
	BYTE		N30     Fs4 
	BYTE	W30
// 054   ----------------------------------------
	BYTE	W48
	BYTE		N17     En4   v104
	BYTE	W18
	BYTE		        Fs4   v096
	BYTE	W18
	BYTE		N05     Gn4   v092
	BYTE	W06
	BYTE		        An4   v096
	BYTE	W06
// 055   ----------------------------------------
	BYTE		N04     Bn4   v104
	BYTE	W12
	BYTE		        An4   v096
	BYTE	W12
	BYTE		        Gn4   v108
	BYTE	W24
	BYTE		N17     Gn4   v112
	BYTE	W18
	BYTE		N28     Fs4   v104
	BYTE	W30
// 056   ----------------------------------------
	BYTE		TIE     En4   v100
	BYTE	W96
// 057   ----------------------------------------
	BYTE	W96
// 058   ----------------------------------------
	BYTE	W96
// 059   ----------------------------------------
	BYTE	W92
	BYTE	W02
	BYTE		EOT   
	BYTE	W02
// 060   ----------------------------------------
	BYTE		N05     Bn3   v112
	BYTE		N05     En4   v108
	BYTE	W18
	BYTE		        Bn3 
	BYTE		N05     En4 
	BYTE	W18
	BYTE		        Cs4   v092
	BYTE		N05     En4   v108
	BYTE	W60
// 061   ----------------------------------------
	BYTE	PATT
	 POIN2	lyingcoldly_8_001
// 062   ----------------------------------------
	BYTE	PATT
	 POIN2	lyingcoldly_8_002
// 063   ----------------------------------------
	BYTE	PATT
	 POIN2	lyingcoldly_8_003
	BYTE	GoTo
	 POIN2	lyingcoldly_8_B1
lyingcoldly_8_B2:
// 064   ----------------------------------------
	BYTE	FINE

//**************** Track 9 (Midi-Chn.11) ****************//

lyingcoldly_9:
	BYTE	KEYSH   lyingcoldly_key+0
// 000   ----------------------------------------
	BYTE		VOICE   41
	BYTE		VOL     76*lyingcoldly_mvl/mxv
	BYTE		PAN     c_v-30
	BYTE		BEND    c_v+0
	BYTE		N05     En3   v100
	BYTE		N05     Gn3   v112
	BYTE	W18
	BYTE		        En3   v096
	BYTE		N05     Gn3   v116
	BYTE	W18
	BYTE		        En3   v100
	BYTE		N05     An3   v104
	BYTE	W60
// 001   ----------------------------------------
lyingcoldly_9_001:
	BYTE		N05     En3   v104
	BYTE		N05     Bn3 
	BYTE	W18
	BYTE		        En3 
	BYTE		N05     Bn3 
	BYTE	W18
	BYTE		        En3   v100
	BYTE		N05     An3   v108
	BYTE	W60
	BYTE	PEND
// 002   ----------------------------------------
lyingcoldly_9_002:
	BYTE		N05     En3   v096
	BYTE		N05     Gn3   v108
	BYTE	W18
	BYTE		        En3   v092
	BYTE		N05     Gn3   v116
	BYTE	W18
	BYTE		        En3   v104
	BYTE		N05     An3   v108
	BYTE	W60
	BYTE	PEND
// 003   ----------------------------------------
lyingcoldly_9_003:
	BYTE		N05     Bn3   v104
	BYTE	W18
	BYTE		        Bn3   v108
	BYTE	W18
	BYTE		        An3   v112
	BYTE	W60
	BYTE	PEND
lyingcoldly_9_B1:
// 004   ----------------------------------------
	BYTE		N14     Bn2   v116
	BYTE	W96
// 005   ----------------------------------------
	BYTE	W96
// 006   ----------------------------------------
	BYTE	W96
// 007   ----------------------------------------
	BYTE	W96
// 008   ----------------------------------------
	BYTE		N32     En3   v096
	BYTE	W36
	BYTE		N11     En3   v068
	BYTE	W12
	BYTE		N17     Bn3   v088
	BYTE	W18
	BYTE		N16     En4   v096
	BYTE	W18
	BYTE		N20     Gn4   v112
	BYTE	W12
// 009   ----------------------------------------
	BYTE	W12
	BYTE		N23     Fs4   v084
	BYTE	W24
	BYTE		N32     En4   v096
	BYTE	W60
// 010   ----------------------------------------
	BYTE		N16     Gn4   v108
	BYTE	W18
	BYTE		N10     Gn4   v064
	BYTE	W18
	BYTE		N17     Fs4   v100
	BYTE	W18
	BYTE		N14     En4   v092
	BYTE	W18
	BYTE		N13     Dn4 
	BYTE	W24
// 011   ----------------------------------------
	BYTE	W96
// 012   ----------------------------------------
	BYTE		N80     Bn2   v056
	BYTE	W84
	BYTE		TIE     En4   v064
	BYTE	W12
// 013   ----------------------------------------
	BYTE	W84
	BYTE	W01
	BYTE		EOT   
	BYTE	W11
// 014   ----------------------------------------
	BYTE		N32     Dn4   v068
	BYTE	W36
	BYTE		N56     An3   v060
	BYTE	W60
// 015   ----------------------------------------
	BYTE		N32     Fs3   v056
	BYTE	W36
	BYTE		N56     Fs3   v064
	BYTE	W60
// 016   ----------------------------------------
	BYTE	W36
	BYTE		N84     Gn3   v096
	BYTE	W60
// 017   ----------------------------------------
	BYTE	W36
	BYTE		N28   
	BYTE	W36
	BYTE		N23     Gn3   v100
	BYTE	W24
// 018   ----------------------------------------
	BYTE		TIE     Fs3   v076
	BYTE	W96
// 019   ----------------------------------------
	BYTE	W92
	BYTE	W01
	BYTE		EOT   
	BYTE	W03
// 020   ----------------------------------------
	BYTE	W48
	BYTE		N17     Bn3   v108
	BYTE	W18
	BYTE		        An3   v092
	BYTE	W18
	BYTE		N42     Gn3   v100
	BYTE	W12
// 021   ----------------------------------------
	BYTE	W36
	BYTE		N11     Bn3   v108
	BYTE	W12
	BYTE		        An3   v100
	BYTE	W12
	BYTE		N32     Gn3   v096
	BYTE	W36
// 022   ----------------------------------------
	BYTE		N17     Fs3 
	BYTE	W18
	BYTE		N17   
	BYTE	W18
	BYTE		N48     Dn3   v108
	BYTE	W60
// 023   ----------------------------------------
	BYTE		N17     Fs3   v100
	BYTE	W18
	BYTE		        Fs3   v088
	BYTE	W18
	BYTE		N56     En3   v104
	BYTE	W60
// 024   ----------------------------------------
	BYTE	W96
// 025   ----------------------------------------
	BYTE	W96
// 026   ----------------------------------------
	BYTE	W48
	BYTE		N44     En4   v112
	BYTE	W48
// 027   ----------------------------------------
	BYTE		N12     Ds4   v096
	BYTE	W96
// 028   ----------------------------------------
	BYTE	W48
	BYTE		N17     Gn3   v100
	BYTE	W18
	BYTE		        Bn3   v096
	BYTE	W18
	BYTE		N05     En4   v104
	BYTE	W06
	BYTE		        Fs4   v084
	BYTE	W06
// 029   ----------------------------------------
	BYTE		N04     Gn4   v104
	BYTE	W12
	BYTE		        Fs4   v092
	BYTE	W12
	BYTE		        En4   v112
	BYTE	W24
	BYTE		N17   
	BYTE	W18
	BYTE		N30     Dn4 
	BYTE	W30
// 030   ----------------------------------------
	BYTE	W48
	BYTE		N17     Gn3   v104
	BYTE	W18
	BYTE		        Bn3   v096
	BYTE	W18
	BYTE		N05     En4   v100
	BYTE	W06
	BYTE		        Fs4 
	BYTE	W06
// 031   ----------------------------------------
	BYTE		N04     Gn4   v104
	BYTE	W12
	BYTE		        Fs4   v096
	BYTE	W12
	BYTE		        En4   v108
	BYTE	W24
	BYTE		N17     En4   v120
	BYTE	W18
	BYTE		N30     Dn4   v104
	BYTE	W30
// 032   ----------------------------------------
lyingcoldly_9_032:
	BYTE	W48
	BYTE		N17     Gn3   v108
	BYTE	W18
	BYTE		        Bn3   v100
	BYTE	W18
	BYTE		N05     En4   v104
	BYTE	W06
	BYTE		        Fs4   v100
	BYTE	W06
	BYTE	PEND
// 033   ----------------------------------------
lyingcoldly_9_033:
	BYTE		N04     Gn4   v100
	BYTE	W12
	BYTE		        Fs4   v104
	BYTE	W12
	BYTE		        En4   v112
	BYTE	W24
	BYTE		N17     En4   v116
	BYTE	W18
	BYTE		N30     Dn4   v104
	BYTE	W30
	BYTE	PEND
// 034   ----------------------------------------
lyingcoldly_9_034:
	BYTE	W48
	BYTE		N17     Gn3   v112
	BYTE	W18
	BYTE		        Bn3   v100
	BYTE	W18
	BYTE		N05     En4   v108
	BYTE	W06
	BYTE		        Fs4   v096
	BYTE	W06
	BYTE	PEND
// 035   ----------------------------------------
	BYTE		N04     Gn4   v092
	BYTE	W12
	BYTE		        Fs4   v096
	BYTE	W12
	BYTE		        En4   v116
	BYTE	W24
	BYTE		N17     En4   v124
	BYTE	W18
	BYTE		N30     Dn4   v112
	BYTE	W30
// 036   ----------------------------------------
lyingcoldly_9_036:
	BYTE		N05     Gn3   v096
	BYTE		N05     Bn3 
	BYTE	W18
	BYTE		        Gn3   v112
	BYTE		N05     Bn3   v108
	BYTE	W18
	BYTE		        An3   v104
	BYTE		N05     Cn4   v112
	BYTE	W60
	BYTE	PEND
// 037   ----------------------------------------
lyingcoldly_9_037:
	BYTE		N05     Bn3   v104
	BYTE		N05     Dn4 
	BYTE	W18
	BYTE		        Bn3   v112
	BYTE		N05     Dn4   v116
	BYTE	W18
	BYTE		        An3   v108
	BYTE		N05     Cn4   v112
	BYTE	W60
	BYTE	PEND
// 038   ----------------------------------------
lyingcoldly_9_038:
	BYTE		N05     Gn3   v096
	BYTE		N05     Bn3   v092
	BYTE	W18
	BYTE		        Gn3   v108
	BYTE		N05     Bn3   v100
	BYTE	W18
	BYTE		        An3   v104
	BYTE		N05     Cn4   v116
	BYTE	W60
	BYTE	PEND
// 039   ----------------------------------------
lyingcoldly_9_039:
	BYTE		N05     Bn3   v096
	BYTE		N05     Dn4   v100
	BYTE	W18
	BYTE		        Bn3   v104
	BYTE		N05     Dn4   v112
	BYTE	W18
	BYTE		        An3 
	BYTE		N05     Cn4 
	BYTE	W60
	BYTE	PEND
// 040   ----------------------------------------
	BYTE		N14     Gn3 
	BYTE		N14     Bn3   v108
	BYTE		N14     Dn4   v116
	BYTE	W18
	BYTE		        Gn3   v108
	BYTE		N14     Bn3   v112
	BYTE		N14     Dn4 
	BYTE	W18
	BYTE		N13     Gn3 
	BYTE		N12     Cs4   v104
	BYTE		N13     En4   v124
	BYTE	W60
// 041   ----------------------------------------
	BYTE		N56     An3   v112
	BYTE	W60
	BYTE		N11     En3   v096
	BYTE	W12
	BYTE		        Fn3   v104
	BYTE	W12
	BYTE		N72     Dn3   v100
	BYTE	W12
// 042   ----------------------------------------
	BYTE	W72
	BYTE		N05     Dn3   v096
	BYTE	W06
	BYTE		        En3   v092
	BYTE	W06
	BYTE		        Fn3   v076
	BYTE	W06
	BYTE		        Gn3   v092
	BYTE	W06
// 043   ----------------------------------------
	BYTE		N14     An3   v100
	BYTE	W18
	BYTE		N08     An3   v072
	BYTE	W18
	BYTE		N24     Gn3   v112
	BYTE	W24
	BYTE		N11     Fn3   v096
	BYTE	W12
	BYTE		        En3   v084
	BYTE	W12
	BYTE		N60     Fn3   v104
	BYTE	W12
// 044   ----------------------------------------
	BYTE	W60
	BYTE		N23     Gn2   v112
	BYTE	W24
	BYTE		N11     Gs2   v092
	BYTE	W12
// 045   ----------------------------------------
	BYTE		N32     Dn3   v096
	BYTE	W36
	BYTE		N11     Dn3   v068
	BYTE	W12
	BYTE		N17     An3   v088
	BYTE	W18
	BYTE		N16     Dn4   v096
	BYTE	W18
	BYTE		N20     Fn4   v112
	BYTE	W12
// 046   ----------------------------------------
	BYTE	W12
	BYTE		N24     En4   v084
	BYTE	W24
	BYTE		N32     Dn4   v096
	BYTE	W60
// 047   ----------------------------------------
	BYTE		N16     Fn4   v108
	BYTE	W18
	BYTE		N10     Fn4   v064
	BYTE	W18
	BYTE		N17     En4   v100
	BYTE	W18
	BYTE		N14     Dn4   v092
	BYTE	W18
	BYTE		N24     Cn4 
	BYTE	W24
// 048   ----------------------------------------
	BYTE	W48
	BYTE		N17     Fn3   v100
	BYTE	W18
	BYTE		        An3   v096
	BYTE	W18
	BYTE		N05     Dn4   v104
	BYTE	W06
	BYTE		        En4   v084
	BYTE	W06
// 049   ----------------------------------------
	BYTE		N04     Fn4   v104
	BYTE	W12
	BYTE		        En4   v092
	BYTE	W12
	BYTE		        Dn4   v112
	BYTE	W24
	BYTE		N17   
	BYTE	W18
	BYTE		N28     Cn4 
	BYTE	W30
// 050   ----------------------------------------
	BYTE	W48
	BYTE		N17     Fn3   v104
	BYTE	W18
	BYTE		        An3   v096
	BYTE	W18
	BYTE		N05     Dn4   v100
	BYTE	W06
	BYTE		        En4 
	BYTE	W06
// 051   ----------------------------------------
	BYTE		N04     Fn4   v104
	BYTE	W12
	BYTE		        En4   v096
	BYTE	W12
	BYTE		        Dn4   v108
	BYTE	W24
	BYTE		N17     Dn4   v120
	BYTE	W18
	BYTE		N30     Cn4   v104
	BYTE	W30
// 052   ----------------------------------------
	BYTE	PATT
	 POIN2	lyingcoldly_9_032
// 053   ----------------------------------------
	BYTE	PATT
	 POIN2	lyingcoldly_9_033
// 054   ----------------------------------------
	BYTE	PATT
	 POIN2	lyingcoldly_9_034
// 055   ----------------------------------------
	BYTE		N04     Gn4   v092
	BYTE	W12
	BYTE		        Fs4   v096
	BYTE	W12
	BYTE		        En4   v116
	BYTE	W24
	BYTE		N17     En4   v124
	BYTE	W18
	BYTE		N28     Dn4   v112
	BYTE	W30
// 056   ----------------------------------------
	BYTE	PATT
	 POIN2	lyingcoldly_9_036
// 057   ----------------------------------------
	BYTE	PATT
	 POIN2	lyingcoldly_9_037
// 058   ----------------------------------------
	BYTE	PATT
	 POIN2	lyingcoldly_9_038
// 059   ----------------------------------------
	BYTE	PATT
	 POIN2	lyingcoldly_9_039
// 060   ----------------------------------------
	BYTE		N05     En3   v100
	BYTE		N05     Gn3   v112
	BYTE	W18
	BYTE		        En3   v096
	BYTE		N05     Gn3   v116
	BYTE	W18
	BYTE		        En3   v100
	BYTE		N05     An3   v104
	BYTE	W60
// 061   ----------------------------------------
	BYTE	PATT
	 POIN2	lyingcoldly_9_001
// 062   ----------------------------------------
	BYTE	PATT
	 POIN2	lyingcoldly_9_002
// 063   ----------------------------------------
	BYTE	PATT
	 POIN2	lyingcoldly_9_003
	BYTE	GoTo
	 POIN2	lyingcoldly_9_B1
lyingcoldly_9_B2:
// 064   ----------------------------------------
	BYTE	FINE

//**************** Track 10 (Midi-Chn.12) ****************//

lyingcoldly_10:
	BYTE	KEYSH   lyingcoldly_key+0
// 000   ----------------------------------------
	BYTE		VOICE   41
	BYTE		VOL     76*lyingcoldly_mvl/mxv
	BYTE		PAN     c_v+30
	BYTE		BEND    c_v+0
	BYTE		N05     Gn2   v092
	BYTE		N05     Bn2   v100
	BYTE	W18
	BYTE		        Gn2   v080
	BYTE		N05     Bn2   v096
	BYTE	W18
	BYTE		        An2 
	BYTE		N05     Cs3   v088
	BYTE	W60
// 001   ----------------------------------------
lyingcoldly_10_001:
	BYTE		N05     Bn2   v108
	BYTE		N05     Dn3   v096
	BYTE	W18
	BYTE		        Bn2   v092
	BYTE		N05     Dn3 
	BYTE	W18
	BYTE		        An2   v104
	BYTE		N05     Cs3   v096
	BYTE	W60
	BYTE	PEND
// 002   ----------------------------------------
lyingcoldly_10_002:
	BYTE		N05     Gn2   v096
	BYTE		N05     Bn2   v108
	BYTE	W18
	BYTE		        Gn2   v096
	BYTE		N05     Bn2   v108
	BYTE	W18
	BYTE		        An2   v096
	BYTE		N05     Cs3 
	BYTE	W60
	BYTE	PEND
// 003   ----------------------------------------
lyingcoldly_10_003:
	BYTE		N05     Bn2   v108
	BYTE		N05     Dn3   v096
	BYTE	W18
	BYTE		        Bn2   v104
	BYTE		N05     Dn3 
	BYTE	W18
	BYTE		        An2 
	BYTE		N05     Cs3   v092
	BYTE	W60
	BYTE	PEND
lyingcoldly_10_B1:
// 004   ----------------------------------------
	BYTE		N15     En2   v112
	BYTE	W96
// 005   ----------------------------------------
	BYTE	W96
// 006   ----------------------------------------
	BYTE	W96
// 007   ----------------------------------------
	BYTE	W96
// 008   ----------------------------------------
	BYTE		N24     Bn2   v096
	BYTE	W36
	BYTE		N11     Bn2   v108
	BYTE	W12
	BYTE		N15     En3   v104
	BYTE	W18
	BYTE		N17     Fs3 
	BYTE	W18
	BYTE		N22     Bn3   v116
	BYTE	W12
// 009   ----------------------------------------
	BYTE	W12
	BYTE		N23     An3   v108
	BYTE	W24
	BYTE		N24     Gn3   v112
	BYTE	W36
	BYTE		N05     En3   v104
	BYTE	W06
	BYTE		        Fs3   v100
	BYTE	W06
	BYTE		        Gn3   v092
	BYTE	W06
	BYTE		        An3   v096
	BYTE	W06
// 010   ----------------------------------------
	BYTE		N13     Bn3   v116
	BYTE	W18
	BYTE		N06   
	BYTE	W18
	BYTE		N23     An3   v112
	BYTE	W24
	BYTE		N11     Gn3   v100
	BYTE	W12
	BYTE		        Fs3   v112
	BYTE	W12
	BYTE		TIE     En3   v108
	BYTE	W12
// 011   ----------------------------------------
	BYTE	W92
	BYTE	W03
	BYTE		EOT   
	BYTE	W01
// 012   ----------------------------------------
	BYTE		N80     Gn2   v036
	BYTE	W84
	BYTE		TIE     Bn3 
	BYTE	W12
// 013   ----------------------------------------
	BYTE	W84
	BYTE	W03
	BYTE		EOT   
	BYTE	W09
// 014   ----------------------------------------
	BYTE		N36     An3   v032
	BYTE	W36
	BYTE		N56     Fs3   v060
	BYTE	W60
// 015   ----------------------------------------
	BYTE		N32     Dn3   v040
	BYTE	W36
	BYTE		N54     Dn3   v052
	BYTE	W60
// 016   ----------------------------------------
	BYTE	W36
	BYTE		N84     En3   v088
	BYTE	W60
// 017   ----------------------------------------
	BYTE	W36
	BYTE		N28     En3   v084
	BYTE	W36
	BYTE		N23     En3   v092
	BYTE	W24
// 018   ----------------------------------------
	BYTE		TIE     Dn3 
	BYTE	W96
// 019   ----------------------------------------
	BYTE	W92
	BYTE	W01
	BYTE		EOT   
	BYTE	W03
// 020   ----------------------------------------
	BYTE	W48
	BYTE		N17     Gn3   v112
	BYTE	W18
	BYTE		        Fs3   v084
	BYTE	W18
	BYTE		N32     En3   v096
	BYTE	W12
// 021   ----------------------------------------
	BYTE	W36
	BYTE		N11     Gn3   v112
	BYTE	W12
	BYTE		N16     Fs3   v088
	BYTE	W18
	BYTE		N30     En3   v104
	BYTE	W30
// 022   ----------------------------------------
	BYTE		N17     Dn3   v100
	BYTE	W18
	BYTE		        Dn3   v108
	BYTE	W18
	BYTE		N48     Bn2   v100
	BYTE	W60
// 023   ----------------------------------------
	BYTE		N17     Dn3   v104
	BYTE	W18
	BYTE		        Dn3   v116
	BYTE	W18
	BYTE		N56     Bn2   v104
	BYTE	W60
// 024   ----------------------------------------
	BYTE	W96
// 025   ----------------------------------------
	BYTE	W96
// 026   ----------------------------------------
	BYTE	W24
	BYTE		N68     Gn3   v116
	BYTE	W72
// 027   ----------------------------------------
	BYTE		N12     Fs3   v108
	BYTE	W96
// 028   ----------------------------------------
	BYTE	W48
	BYTE		N17     En3   v104
	BYTE	W18
	BYTE		        Fs3   v092
	BYTE	W18
	BYTE		N05     Gn3   v100
	BYTE	W06
	BYTE		        An3   v104
	BYTE	W06
// 029   ----------------------------------------
	BYTE		N04     Bn3 
	BYTE	W12
	BYTE		        An3 
	BYTE	W12
	BYTE		        Gn3   v116
	BYTE	W24
	BYTE		N17     Gn3   v108
	BYTE	W18
	BYTE		N30     Fs3   v088
	BYTE	W30
// 030   ----------------------------------------
	BYTE	W48
	BYTE		N17     En3   v104
	BYTE	W18
	BYTE		        Fs3   v092
	BYTE	W18
	BYTE		N05     Gn3   v100
	BYTE	W06
	BYTE		        An3 
	BYTE	W06
// 031   ----------------------------------------
	BYTE		N04     Bn3   v104
	BYTE	W12
	BYTE		        An3   v088
	BYTE	W12
	BYTE		        Gn3   v116
	BYTE	W24
	BYTE		N17     Gn3   v112
	BYTE	W18
	BYTE		N30     Fs3   v096
	BYTE	W30
// 032   ----------------------------------------
lyingcoldly_10_032:
	BYTE	W48
	BYTE		N17     En3   v104
	BYTE	W18
	BYTE		        Fs3   v092
	BYTE	W18
	BYTE		N05     Gn3   v100
	BYTE	W06
	BYTE		        An3   v092
	BYTE	W06
	BYTE	PEND
// 033   ----------------------------------------
lyingcoldly_10_033:
	BYTE		N04     Bn3   v108
	BYTE	W12
	BYTE		        An3   v092
	BYTE	W12
	BYTE		        Gn3   v116
	BYTE	W24
	BYTE		N17   
	BYTE	W18
	BYTE		N30     Fs3   v092
	BYTE	W30
	BYTE	PEND
// 034   ----------------------------------------
lyingcoldly_10_034:
	BYTE	W48
	BYTE		N17     En3   v108
	BYTE	W18
	BYTE		        Fs3   v096
	BYTE	W18
	BYTE		N05     Gn3 
	BYTE	W06
	BYTE		        An3   v104
	BYTE	W06
	BYTE	PEND
// 035   ----------------------------------------
lyingcoldly_10_035:
	BYTE		N04     Bn3   v108
	BYTE	W12
	BYTE		        An3   v096
	BYTE	W12
	BYTE		        Gn3   v116
	BYTE	W24
	BYTE		N17     Gn3   v104
	BYTE	W18
	BYTE		N30     Fs3   v096
	BYTE	W30
	BYTE	PEND
// 036   ----------------------------------------
lyingcoldly_10_036:
	BYTE		N05     Bn2   v116
	BYTE		N05     Fn3   v088
	BYTE	W18
	BYTE		        Bn2   v112
	BYTE		N05     Fn3 
	BYTE	W18
	BYTE		        Cn3   v108
	BYTE		N05     Fn3 
	BYTE	W60
	BYTE	PEND
// 037   ----------------------------------------
lyingcoldly_10_037:
	BYTE		N05     Dn3   v112
	BYTE		N05     Fn3   v104
	BYTE	W18
	BYTE		        Dn3   v112
	BYTE		N05     Fn3   v108
	BYTE	W18
	BYTE		        Cn3 
	BYTE		N05     Fn3 
	BYTE	W60
	BYTE	PEND
// 038   ----------------------------------------
lyingcoldly_10_038:
	BYTE		N05     Bn2   v108
	BYTE		N05     Fn3   v088
	BYTE	W18
	BYTE		        Bn2   v112
	BYTE		N05     Fn3   v104
	BYTE	W18
	BYTE		        Cn3 
	BYTE		N05     Fn3   v108
	BYTE	W60
	BYTE	PEND
// 039   ----------------------------------------
lyingcoldly_10_039:
	BYTE		N05     Dn3   v108
	BYTE		N05     Fn3   v096
	BYTE	W18
	BYTE		        Dn3   v108
	BYTE		N05     Fn3 
	BYTE	W18
	BYTE		        Cn3 
	BYTE		N05     Fn3   v112
	BYTE	W60
	BYTE	PEND
// 040   ----------------------------------------
	BYTE		N14     An2   v108
	BYTE	W18
	BYTE		N14   
	BYTE	W18
	BYTE		N12     An2   v112
	BYTE	W60
// 041   ----------------------------------------
	BYTE		N14     An2   v116
	BYTE		N14     Dn3   v112
	BYTE	W96
// 042   ----------------------------------------
	BYTE	W96
// 043   ----------------------------------------
	BYTE	W96
// 044   ----------------------------------------
	BYTE	W96
// 045   ----------------------------------------
	BYTE		N24     An2   v096
	BYTE	W36
	BYTE		N11     An2   v108
	BYTE	W12
	BYTE		N15     Dn3   v104
	BYTE	W18
	BYTE		N17     En3 
	BYTE	W18
	BYTE		N22     An3   v116
	BYTE	W12
// 046   ----------------------------------------
	BYTE	W12
	BYTE		N23     Gn3   v108
	BYTE	W24
	BYTE		N24     Fn3   v112
	BYTE	W36
	BYTE		N05     Dn3   v104
	BYTE	W06
	BYTE		        En3   v100
	BYTE	W06
	BYTE		        Fn3   v092
	BYTE	W06
	BYTE		        Gn3   v096
	BYTE	W06
// 047   ----------------------------------------
	BYTE		N13     An3   v116
	BYTE	W18
	BYTE		N06   
	BYTE	W18
	BYTE		N23     Gn3   v112
	BYTE	W24
	BYTE		N11     Fn3   v100
	BYTE	W12
	BYTE		N23     En3   v112
	BYTE	W24
// 048   ----------------------------------------
	BYTE		N11     Dn3   v108
	BYTE	W48
	BYTE		N17     Dn3   v104
	BYTE	W18
	BYTE		        En3   v092
	BYTE	W18
	BYTE		N05     Fn3   v100
	BYTE	W06
	BYTE		        Gn3   v104
	BYTE	W06
// 049   ----------------------------------------
	BYTE		N04     An3 
	BYTE	W12
	BYTE		        Gn3 
	BYTE	W12
	BYTE		        Fn3   v116
	BYTE	W24
	BYTE		N17     Fn3   v108
	BYTE	W18
	BYTE		N24     En3   v088
	BYTE	W30
// 050   ----------------------------------------
	BYTE	W48
	BYTE		N17     Dn3   v104
	BYTE	W18
	BYTE		        En3   v092
	BYTE	W18
	BYTE		N05     Fn3   v100
	BYTE	W06
	BYTE		        Gn3 
	BYTE	W06
// 051   ----------------------------------------
	BYTE		N04     An3   v104
	BYTE	W12
	BYTE		        Gn3   v088
	BYTE	W12
	BYTE		        Fn3   v116
	BYTE	W24
	BYTE		N17     Fn3   v112
	BYTE	W18
	BYTE		N30     En3   v096
	BYTE	W30
// 052   ----------------------------------------
	BYTE	PATT
	 POIN2	lyingcoldly_10_032
// 053   ----------------------------------------
	BYTE	PATT
	 POIN2	lyingcoldly_10_033
// 054   ----------------------------------------
	BYTE	PATT
	 POIN2	lyingcoldly_10_034
// 055   ----------------------------------------
	BYTE	PATT
	 POIN2	lyingcoldly_10_035
// 056   ----------------------------------------
	BYTE	PATT
	 POIN2	lyingcoldly_10_036
// 057   ----------------------------------------
	BYTE	PATT
	 POIN2	lyingcoldly_10_037
// 058   ----------------------------------------
	BYTE	PATT
	 POIN2	lyingcoldly_10_038
// 059   ----------------------------------------
	BYTE	PATT
	 POIN2	lyingcoldly_10_039
// 060   ----------------------------------------
	BYTE		N05     Gn2   v092
	BYTE		N05     Bn2   v100
	BYTE	W18
	BYTE		        Gn2   v080
	BYTE		N05     Bn2   v096
	BYTE	W18
	BYTE		        An2 
	BYTE		N05     Cs3   v088
	BYTE	W60
// 061   ----------------------------------------
	BYTE	PATT
	 POIN2	lyingcoldly_10_001
// 062   ----------------------------------------
	BYTE	PATT
	 POIN2	lyingcoldly_10_002
// 063   ----------------------------------------
	BYTE	PATT
	 POIN2	lyingcoldly_10_003
	BYTE	GoTo
	 POIN2	lyingcoldly_10_B1
lyingcoldly_10_B2:
// 064   ----------------------------------------
	BYTE	FINE

//**************** Track 11 (Midi-Chn.13) ****************//

lyingcoldly_11:
	BYTE	KEYSH   lyingcoldly_key+0
// 000   ----------------------------------------
	BYTE		VOICE   42
	BYTE		VOL     76*lyingcoldly_mvl/mxv
	BYTE		PAN     c_v+53
	BYTE		BEND    c_v+0
	BYTE		N05     En2   v100
	BYTE	W18
	BYTE		        En2   v104
	BYTE	W18
	BYTE		        En2   v108
	BYTE	W60
// 001   ----------------------------------------
lyingcoldly_11_001:
	BYTE		N05     En2   v112
	BYTE	W18
	BYTE		N05   
	BYTE	W18
	BYTE		        En2   v116
	BYTE	W60
	BYTE	PEND
// 002   ----------------------------------------
lyingcoldly_11_002:
	BYTE		N05     En1   v104
	BYTE	W18
	BYTE		        En1   v112
	BYTE	W18
	BYTE		        En1   v116
	BYTE	W60
	BYTE	PEND
// 003   ----------------------------------------
lyingcoldly_11_003:
	BYTE		N05     En1   v112
	BYTE	W18
	BYTE		        En1   v108
	BYTE	W18
	BYTE		        En1   v112
	BYTE	W60
	BYTE	PEND
lyingcoldly_11_B1:
// 004   ----------------------------------------
	BYTE		N15     En1   v116
	BYTE	W96
// 005   ----------------------------------------
	BYTE	W96
// 006   ----------------------------------------
	BYTE	W96
// 007   ----------------------------------------
	BYTE	W96
// 008   ----------------------------------------
	BYTE	W96
// 009   ----------------------------------------
	BYTE	W96
// 010   ----------------------------------------
	BYTE	W96
// 011   ----------------------------------------
	BYTE	W12
	BYTE		N11     Bn1   v084
	BYTE	W12
	BYTE		        En2   v096
	BYTE	W12
	BYTE		        Fs2   v092
	BYTE	W12
	BYTE		        Gn2   v076
	BYTE	W12
	BYTE		        Fs2   v092
	BYTE	W12
	BYTE		        Gn2   v088
	BYTE	W12
	BYTE		        An2   v100
	BYTE	W12
// 012   ----------------------------------------
	BYTE		N23     Bn2   v112
	BYTE	W24
	BYTE		        Gn3   v104
	BYTE	W24
	BYTE		N17     Fs3   v092
	BYTE	W18
	BYTE		        En3   v100
	BYTE	W18
	BYTE		N44     Bn2   v108
	BYTE	W12
// 013   ----------------------------------------
	BYTE	W36
	BYTE		N32     An2   v112
	BYTE	W36
	BYTE		N23     Bn2   v104
	BYTE	W24
// 014   ----------------------------------------
	BYTE		N32     Dn3 
	BYTE	W36
	BYTE		N56     An2   v108
	BYTE	W60
// 015   ----------------------------------------
	BYTE		N32     Gn2 
	BYTE	W36
	BYTE		N56     Fs2   v096
	BYTE	W60
// 016   ----------------------------------------
	BYTE		N32     En2   v100
	BYTE	W36
	BYTE		N92     Bn2   v104
	BYTE	W60
// 017   ----------------------------------------
	BYTE	W36
	BYTE		N32     Gn2   v108
	BYTE	W36
	BYTE		N23     An2   v096
	BYTE	W24
// 018   ----------------------------------------
	BYTE		TIE     Bn2   v104
	BYTE	W96
// 019   ----------------------------------------
	BYTE	W92
	BYTE	W03
	BYTE		EOT   
	BYTE	W01
// 020   ----------------------------------------
	BYTE	W96
// 021   ----------------------------------------
	BYTE	W96
// 022   ----------------------------------------
	BYTE		N16     Bn1   v108
	BYTE	W18
	BYTE		        Bn1   v112
	BYTE	W18
	BYTE		N54     Bn1   v116
	BYTE	W60
// 023   ----------------------------------------
	BYTE		N16     En2   v108
	BYTE	W18
	BYTE		        En2   v112
	BYTE	W18
	BYTE		N54     En2   v108
	BYTE	W60
// 024   ----------------------------------------
	BYTE	W96
// 025   ----------------------------------------
	BYTE	W96
// 026   ----------------------------------------
	BYTE		N92     Fs1 
	BYTE	W96
// 027   ----------------------------------------
	BYTE		N12     Bn1 
	BYTE	W96
// 028   ----------------------------------------
	BYTE	W96
// 029   ----------------------------------------
lyingcoldly_11_029:
	BYTE	W48
	BYTE		N17     Cn2   v116
	BYTE	W18
	BYTE		N30     Dn2   v108
	BYTE	W30
	BYTE	PEND
// 030   ----------------------------------------
	BYTE	W96
// 031   ----------------------------------------
	BYTE	W48
	BYTE		N17     Cn2   v116
	BYTE	W18
	BYTE		N30     Dn2 
	BYTE	W30
// 032   ----------------------------------------
	BYTE	W96
// 033   ----------------------------------------
	BYTE	PATT
	 POIN2	lyingcoldly_11_029
// 034   ----------------------------------------
	BYTE	W96
// 035   ----------------------------------------
	BYTE	W48
	BYTE		N17     Cn2   v120
	BYTE	W18
	BYTE		N28     Dn2   v108
	BYTE	W30
// 036   ----------------------------------------
lyingcoldly_11_036:
	BYTE		N05     Fn1   v112
	BYTE	W18
	BYTE		        Fn1   v092
	BYTE	W18
	BYTE		        Fn1   v112
	BYTE	W60
	BYTE	PEND
// 037   ----------------------------------------
lyingcoldly_11_037:
	BYTE		N05     Fn1   v116
	BYTE	W18
	BYTE		N05   
	BYTE	W18
	BYTE		        Fn1   v120
	BYTE	W60
	BYTE	PEND
// 038   ----------------------------------------
lyingcoldly_11_038:
	BYTE		N05     Fn1   v108
	BYTE	W18
	BYTE		        Fn1   v120
	BYTE	W18
	BYTE		N05   
	BYTE	W60
	BYTE	PEND
// 039   ----------------------------------------
lyingcoldly_11_039:
	BYTE		N05     Fn1   v104
	BYTE	W18
	BYTE		        Fn1   v116
	BYTE	W18
	BYTE		        Fn1   v120
	BYTE	W60
	BYTE	PEND
// 040   ----------------------------------------
	BYTE		N14     An1   v116
	BYTE	W18
	BYTE		        An1   v108
	BYTE	W18
	BYTE		N13   
	BYTE	W60
// 041   ----------------------------------------
	BYTE		N15     Dn1   v116
	BYTE		N15     Dn2   v112
	BYTE	W96
// 042   ----------------------------------------
	BYTE	W96
// 043   ----------------------------------------
	BYTE	W96
// 044   ----------------------------------------
	BYTE	W96
// 045   ----------------------------------------
	BYTE	W96
// 046   ----------------------------------------
	BYTE	W96
// 047   ----------------------------------------
	BYTE	W96
// 048   ----------------------------------------
	BYTE	W96
// 049   ----------------------------------------
	BYTE	W48
	BYTE		N17     As1   v116
	BYTE	W18
	BYTE		N28     Cn2   v108
	BYTE	W30
// 050   ----------------------------------------
	BYTE	W96
// 051   ----------------------------------------
	BYTE	W48
	BYTE		N17     As1   v116
	BYTE	W18
	BYTE		N30     Cn2 
	BYTE	W30
// 052   ----------------------------------------
	BYTE	W96
// 053   ----------------------------------------
	BYTE	PATT
	 POIN2	lyingcoldly_11_029
// 054   ----------------------------------------
	BYTE	W96
// 055   ----------------------------------------
	BYTE	W48
	BYTE		N17     Cn2   v120
	BYTE	W18
	BYTE		N30     Dn2   v108
	BYTE	W30
// 056   ----------------------------------------
	BYTE	PATT
	 POIN2	lyingcoldly_11_036
// 057   ----------------------------------------
	BYTE	PATT
	 POIN2	lyingcoldly_11_037
// 058   ----------------------------------------
	BYTE	PATT
	 POIN2	lyingcoldly_11_038
// 059   ----------------------------------------
	BYTE	PATT
	 POIN2	lyingcoldly_11_039
// 060   ----------------------------------------
	BYTE		N05     En2   v100
	BYTE	W18
	BYTE		        En2   v104
	BYTE	W18
	BYTE		        En2   v108
	BYTE	W60
// 061   ----------------------------------------
	BYTE	PATT
	 POIN2	lyingcoldly_11_001
// 062   ----------------------------------------
	BYTE	PATT
	 POIN2	lyingcoldly_11_002
// 063   ----------------------------------------
	BYTE	PATT
	 POIN2	lyingcoldly_11_003
	BYTE	GoTo
	 POIN2	lyingcoldly_11_B1
lyingcoldly_11_B2:
// 064   ----------------------------------------
	BYTE	FINE

//******************************************************//
	ALIGN 4

lyingcoldly:
	BYTE	11	// NumTrks
	BYTE	0	// NumBlks
	BYTE	lyingcoldly_pri	// Priority
	BYTE	lyingcoldly_rev	// Reverb.

	POIN2	lyingcoldly_grp

	POIN2	lyingcoldly_1
	POIN2	lyingcoldly_2
	POIN2	lyingcoldly_3
	POIN2	lyingcoldly_4
	POIN2	lyingcoldly_5
	POIN2	lyingcoldly_6
	POIN2	lyingcoldly_7
	POIN2	lyingcoldly_8
	POIN2	lyingcoldly_9
	POIN2	lyingcoldly_10
	POIN2	lyingcoldly_11

	
