//Event file generated from Sappy .s format.
	#include "MPlayDef.event"

	#define	tcox_noecho_grp  MusicVoices
	#define	tcox_noecho_pri  0
	#define	tcox_noecho_rev  0
	#define	tcox_noecho_mvl  75
	#define	tcox_noecho_key  0
	#define	tcox_noecho_tbs  1
	#define	tcox_noecho_exg  0
	#define	tcox_noecho_cmp  1

	// .rodata
	//	tcox_noecho
	ALIGN 4

//**************** Track 1 (Midi-Chn.1) ****************//

tcox_noecho_1:
	BYTE	KEYSH   tcox_noecho_key+0
// 000   ----------------------------------------
	BYTE	TEMPO   143*tcox_noecho_tbs/2
	BYTE		VOICE   36
	BYTE		VOL     78*tcox_noecho_mvl/mxv
	BYTE	W96
// 001   ----------------------------------------
	BYTE	W96
// 002   ----------------------------------------
	BYTE	W96
// 003   ----------------------------------------
	BYTE	W96
// 004   ----------------------------------------
	BYTE		N72     Dn1   v104
	BYTE	W72
	BYTE		N12   
	BYTE	W12
	BYTE		N36   
	BYTE	W12
// 005   ----------------------------------------
	BYTE	W24
	BYTE		N12   
	BYTE	W12
	BYTE		N36   
	BYTE	W36
	BYTE		N12   
	BYTE	W12
	BYTE		TIE   
	BYTE	W12
// 006   ----------------------------------------
	BYTE	W96
	BYTE		EOT   
// 007   ----------------------------------------
	BYTE		N12   
	BYTE	W12
	BYTE		        Cn1 
	BYTE	W12
	BYTE		        Dn1 
	BYTE	W12
	BYTE		N24     Fn1 
	BYTE	W24
	BYTE		N12     Gn1 
	BYTE	W12
	BYTE		        Fn1 
	BYTE	W12
	BYTE		        Dn1 
	BYTE	W12
tcox_noecho_1_B1:
// 008   ----------------------------------------
	BYTE	W96
// 009   ----------------------------------------
	BYTE	W96
// 010   ----------------------------------------
	BYTE	W96
// 011   ----------------------------------------
	BYTE	W96
// 012   ----------------------------------------
	BYTE	W96
// 013   ----------------------------------------
	BYTE	W96
// 014   ----------------------------------------
	BYTE	W96
// 015   ----------------------------------------
	BYTE	W96
// 016   ----------------------------------------
	BYTE	W96
// 017   ----------------------------------------
	BYTE	W96
// 018   ----------------------------------------
	BYTE	W96
// 019   ----------------------------------------
	BYTE	W96
// 020   ----------------------------------------
	BYTE	W96
// 021   ----------------------------------------
	BYTE	W96
// 022   ----------------------------------------
	BYTE	W96
// 023   ----------------------------------------
	BYTE	W96
// 024   ----------------------------------------
	BYTE	W96
// 025   ----------------------------------------
	BYTE	W96
// 026   ----------------------------------------
	BYTE	W96
// 027   ----------------------------------------
	BYTE	W96
// 028   ----------------------------------------
	BYTE	W96
// 029   ----------------------------------------
	BYTE	W96
// 030   ----------------------------------------
	BYTE	W96
// 031   ----------------------------------------
	BYTE	W96
// 032   ----------------------------------------
	BYTE	W96
// 033   ----------------------------------------
	BYTE	W96
// 034   ----------------------------------------
	BYTE	W96
// 035   ----------------------------------------
	BYTE	W96
// 036   ----------------------------------------
	BYTE	W96
// 037   ----------------------------------------
	BYTE	W96
// 038   ----------------------------------------
	BYTE	W96
// 039   ----------------------------------------
	BYTE	W96
// 040   ----------------------------------------
	BYTE	W96
// 041   ----------------------------------------
	BYTE	W96
// 042   ----------------------------------------
	BYTE	W96
// 043   ----------------------------------------
	BYTE	W96
// 044   ----------------------------------------
	BYTE	W96
// 045   ----------------------------------------
	BYTE	W96
// 046   ----------------------------------------
	BYTE	W96
// 047   ----------------------------------------
	BYTE	W96
// 048   ----------------------------------------
	BYTE	W96
// 049   ----------------------------------------
	BYTE	W96
// 050   ----------------------------------------
tcox_noecho_1_050:
	BYTE	W24
	BYTE		N12     Fn2   v104
	BYTE	W12
	BYTE		N36     En2 
	BYTE	W36
	BYTE		N12     Cn2 
	BYTE	W12
	BYTE		        Dn2 
	BYTE	W12
	BYTE	PEND
// 051   ----------------------------------------
	BYTE	W96
// 052   ----------------------------------------
	BYTE	W96
// 053   ----------------------------------------
	BYTE	W96
// 054   ----------------------------------------
	BYTE	W96
// 055   ----------------------------------------
	BYTE	W96
// 056   ----------------------------------------
	BYTE	W96
// 057   ----------------------------------------
	BYTE	W96
// 058   ----------------------------------------
	BYTE	W96
// 059   ----------------------------------------
	BYTE	W96
// 060   ----------------------------------------
	BYTE	W96
// 061   ----------------------------------------
	BYTE	W96
// 062   ----------------------------------------
	BYTE	W96
// 063   ----------------------------------------
	BYTE	W96
// 064   ----------------------------------------
	BYTE	W96
// 065   ----------------------------------------
	BYTE	W96
// 066   ----------------------------------------
	BYTE	W96
// 067   ----------------------------------------
	BYTE	W96
// 068   ----------------------------------------
	BYTE	W96
// 069   ----------------------------------------
	BYTE	W96
// 070   ----------------------------------------
	BYTE	W96
// 071   ----------------------------------------
	BYTE	W96
// 072   ----------------------------------------
	BYTE	W96
// 073   ----------------------------------------
	BYTE	W96
// 074   ----------------------------------------
	BYTE	W96
// 075   ----------------------------------------
	BYTE	W96
// 076   ----------------------------------------
	BYTE	W96
// 077   ----------------------------------------
	BYTE	W96
// 078   ----------------------------------------
	BYTE	W96
// 079   ----------------------------------------
	BYTE	W96
// 080   ----------------------------------------
	BYTE	W96
// 081   ----------------------------------------
	BYTE	W96
// 082   ----------------------------------------
	BYTE	W96
// 083   ----------------------------------------
	BYTE	W96
// 084   ----------------------------------------
	BYTE	W96
// 085   ----------------------------------------
	BYTE	W96
// 086   ----------------------------------------
	BYTE	W96
// 087   ----------------------------------------
	BYTE	W96
// 088   ----------------------------------------
	BYTE	W96
// 089   ----------------------------------------
	BYTE	W96
// 090   ----------------------------------------
	BYTE	W96
// 091   ----------------------------------------
	BYTE	W96
// 092   ----------------------------------------
	BYTE	W96
// 093   ----------------------------------------
	BYTE	W96
// 094   ----------------------------------------
	BYTE	W96
// 095   ----------------------------------------
	BYTE	W96
// 096   ----------------------------------------
	BYTE	W96
// 097   ----------------------------------------
	BYTE	PATT
	 POIN2	tcox_noecho_1_050
// 098   ----------------------------------------
	BYTE	W96
// 099   ----------------------------------------
	BYTE	W96
	BYTE	GoTo
	 POIN2	tcox_noecho_1_B1
tcox_noecho_1_B2:
// 100   ----------------------------------------
	BYTE	W96
// 101   ----------------------------------------
	BYTE	W96
// 102   ----------------------------------------
	BYTE	W96
// 103   ----------------------------------------
	BYTE	W96
// 104   ----------------------------------------
	BYTE	W96
// 105   ----------------------------------------
	BYTE	W96
// 106   ----------------------------------------
	BYTE	W96
// 107   ----------------------------------------
	BYTE	W96
// 108   ----------------------------------------
	BYTE	W96
// 109   ----------------------------------------
	BYTE	W96
// 110   ----------------------------------------
	BYTE	W96
// 111   ----------------------------------------
	BYTE	W96
// 112   ----------------------------------------
	BYTE	W96
// 113   ----------------------------------------
	BYTE	W96
// 114   ----------------------------------------
	BYTE	W96
// 115   ----------------------------------------
	BYTE	FINE

//**************** Track 2 (Midi-Chn.2) ****************//

tcox_noecho_2:
	BYTE	KEYSH   tcox_noecho_key+0
// 000   ----------------------------------------
	BYTE		VOICE   34
	BYTE		VOL     77*tcox_noecho_mvl/mxv
	BYTE	W96
// 001   ----------------------------------------
	BYTE	W96
// 002   ----------------------------------------
	BYTE	W96
// 003   ----------------------------------------
	BYTE	W96
// 004   ----------------------------------------
	BYTE	W96
// 005   ----------------------------------------
	BYTE	W96
// 006   ----------------------------------------
	BYTE	W96
// 007   ----------------------------------------
	BYTE	W96
tcox_noecho_2_B1:
// 008   ----------------------------------------
tcox_noecho_2_008:
	BYTE		N12     Dn1   v104
	BYTE	W12
	BYTE		N12   
	BYTE	W84
	BYTE	PEND
// 009   ----------------------------------------
	BYTE	PATT
	 POIN2	tcox_noecho_2_008
// 010   ----------------------------------------
	BYTE	PATT
	 POIN2	tcox_noecho_2_008
// 011   ----------------------------------------
	BYTE		N12     Dn1   v104
	BYTE	W12
	BYTE		N12   
	BYTE	W12
	BYTE		N12   
	BYTE	W12
	BYTE		N24     Dn2 
	BYTE	W24
	BYTE		N12   
	BYTE	W12
	BYTE		        Cn2 
	BYTE	W12
	BYTE		        Dn2 
	BYTE	W12
// 012   ----------------------------------------
	BYTE	PATT
	 POIN2	tcox_noecho_2_008
// 013   ----------------------------------------
	BYTE		N12     Dn1   v104
	BYTE	W12
	BYTE		N12   
	BYTE	W24
	BYTE		N60     Gn1 
	BYTE	W60
// 014   ----------------------------------------
	BYTE	PATT
	 POIN2	tcox_noecho_2_008
// 015   ----------------------------------------
	BYTE		N12     Dn1   v104
	BYTE	W12
	BYTE		N12   
	BYTE	W12
	BYTE		N12   
	BYTE	W12
	BYTE		N12   
	BYTE	W60
// 016   ----------------------------------------
	BYTE		N72     Cn2 
	BYTE	W72
	BYTE		N12   
	BYTE	W12
	BYTE		N36     Bn1 
	BYTE	W12
// 017   ----------------------------------------
	BYTE	W24
	BYTE		N12   
	BYTE	W12
	BYTE		N36     As1 
	BYTE	W36
	BYTE		N12   
	BYTE	W12
	BYTE		N36     An1 
	BYTE	W12
// 018   ----------------------------------------
	BYTE	W24
	BYTE		N48     Dn2 
	BYTE	W48
	BYTE		TIE     Dn1 
	BYTE	W24
// 019   ----------------------------------------
	BYTE	W96
	BYTE		EOT   
// 020   ----------------------------------------
tcox_noecho_2_020:
	BYTE		N24     Dn1   v104
	BYTE	W36
	BYTE		N60   
	BYTE	W60
	BYTE	PEND
// 021   ----------------------------------------
	BYTE	PATT
	 POIN2	tcox_noecho_2_020
// 022   ----------------------------------------
	BYTE	PATT
	 POIN2	tcox_noecho_2_020
// 023   ----------------------------------------
tcox_noecho_2_023:
	BYTE		N12     Dn1   v104
	BYTE	W12
	BYTE		        Fn1 
	BYTE	W12
	BYTE		        Gn1 
	BYTE	W12
	BYTE		        Fn1 
	BYTE	W12
	BYTE		        Gn1 
	BYTE	W12
	BYTE		        An1 
	BYTE	W12
	BYTE		N24     Gn1 
	BYTE	W24
	BYTE	PEND
// 024   ----------------------------------------
	BYTE	PATT
	 POIN2	tcox_noecho_2_020
// 025   ----------------------------------------
	BYTE	PATT
	 POIN2	tcox_noecho_2_020
// 026   ----------------------------------------
	BYTE	PATT
	 POIN2	tcox_noecho_2_020
// 027   ----------------------------------------
tcox_noecho_2_027:
	BYTE		N12     Dn1   v104
	BYTE	W12
	BYTE		        Gn2 
	BYTE	W12
	BYTE		        Fn2 
	BYTE	W12
	BYTE		        Dn2 
	BYTE	W12
	BYTE		        Fn2 
	BYTE	W12
	BYTE		        Dn2 
	BYTE	W12
	BYTE		        Cn2 
	BYTE	W12
	BYTE		        An1 
	BYTE	W12
	BYTE	PEND
// 028   ----------------------------------------
tcox_noecho_2_028:
	BYTE		N12     Fn1   v104
	BYTE	W12
	BYTE		        Gn1 
	BYTE	W24
	BYTE		N60   
	BYTE	W60
	BYTE	PEND
// 029   ----------------------------------------
tcox_noecho_2_029:
	BYTE		N12     Gs1   v104
	BYTE	W12
	BYTE		        Gn1 
	BYTE	W12
	BYTE		        Fn1 
	BYTE	W12
	BYTE		N60     Dn1 
	BYTE	W60
	BYTE	PEND
// 030   ----------------------------------------
tcox_noecho_2_030:
	BYTE		N12     Fn1   v104
	BYTE	W12
	BYTE		        Gn1 
	BYTE	W24
	BYTE		N36   
	BYTE	W36
	BYTE		N24     Fn1 
	BYTE	W24
	BYTE	PEND
// 031   ----------------------------------------
tcox_noecho_2_031:
	BYTE		N24     Dn1   v104
	BYTE	W24
	BYTE		N72     Dn2 
	BYTE	W72
	BYTE	PEND
// 032   ----------------------------------------
tcox_noecho_2_032:
	BYTE		N12     Fn1   v104
	BYTE	W12
	BYTE		        Gn1 
	BYTE	W24
	BYTE		N36   
	BYTE	W36
	BYTE		N12     Fn1 
	BYTE	W12
	BYTE		        Gn1 
	BYTE	W12
	BYTE	PEND
// 033   ----------------------------------------
tcox_noecho_2_033:
	BYTE		N12     Gs1   v104
	BYTE	W12
	BYTE		        Gn1 
	BYTE	W12
	BYTE		        Fn1 
	BYTE	W12
	BYTE		N36     Dn1 
	BYTE	W36
	BYTE		N24   
	BYTE	W24
	BYTE	PEND
// 034   ----------------------------------------
tcox_noecho_2_034:
	BYTE		N12     Fn1   v104
	BYTE	W12
	BYTE		N12   
	BYTE	W24
	BYTE		N36   
	BYTE	W36
	BYTE		N12   
	BYTE	W12
	BYTE		TIE     An1 
	BYTE	W12
	BYTE	PEND
// 035   ----------------------------------------
	BYTE	W96
	BYTE		EOT   
// 036   ----------------------------------------
	BYTE	W96
// 037   ----------------------------------------
tcox_noecho_2_037:
	BYTE		N12     Gn1   v104
	BYTE	W12
	BYTE		        Fn1 
	BYTE	W12
	BYTE		        Gn1 
	BYTE	W12
	BYTE		N24     Gs1 
	BYTE	W24
	BYTE		N12     Gn1 
	BYTE	W12
	BYTE		        Dn1 
	BYTE	W12
	BYTE		        Cn1 
	BYTE	W12
	BYTE	PEND
// 038   ----------------------------------------
tcox_noecho_2_038:
	BYTE		N12     Dn1   v104
	BYTE	W12
	BYTE		N12   
	BYTE	W12
	BYTE		N12   
	BYTE	W12
	BYTE		N12   
	BYTE	W12
	BYTE		N12   
	BYTE	W12
	BYTE		N12   
	BYTE	W12
	BYTE		N12   
	BYTE	W12
	BYTE		N12   
	BYTE	W12
	BYTE	PEND
// 039   ----------------------------------------
tcox_noecho_2_039:
	BYTE		N12     Fn1   v104
	BYTE	W12
	BYTE		N12   
	BYTE	W12
	BYTE		        Fn2 
	BYTE	W12
	BYTE		N24     Fn1 
	BYTE	W24
	BYTE		N12   
	BYTE	W12
	BYTE		N12   
	BYTE	W12
	BYTE		N12   
	BYTE	W12
	BYTE	PEND
// 040   ----------------------------------------
tcox_noecho_2_040:
	BYTE		N12     Gn1   v104
	BYTE	W12
	BYTE		N12   
	BYTE	W12
	BYTE		        Gn2 
	BYTE	W12
	BYTE		N12   
	BYTE	W12
	BYTE		        Gn1 
	BYTE	W12
	BYTE		N12   
	BYTE	W12
	BYTE		N12   
	BYTE	W12
	BYTE		N12   
	BYTE	W12
	BYTE	PEND
// 041   ----------------------------------------
tcox_noecho_2_041:
	BYTE		N12     An1   v104
	BYTE	W12
	BYTE		N12   
	BYTE	W12
	BYTE		N12   
	BYTE	W12
	BYTE		        An2 
	BYTE	W12
	BYTE		        An1 
	BYTE	W12
	BYTE		N12   
	BYTE	W12
	BYTE		N12   
	BYTE	W12
	BYTE		N12   
	BYTE	W12
	BYTE	PEND
// 042   ----------------------------------------
tcox_noecho_2_042:
	BYTE		N12     Dn1   v104
	BYTE	W12
	BYTE		N12   
	BYTE	W12
	BYTE		        Dn2 
	BYTE	W12
	BYTE		N12   
	BYTE	W12
	BYTE		        Dn1 
	BYTE	W12
	BYTE		N12   
	BYTE	W12
	BYTE		N12   
	BYTE	W12
	BYTE		N12   
	BYTE	W12
	BYTE	PEND
// 043   ----------------------------------------
tcox_noecho_2_043:
	BYTE		N12     Fn1   v104
	BYTE	W12
	BYTE		N12   
	BYTE	W12
	BYTE		        Fn2 
	BYTE	W12
	BYTE		N12   
	BYTE	W12
	BYTE		        Fn1 
	BYTE	W12
	BYTE		N12   
	BYTE	W12
	BYTE		N12   
	BYTE	W12
	BYTE		N12   
	BYTE	W12
	BYTE	PEND
// 044   ----------------------------------------
	BYTE	PATT
	 POIN2	tcox_noecho_2_040
// 045   ----------------------------------------
tcox_noecho_2_045:
	BYTE		N12     An1   v104
	BYTE	W12
	BYTE		N12   
	BYTE	W12
	BYTE		        An2 
	BYTE	W12
	BYTE		N12   
	BYTE	W12
	BYTE		        Gn2 
	BYTE	W12
	BYTE		        Fn2 
	BYTE	W12
	BYTE		        Gn2 
	BYTE	W12
	BYTE		        An2 
	BYTE	W12
	BYTE	PEND
// 046   ----------------------------------------
tcox_noecho_2_046:
	BYTE		N12     Dn1   v104
	BYTE	W12
	BYTE		N12   
	BYTE	W12
	BYTE		N12   
	BYTE	W12
	BYTE		        Dn2 
	BYTE	W12
	BYTE		        Dn1 
	BYTE	W12
	BYTE		N12   
	BYTE	W12
	BYTE		N12   
	BYTE	W12
	BYTE		N12   
	BYTE	W12
	BYTE	PEND
// 047   ----------------------------------------
tcox_noecho_2_047:
	BYTE		N12     Fn1   v104
	BYTE	W12
	BYTE		N12   
	BYTE	W12
	BYTE		N12   
	BYTE	W12
	BYTE		        Fn2 
	BYTE	W12
	BYTE		        Fn1 
	BYTE	W12
	BYTE		N12   
	BYTE	W12
	BYTE		N12   
	BYTE	W12
	BYTE		N12   
	BYTE	W12
	BYTE	PEND
// 048   ----------------------------------------
	BYTE	PATT
	 POIN2	tcox_noecho_2_040
// 049   ----------------------------------------
tcox_noecho_2_049:
	BYTE		N12     An1   v104
	BYTE	W12
	BYTE		N12   
	BYTE	W12
	BYTE		N12   
	BYTE	W12
	BYTE		        An2 
	BYTE	W12
	BYTE		        An1 
	BYTE	W12
	BYTE		N12   
	BYTE	W12
	BYTE		        Cn2 
	BYTE	W12
	BYTE		        Dn2 
	BYTE	W12
	BYTE	PEND
// 050   ----------------------------------------
	BYTE	W96
// 051   ----------------------------------------
	BYTE	W24
	BYTE		N72     An1 
	BYTE	W72
// 052   ----------------------------------------
	BYTE		TIE     Dn1 
	BYTE	W96
// 053   ----------------------------------------
	BYTE	W84
	BYTE		EOT   
	BYTE		N36     Dn2 
	BYTE	W12
// 054   ----------------------------------------
tcox_noecho_2_054:
	BYTE	W24
	BYTE		TIE     Dn1   v104
	BYTE	W72
	BYTE	PEND
// 055   ----------------------------------------
	BYTE	W48
	BYTE		EOT   
	BYTE		N12     An1 
	BYTE	W12
	BYTE		        As1 
	BYTE	W12
	BYTE		        Bn1 
	BYTE	W12
	BYTE		N36     Cn2 
	BYTE	W12
// 056   ----------------------------------------
	BYTE	PATT
	 POIN2	tcox_noecho_2_054
// 057   ----------------------------------------
	BYTE	W84
	BYTE		EOT     Dn1 
	BYTE		TIE     Dn2   v104
	BYTE	W12
// 058   ----------------------------------------
	BYTE	W96
	BYTE		EOT   
// 059   ----------------------------------------
	BYTE		N12     Dn1 
	BYTE	W12
	BYTE		        Cn1 
	BYTE	W12
	BYTE		        Dn1 
	BYTE	W12
	BYTE		N24     Fn1 
	BYTE	W24
	BYTE		N12     Gn1 
	BYTE	W12
	BYTE		        Fn1 
	BYTE	W12
	BYTE		        Dn1 
	BYTE	W12
// 060   ----------------------------------------
tcox_noecho_2_060:
	BYTE		N24     Dn1   v104
	BYTE	W24
	BYTE		N12   
	BYTE	W12
	BYTE		N12   
	BYTE	W60
	BYTE	PEND
// 061   ----------------------------------------
	BYTE	PATT
	 POIN2	tcox_noecho_2_060
// 062   ----------------------------------------
	BYTE	PATT
	 POIN2	tcox_noecho_2_060
// 063   ----------------------------------------
	BYTE	PATT
	 POIN2	tcox_noecho_2_060
// 064   ----------------------------------------
	BYTE	PATT
	 POIN2	tcox_noecho_2_060
// 065   ----------------------------------------
	BYTE	PATT
	 POIN2	tcox_noecho_2_060
// 066   ----------------------------------------
	BYTE	PATT
	 POIN2	tcox_noecho_2_060
// 067   ----------------------------------------
	BYTE	PATT
	 POIN2	tcox_noecho_2_060
// 068   ----------------------------------------
	BYTE	PATT
	 POIN2	tcox_noecho_2_020
// 069   ----------------------------------------
	BYTE	PATT
	 POIN2	tcox_noecho_2_020
// 070   ----------------------------------------
	BYTE	PATT
	 POIN2	tcox_noecho_2_020
// 071   ----------------------------------------
	BYTE	PATT
	 POIN2	tcox_noecho_2_023
// 072   ----------------------------------------
	BYTE	PATT
	 POIN2	tcox_noecho_2_020
// 073   ----------------------------------------
	BYTE	PATT
	 POIN2	tcox_noecho_2_020
// 074   ----------------------------------------
	BYTE	PATT
	 POIN2	tcox_noecho_2_020
// 075   ----------------------------------------
	BYTE	PATT
	 POIN2	tcox_noecho_2_027
// 076   ----------------------------------------
	BYTE	PATT
	 POIN2	tcox_noecho_2_028
// 077   ----------------------------------------
	BYTE	PATT
	 POIN2	tcox_noecho_2_029
// 078   ----------------------------------------
	BYTE	PATT
	 POIN2	tcox_noecho_2_030
// 079   ----------------------------------------
	BYTE	PATT
	 POIN2	tcox_noecho_2_031
// 080   ----------------------------------------
	BYTE	PATT
	 POIN2	tcox_noecho_2_032
// 081   ----------------------------------------
	BYTE	PATT
	 POIN2	tcox_noecho_2_033
// 082   ----------------------------------------
	BYTE	PATT
	 POIN2	tcox_noecho_2_034
// 083   ----------------------------------------
	BYTE	W96
	BYTE		EOT     An1 
// 084   ----------------------------------------
	BYTE	PATT
	 POIN2	tcox_noecho_2_037
// 085   ----------------------------------------
	BYTE	PATT
	 POIN2	tcox_noecho_2_038
// 086   ----------------------------------------
	BYTE	PATT
	 POIN2	tcox_noecho_2_039
// 087   ----------------------------------------
	BYTE	PATT
	 POIN2	tcox_noecho_2_040
// 088   ----------------------------------------
	BYTE	PATT
	 POIN2	tcox_noecho_2_041
// 089   ----------------------------------------
	BYTE	PATT
	 POIN2	tcox_noecho_2_042
// 090   ----------------------------------------
	BYTE	PATT
	 POIN2	tcox_noecho_2_043
// 091   ----------------------------------------
	BYTE	PATT
	 POIN2	tcox_noecho_2_040
// 092   ----------------------------------------
	BYTE	PATT
	 POIN2	tcox_noecho_2_045
// 093   ----------------------------------------
	BYTE	PATT
	 POIN2	tcox_noecho_2_046
// 094   ----------------------------------------
	BYTE	PATT
	 POIN2	tcox_noecho_2_047
// 095   ----------------------------------------
	BYTE	PATT
	 POIN2	tcox_noecho_2_040
// 096   ----------------------------------------
	BYTE	PATT
	 POIN2	tcox_noecho_2_049
// 097   ----------------------------------------
	BYTE	W96
// 098   ----------------------------------------
	BYTE	W96
// 099   ----------------------------------------
	BYTE	PATT
	 POIN2	tcox_noecho_2_037
	BYTE	GoTo
	 POIN2	tcox_noecho_2_B1
tcox_noecho_2_B2:
// 100   ----------------------------------------
	BYTE	PATT
	 POIN2	tcox_noecho_2_038
// 101   ----------------------------------------
	BYTE	PATT
	 POIN2	tcox_noecho_2_039
// 102   ----------------------------------------
	BYTE	PATT
	 POIN2	tcox_noecho_2_040
// 103   ----------------------------------------
	BYTE	PATT
	 POIN2	tcox_noecho_2_041
// 104   ----------------------------------------
	BYTE		N12     Dn2   v104
	BYTE	W12
	BYTE		N12   
	BYTE	W12
	BYTE		N12   
	BYTE	W12
	BYTE		N12   
	BYTE	W12
	BYTE		N12   
	BYTE	W12
	BYTE		N12   
	BYTE	W12
	BYTE		N12   
	BYTE	W12
	BYTE		N12   
	BYTE	W12
// 105   ----------------------------------------
	BYTE		        Cn2 
	BYTE	W12
	BYTE		N12   
	BYTE	W12
	BYTE		N12   
	BYTE	W12
	BYTE		N12   
	BYTE	W12
	BYTE		N12   
	BYTE	W12
	BYTE		N12   
	BYTE	W12
	BYTE		N12   
	BYTE	W12
	BYTE		N12   
	BYTE	W12
// 106   ----------------------------------------
	BYTE		        Bn1 
	BYTE	W12
	BYTE		N12   
	BYTE	W12
	BYTE		N12   
	BYTE	W12
	BYTE		N12   
	BYTE	W12
	BYTE		N12   
	BYTE	W12
	BYTE		N12   
	BYTE	W12
	BYTE		N12   
	BYTE	W12
	BYTE		N12   
	BYTE	W12
// 107   ----------------------------------------
	BYTE		        Cs2 
	BYTE	W12
	BYTE		N12   
	BYTE	W12
	BYTE		N12   
	BYTE	W12
	BYTE		N12   
	BYTE	W12
	BYTE		N12   
	BYTE	W12
	BYTE		N12   
	BYTE	W12
	BYTE		N12   
	BYTE	W12
	BYTE		N12   
	BYTE	W12
// 108   ----------------------------------------
	BYTE	PATT
	 POIN2	tcox_noecho_2_046
// 109   ----------------------------------------
	BYTE	PATT
	 POIN2	tcox_noecho_2_047
// 110   ----------------------------------------
	BYTE	PATT
	 POIN2	tcox_noecho_2_040
// 111   ----------------------------------------
	BYTE		N12     An1   v104
	BYTE	W12
	BYTE		N12   
	BYTE	W12
	BYTE		N12   
	BYTE	W12
	BYTE		        An2 
	BYTE	W12
	BYTE		        An1 
	BYTE	W12
	BYTE		N12   
	BYTE	W12
	BYTE		        Cn1 
	BYTE	W12
	BYTE		        Dn1 
	BYTE	W12
// 112   ----------------------------------------
	BYTE	W24
	BYTE		        Fn1 
	BYTE	W12
	BYTE		        En1 
	BYTE	W36
	BYTE		        Cn1 
	BYTE	W12
	BYTE		        Dn1 
	BYTE	W12
// 113   ----------------------------------------
	BYTE	W96
// 114   ----------------------------------------
	BYTE	W96
// 115   ----------------------------------------
	BYTE	FINE

//**************** Track 3 (Midi-Chn.3) ****************//

tcox_noecho_3:
	BYTE	KEYSH   tcox_noecho_key+0
// 000   ----------------------------------------
	BYTE		VOICE   30
	BYTE		VOL     66*tcox_noecho_mvl/mxv
	BYTE		PAN     c_v-32
	BYTE		N72     Cn2   v104
	BYTE	W72
	BYTE		N12   
	BYTE	W12
	BYTE		N36     Bn1 
	BYTE	W12
// 001   ----------------------------------------
tcox_noecho_3_001:
	BYTE	W24
	BYTE		N12     Bn1   v104
	BYTE	W12
	BYTE		N36     As1 
	BYTE	W36
	BYTE		N12   
	BYTE	W12
	BYTE		TIE     An1 
	BYTE	W12
	BYTE	PEND
// 002   ----------------------------------------
	BYTE	W24
	BYTE		        Dn1 
	BYTE	W48
	BYTE		        Dn2 
	BYTE		TIE     An2 
	BYTE		TIE     Dn3 
	BYTE	W24
// 003   ----------------------------------------
	BYTE	W48
	BYTE		EOT     An1 
	BYTE		N12   
	BYTE	W12
	BYTE		        As1 
	BYTE	W12
	BYTE		        Bn1 
	BYTE	W12
	BYTE		N84     Cn2 
	BYTE	W12
	BYTE		EOT     Dn2 
	BYTE		        An2 
	BYTE		        Dn3 
// 004   ----------------------------------------
	BYTE	W72
	BYTE		N12     Cn2 
	BYTE	W12
	BYTE		N36     Bn1 
	BYTE	W12
// 005   ----------------------------------------
	BYTE	PATT
	 POIN2	tcox_noecho_3_001
// 006   ----------------------------------------
	BYTE	W24
	BYTE		EOT     Dn1 
	BYTE		TIE     Dn1   v104
	BYTE	W48
	BYTE		        Dn2 
	BYTE		TIE     An2 
	BYTE		TIE     Dn3 
	BYTE	W24
// 007   ----------------------------------------
	BYTE	W96
	BYTE		EOT     Dn1 
	BYTE		        An1 
	BYTE		        Dn2 
	BYTE		        An2 
	BYTE		        Dn3 
tcox_noecho_3_B1:
// 008   ----------------------------------------
tcox_noecho_3_008:
	BYTE		N24     Dn1   v104
	BYTE		N24     An1 
	BYTE		N24     Dn2 
	BYTE	W36
	BYTE		N54     Cn2 
	BYTE		N54     Fn2 
	BYTE	W60
	BYTE	PEND
// 009   ----------------------------------------
tcox_noecho_3_009:
	BYTE		N24     Dn1   v104
	BYTE		N24     An1 
	BYTE		N24     Dn2 
	BYTE	W36
	BYTE		N54   
	BYTE		N54     Gn2 
	BYTE	W60
	BYTE	PEND
// 010   ----------------------------------------
tcox_noecho_3_010:
	BYTE		N24     Dn1   v104
	BYTE		N24     An1 
	BYTE		N24     Dn2 
	BYTE	W36
	BYTE		        Ds2 
	BYTE		N24     Gs2 
	BYTE	W24
	BYTE		N12     Gn2 
	BYTE	W12
	BYTE		        Fn2 
	BYTE	W12
	BYTE		        Dn2 
	BYTE	W12
	BYTE	PEND
// 011   ----------------------------------------
tcox_noecho_3_011:
	BYTE		N90     Dn1   v104
	BYTE	W24
	BYTE		N66     An1 
	BYTE		N66     Dn2 
	BYTE		N72     An2 
	BYTE		N72     Dn3 
	BYTE	W72
	BYTE	PEND
// 012   ----------------------------------------
	BYTE	PATT
	 POIN2	tcox_noecho_3_008
// 013   ----------------------------------------
	BYTE	PATT
	 POIN2	tcox_noecho_3_009
// 014   ----------------------------------------
	BYTE	PATT
	 POIN2	tcox_noecho_3_010
// 015   ----------------------------------------
	BYTE	PATT
	 POIN2	tcox_noecho_3_011
// 016   ----------------------------------------
	BYTE		N72     Cn2   v104
	BYTE		N72     Gn2 
	BYTE		N72     Cn3 
	BYTE	W72
	BYTE		N12     Cn2 
	BYTE		N12     Gn2 
	BYTE		N12     Cn3 
	BYTE	W12
	BYTE		N36     Bn1 
	BYTE		N36     Fs2 
	BYTE		N36     Bn2 
	BYTE	W12
// 017   ----------------------------------------
	BYTE	W24
	BYTE		N12     Bn1 
	BYTE		N12     Fs2 
	BYTE		N12     Bn2 
	BYTE	W12
	BYTE		N36     As1 
	BYTE		N36     Fn2 
	BYTE		N36     As2 
	BYTE	W36
	BYTE		N12     As1 
	BYTE		N12     Fn2 
	BYTE		N12     As2 
	BYTE	W12
	BYTE		TIE     An1 
	BYTE		N36     En2 
	BYTE		N84     An2 
	BYTE	W12
// 018   ----------------------------------------
	BYTE	W24
	BYTE		TIE     Dn1 
	BYTE		TIE     Dn2 
	BYTE	W48
	BYTE		        An2 
	BYTE		TIE     Dn3 
	BYTE	W24
// 019   ----------------------------------------
	BYTE	W96
	BYTE		EOT     Dn1 
	BYTE		        An1 
	BYTE		        Dn2 
	BYTE		        An2 
	BYTE		        Dn3 
// 020   ----------------------------------------
	BYTE	PATT
	 POIN2	tcox_noecho_3_008
// 021   ----------------------------------------
	BYTE	PATT
	 POIN2	tcox_noecho_3_009
// 022   ----------------------------------------
	BYTE	PATT
	 POIN2	tcox_noecho_3_010
// 023   ----------------------------------------
	BYTE	PATT
	 POIN2	tcox_noecho_3_011
// 024   ----------------------------------------
	BYTE	PATT
	 POIN2	tcox_noecho_3_008
// 025   ----------------------------------------
	BYTE	PATT
	 POIN2	tcox_noecho_3_009
// 026   ----------------------------------------
	BYTE	PATT
	 POIN2	tcox_noecho_3_010
// 027   ----------------------------------------
	BYTE	PATT
	 POIN2	tcox_noecho_3_011
// 028   ----------------------------------------
tcox_noecho_3_028:
	BYTE		N12     Fn1   v104
	BYTE		N12     Cn2 
	BYTE		N12     Fn2 
	BYTE	W12
	BYTE		        Gn1 
	BYTE		N12     Dn2 
	BYTE		N12     Gn2 
	BYTE	W24
	BYTE		N24     Gn1 
	BYTE		N24     Dn2 
	BYTE		N24     Gn2 
	BYTE	W24
	BYTE		N12     Gn1 
	BYTE		N12     Dn2 
	BYTE		N12     Gn2 
	BYTE	W12
	BYTE		        Fn1 
	BYTE		N12     Cn2 
	BYTE		N12     Fn2 
	BYTE	W12
	BYTE		        Gn1 
	BYTE		N12     Dn2 
	BYTE		N12     Gn2 
	BYTE	W12
	BYTE	PEND
// 029   ----------------------------------------
tcox_noecho_3_029:
	BYTE		N12     Gs1   v104
	BYTE		N12     Ds2 
	BYTE		N12     Gs2 
	BYTE	W12
	BYTE		        Gn1 
	BYTE		N12     Dn2 
	BYTE		N12     Gn2 
	BYTE	W12
	BYTE		        Fn1 
	BYTE		N12     Cn2 
	BYTE		N12     Fn2 
	BYTE	W12
	BYTE		N42     Dn1 
	BYTE		N42     An1 
	BYTE		N42     Dn2 
	BYTE	W24
	BYTE		N18     An2 
	BYTE		N18     Dn3 
	BYTE	W36
	BYTE	PEND
// 030   ----------------------------------------
tcox_noecho_3_030:
	BYTE		N12     Fn1   v104
	BYTE		N12     Cn2 
	BYTE		N12     Fn2 
	BYTE	W12
	BYTE		        Gn1 
	BYTE		N12     Dn2 
	BYTE		N12     Gn2 
	BYTE	W24
	BYTE		N36     Gn1 
	BYTE		N36     Dn2 
	BYTE		N36     Gn2 
	BYTE	W36
	BYTE		N24     Fn1 
	BYTE		N24     Cn2 
	BYTE		N24     Fn2 
	BYTE	W24
	BYTE	PEND
// 031   ----------------------------------------
tcox_noecho_3_031:
	BYTE		N24     Dn1   v104
	BYTE		N24     An1 
	BYTE		N24     Dn2 
	BYTE	W24
	BYTE		        An1 
	BYTE		N24     An2 
	BYTE	W24
	BYTE		        Dn2 
	BYTE		N24     Dn3 
	BYTE	W24
	BYTE		        Dn1 
	BYTE		N24     Dn2 
	BYTE	W24
	BYTE	PEND
// 032   ----------------------------------------
	BYTE	PATT
	 POIN2	tcox_noecho_3_028
// 033   ----------------------------------------
tcox_noecho_3_033:
	BYTE		N12     Gs1   v104
	BYTE		N12     Ds2 
	BYTE		N12     Gs2 
	BYTE	W12
	BYTE		        Gn1 
	BYTE		N12     Dn2 
	BYTE		N12     Gn2 
	BYTE	W12
	BYTE		        Fn1 
	BYTE		N12     Cn2 
	BYTE		N12     Fn2 
	BYTE	W12
	BYTE		N36     Dn1 
	BYTE		N36     An1 
	BYTE		N36     Dn2 
	BYTE	W24
	BYTE		N12     An2 
	BYTE		N12     Dn3 
	BYTE	W12
	BYTE		N06     Dn1 
	BYTE		N06     An1 
	BYTE		N06     Dn2 
	BYTE	W12
	BYTE		        Dn1 
	BYTE		N06     An1 
	BYTE		N06     Dn2 
	BYTE	W12
	BYTE	PEND
// 034   ----------------------------------------
tcox_noecho_3_034:
	BYTE		N12     Fn1   v104
	BYTE		N12     Cn2 
	BYTE		N12     Fn2 
	BYTE	W12
	BYTE		N12   
	BYTE		N12     Cn3 
	BYTE		N12     Fn3 
	BYTE	W24
	BYTE		N24     Fn2 
	BYTE		N24     Cn3 
	BYTE		N24     Fn3 
	BYTE	W24
	BYTE		N12     Fn2 
	BYTE		N12     Cn3 
	BYTE		N12     Fn3 
	BYTE	W12
	BYTE		        Fn1 
	BYTE		N12     Cn2 
	BYTE		N12     Fn2 
	BYTE	W12
	BYTE		N36     An1 
	BYTE		N36     En2 
	BYTE		N36     An2 
	BYTE	W12
	BYTE	PEND
// 035   ----------------------------------------
tcox_noecho_3_035:
	BYTE	W24
	BYTE		N12     An1   v104
	BYTE		N12     En2 
	BYTE		N12     An2 
	BYTE	W12
	BYTE		        An1 
	BYTE		N12     En2 
	BYTE		N12     An2 
	BYTE	W12
	BYTE		        An1 
	BYTE		N12     En2 
	BYTE		N12     An2 
	BYTE	W12
	BYTE		        An1 
	BYTE		N12     En2 
	BYTE		N12     An2 
	BYTE	W12
	BYTE		N24     An1 
	BYTE		N24     En2 
	BYTE		N24     An2 
	BYTE	W24
	BYTE	PEND
// 036   ----------------------------------------
tcox_noecho_3_036:
	BYTE		N12     Gn1   v084
	BYTE		N12     Dn2 
	BYTE		N12     Gn2 
	BYTE	W12
	BYTE		        Fn1 
	BYTE		N12     Cn2 
	BYTE		N12     Fn2 
	BYTE	W12
	BYTE		        Gn1 
	BYTE		N12     Dn2 
	BYTE		N12     Gn2 
	BYTE	W12
	BYTE		N24     Gs1 
	BYTE		N24     Ds2 
	BYTE		N24     Gs2 
	BYTE	W24
	BYTE		N12     Gn1 
	BYTE		N12     Dn2 
	BYTE		N12     Gn2 
	BYTE	W12
	BYTE		        Dn1 
	BYTE		N12     An1 
	BYTE		N12     Dn2 
	BYTE	W12
	BYTE		        Fn1 
	BYTE		N12     Cn2 
	BYTE		N12     Fn2 
	BYTE	W12
	BYTE	PEND
// 037   ----------------------------------------
tcox_noecho_3_037:
	BYTE		N12     Gn1   v104
	BYTE		N12     Dn2 
	BYTE		N12     Gn2 
	BYTE	W12
	BYTE		        Fn1 
	BYTE		N12     Cn2 
	BYTE		N12     Fn2 
	BYTE	W12
	BYTE		        Gn1 
	BYTE		N12     Dn2 
	BYTE		N12     Gn2 
	BYTE	W12
	BYTE		N24     Gs1 
	BYTE		N24     Ds2 
	BYTE		N24     Gs2 
	BYTE	W24
	BYTE		N12     Gn1 
	BYTE		N12     Dn2 
	BYTE		N12     Gn2 
	BYTE	W12
	BYTE		        Dn1 
	BYTE		N12     An1 
	BYTE		N12     Dn2 
	BYTE	W12
	BYTE		        Cn1 
	BYTE		N12     Gn1 
	BYTE		N12     Cn2 
	BYTE	W12
	BYTE	PEND
// 038   ----------------------------------------
tcox_noecho_3_038:
	BYTE		N96     Dn1   v104
	BYTE		N96     An1 
	BYTE		N96     Dn2 
	BYTE	W96
	BYTE	PEND
// 039   ----------------------------------------
tcox_noecho_3_039:
	BYTE		N96     Fn1   v104
	BYTE		N96     Cn2 
	BYTE		N96     Fn2 
	BYTE	W96
	BYTE	PEND
// 040   ----------------------------------------
tcox_noecho_3_040:
	BYTE		N96     Gn1   v104
	BYTE		N96     Dn2 
	BYTE		N96     Gn2 
	BYTE	W96
	BYTE	PEND
// 041   ----------------------------------------
tcox_noecho_3_041:
	BYTE		N84     An1   v104
	BYTE		N96     En2 
	BYTE		N72     An2 
	BYTE	W72
	BYTE		N06     Gn2 
	BYTE	W06
	BYTE		N18     An2 
	BYTE	W06
	BYTE		N12     An1 
	BYTE	W12
	BYTE	PEND
// 042   ----------------------------------------
	BYTE	PATT
	 POIN2	tcox_noecho_3_038
// 043   ----------------------------------------
	BYTE	PATT
	 POIN2	tcox_noecho_3_039
// 044   ----------------------------------------
	BYTE	PATT
	 POIN2	tcox_noecho_3_040
// 045   ----------------------------------------
	BYTE	PATT
	 POIN2	tcox_noecho_3_041
// 046   ----------------------------------------
	BYTE	PATT
	 POIN2	tcox_noecho_3_038
// 047   ----------------------------------------
	BYTE	PATT
	 POIN2	tcox_noecho_3_039
// 048   ----------------------------------------
	BYTE	PATT
	 POIN2	tcox_noecho_3_040
// 049   ----------------------------------------
tcox_noecho_3_049:
	BYTE		N72     An1   v104
	BYTE		N72     En2 
	BYTE		N72     An2 
	BYTE	W72
	BYTE		N12     Gn1 
	BYTE		N12     Cn2 
	BYTE	W12
	BYTE		        An1 
	BYTE		N12     Dn2 
	BYTE	W12
	BYTE	PEND
// 050   ----------------------------------------
tcox_noecho_3_050:
	BYTE	W24
	BYTE		N12     Cn2   v104
	BYTE		N12     Fn2 
	BYTE	W12
	BYTE		N36     Bn1 
	BYTE		N36     En2 
	BYTE	W36
	BYTE		N12     Gn1 
	BYTE		N12     Cn2 
	BYTE	W12
	BYTE		        An1 
	BYTE		N12     Dn2 
	BYTE	W12
	BYTE	PEND
// 051   ----------------------------------------
	BYTE	W24
	BYTE		N72     En1 
	BYTE		N72     An1 
	BYTE	W72
// 052   ----------------------------------------
	BYTE		TIE   
	BYTE		TIE     Dn2 
	BYTE		N72     Cn3 
	BYTE	W72
	BYTE		N12   
	BYTE	W12
	BYTE		N36     Bn2 
	BYTE	W12
// 053   ----------------------------------------
tcox_noecho_3_053:
	BYTE	W24
	BYTE		N12     Bn2   v104
	BYTE	W12
	BYTE		N36     As2 
	BYTE	W36
	BYTE		N12   
	BYTE	W12
	BYTE		TIE     An2 
	BYTE	W12
	BYTE	PEND
// 054   ----------------------------------------
tcox_noecho_3_054:
	BYTE	W24
	BYTE		TIE     Dn1   v104
	BYTE	W48
	BYTE	PEND
	BYTE		EOT     An1 
	BYTE		TIE   
	BYTE		TIE     Dn3 
	BYTE	W24
// 055   ----------------------------------------
	BYTE	W48
	BYTE		EOT     An2 
	BYTE		N12   
	BYTE	W12
	BYTE		        As2 
	BYTE	W12
	BYTE		        Bn2 
	BYTE	W12
	BYTE		N84     Cn3 
	BYTE	W12
	BYTE		EOT     Dn1 
	BYTE		        An1 
	BYTE		        Dn2 
	BYTE		        Dn3 
// 056   ----------------------------------------
	BYTE		TIE     An1 
	BYTE		TIE     Dn2 
	BYTE	W72
	BYTE		N12     Cn3 
	BYTE	W12
	BYTE		N36     Bn2 
	BYTE	W12
// 057   ----------------------------------------
	BYTE	PATT
	 POIN2	tcox_noecho_3_053
// 058   ----------------------------------------
	BYTE	PATT
	 POIN2	tcox_noecho_3_054
	BYTE		EOT     An1 
	BYTE		TIE     An1   v104
	BYTE		TIE     Dn3 
	BYTE	W24
// 059   ----------------------------------------
	BYTE	W96
	BYTE		EOT     Dn1 
	BYTE		        An1 
	BYTE		        Dn2 
	BYTE		        An2 
	BYTE		        Dn3 
// 060   ----------------------------------------
	BYTE	W96
// 061   ----------------------------------------
	BYTE	W96
// 062   ----------------------------------------
	BYTE	W96
// 063   ----------------------------------------
	BYTE	W96
// 064   ----------------------------------------
	BYTE	W96
// 065   ----------------------------------------
	BYTE	W96
// 066   ----------------------------------------
	BYTE	W96
// 067   ----------------------------------------
	BYTE	W96
// 068   ----------------------------------------
	BYTE	PATT
	 POIN2	tcox_noecho_3_008
// 069   ----------------------------------------
	BYTE	PATT
	 POIN2	tcox_noecho_3_009
// 070   ----------------------------------------
	BYTE	PATT
	 POIN2	tcox_noecho_3_010
// 071   ----------------------------------------
	BYTE	PATT
	 POIN2	tcox_noecho_3_011
// 072   ----------------------------------------
	BYTE	PATT
	 POIN2	tcox_noecho_3_008
// 073   ----------------------------------------
	BYTE	PATT
	 POIN2	tcox_noecho_3_009
// 074   ----------------------------------------
	BYTE	PATT
	 POIN2	tcox_noecho_3_010
// 075   ----------------------------------------
	BYTE	PATT
	 POIN2	tcox_noecho_3_011
// 076   ----------------------------------------
	BYTE	PATT
	 POIN2	tcox_noecho_3_028
// 077   ----------------------------------------
	BYTE	PATT
	 POIN2	tcox_noecho_3_029
// 078   ----------------------------------------
	BYTE	PATT
	 POIN2	tcox_noecho_3_030
// 079   ----------------------------------------
	BYTE	PATT
	 POIN2	tcox_noecho_3_031
// 080   ----------------------------------------
	BYTE	PATT
	 POIN2	tcox_noecho_3_028
// 081   ----------------------------------------
	BYTE	PATT
	 POIN2	tcox_noecho_3_033
// 082   ----------------------------------------
	BYTE	PATT
	 POIN2	tcox_noecho_3_034
// 083   ----------------------------------------
	BYTE	PATT
	 POIN2	tcox_noecho_3_035
// 084   ----------------------------------------
	BYTE	PATT
	 POIN2	tcox_noecho_3_037
// 085   ----------------------------------------
	BYTE	PATT
	 POIN2	tcox_noecho_3_038
// 086   ----------------------------------------
	BYTE	PATT
	 POIN2	tcox_noecho_3_039
// 087   ----------------------------------------
	BYTE	PATT
	 POIN2	tcox_noecho_3_040
// 088   ----------------------------------------
	BYTE	PATT
	 POIN2	tcox_noecho_3_041
// 089   ----------------------------------------
	BYTE	PATT
	 POIN2	tcox_noecho_3_038
// 090   ----------------------------------------
	BYTE	PATT
	 POIN2	tcox_noecho_3_039
// 091   ----------------------------------------
	BYTE	PATT
	 POIN2	tcox_noecho_3_040
// 092   ----------------------------------------
	BYTE	PATT
	 POIN2	tcox_noecho_3_041
// 093   ----------------------------------------
	BYTE	PATT
	 POIN2	tcox_noecho_3_038
// 094   ----------------------------------------
	BYTE	PATT
	 POIN2	tcox_noecho_3_039
// 095   ----------------------------------------
	BYTE	PATT
	 POIN2	tcox_noecho_3_040
// 096   ----------------------------------------
	BYTE	PATT
	 POIN2	tcox_noecho_3_049
// 097   ----------------------------------------
	BYTE	PATT
	 POIN2	tcox_noecho_3_050
// 098   ----------------------------------------
	BYTE	PATT
	 POIN2	tcox_noecho_3_036
// 099   ----------------------------------------
	BYTE	PATT
	 POIN2	tcox_noecho_3_037
	BYTE	GoTo
	 POIN2	tcox_noecho_3_B1
tcox_noecho_3_B2:
// 100   ----------------------------------------
	BYTE	PATT
	 POIN2	tcox_noecho_3_038
// 101   ----------------------------------------
	BYTE	PATT
	 POIN2	tcox_noecho_3_039
// 102   ----------------------------------------
	BYTE	PATT
	 POIN2	tcox_noecho_3_040
// 103   ----------------------------------------
	BYTE	PATT
	 POIN2	tcox_noecho_3_041
// 104   ----------------------------------------
	BYTE	PATT
	 POIN2	tcox_noecho_3_038
// 105   ----------------------------------------
	BYTE		N96     Fn1   v104
	BYTE		N96     Cn2 
	BYTE	W96
// 106   ----------------------------------------
	BYTE		        Gn1 
	BYTE		N96     Bn1 
	BYTE	W96
// 107   ----------------------------------------
	BYTE		        An1 
	BYTE		N96     Cs2 
	BYTE	W96
// 108   ----------------------------------------
	BYTE	PATT
	 POIN2	tcox_noecho_3_038
// 109   ----------------------------------------
	BYTE	PATT
	 POIN2	tcox_noecho_3_039
// 110   ----------------------------------------
	BYTE	PATT
	 POIN2	tcox_noecho_3_040
// 111   ----------------------------------------
	BYTE		N72     An1   v104
	BYTE		N72     En2 
	BYTE		N72     An2 
	BYTE	W72
	BYTE		N12     Cn1 
	BYTE		N12     Gn1 
	BYTE		N12     Cn2 
	BYTE	W12
	BYTE		        Dn1 
	BYTE		N12     An1 
	BYTE		N12     Dn2 
	BYTE	W12
// 112   ----------------------------------------
	BYTE	W24
	BYTE		        Fn1 
	BYTE		N12     Cn2 
	BYTE		N12     Fn2 
	BYTE	W12
	BYTE		N36     En1 
	BYTE		N36     Bn1 
	BYTE		N36     En2 
	BYTE	W36
	BYTE		N12     Cn1 
	BYTE		N12     Gn1 
	BYTE		N12     Cn2 
	BYTE	W12
	BYTE		        Dn1 
	BYTE		N12     An1 
	BYTE		N12     Dn2 
	BYTE	W12
// 113   ----------------------------------------
	BYTE	W96
// 114   ----------------------------------------
	BYTE	W96
// 115   ----------------------------------------
	BYTE	FINE

//**************** Track 4 (Midi-Chn.5) ****************//

tcox_noecho_4:
	BYTE	KEYSH   tcox_noecho_key+0
// 000   ----------------------------------------
	BYTE		VOICE   79
	BYTE		VOL     78*tcox_noecho_mvl/mxv
	BYTE	W96
// 001   ----------------------------------------
	BYTE	W96
// 002   ----------------------------------------
	BYTE	W96
// 003   ----------------------------------------
	BYTE		N24     Dn5   v104
	BYTE	W24
	BYTE		        An4 
	BYTE	W24
	BYTE		        Gn5 
	BYTE	W24
	BYTE		TIE     Fs5 
	BYTE	W24
// 004   ----------------------------------------
	BYTE	W96
// 005   ----------------------------------------
	BYTE	W96
// 006   ----------------------------------------
	BYTE	W96
	BYTE		EOT   
// 007   ----------------------------------------
	BYTE		N24     Gn5 
	BYTE	W24
	BYTE		        Fs5 
	BYTE	W24
	BYTE		        Dn5 
	BYTE	W24
	BYTE		        An4 
	BYTE	W24
tcox_noecho_4_B1:
// 008   ----------------------------------------
	BYTE	W96
// 009   ----------------------------------------
	BYTE	W96
// 010   ----------------------------------------
	BYTE	W96
// 011   ----------------------------------------
	BYTE	W96
// 012   ----------------------------------------
	BYTE	W96
// 013   ----------------------------------------
	BYTE	W96
// 014   ----------------------------------------
	BYTE	W96
// 015   ----------------------------------------
	BYTE	W96
// 016   ----------------------------------------
	BYTE	W96
// 017   ----------------------------------------
	BYTE	W96
// 018   ----------------------------------------
	BYTE	W96
// 019   ----------------------------------------
	BYTE	W96
// 020   ----------------------------------------
	BYTE	W96
// 021   ----------------------------------------
	BYTE	W96
// 022   ----------------------------------------
	BYTE	W96
// 023   ----------------------------------------
	BYTE	W96
// 024   ----------------------------------------
	BYTE	W96
// 025   ----------------------------------------
	BYTE	W96
// 026   ----------------------------------------
	BYTE	W96
// 027   ----------------------------------------
	BYTE	W96
// 028   ----------------------------------------
	BYTE	W96
// 029   ----------------------------------------
	BYTE	W96
// 030   ----------------------------------------
	BYTE	W96
// 031   ----------------------------------------
	BYTE	W96
// 032   ----------------------------------------
	BYTE	W96
// 033   ----------------------------------------
	BYTE	W96
// 034   ----------------------------------------
	BYTE	W96
// 035   ----------------------------------------
	BYTE	W96
// 036   ----------------------------------------
	BYTE	W96
// 037   ----------------------------------------
	BYTE	W96
// 038   ----------------------------------------
	BYTE	W96
// 039   ----------------------------------------
	BYTE	W96
// 040   ----------------------------------------
	BYTE	W96
// 041   ----------------------------------------
	BYTE	W96
// 042   ----------------------------------------
	BYTE	W96
// 043   ----------------------------------------
	BYTE	W96
// 044   ----------------------------------------
	BYTE	W96
// 045   ----------------------------------------
	BYTE	W96
// 046   ----------------------------------------
	BYTE	W96
// 047   ----------------------------------------
	BYTE	W96
// 048   ----------------------------------------
	BYTE	W96
// 049   ----------------------------------------
	BYTE	W96
// 050   ----------------------------------------
	BYTE	W96
// 051   ----------------------------------------
	BYTE	W96
// 052   ----------------------------------------
	BYTE	W96
// 053   ----------------------------------------
	BYTE	W96
// 054   ----------------------------------------
	BYTE	W96
// 055   ----------------------------------------
tcox_noecho_4_055:
	BYTE		N24     Dn3   v104
	BYTE	W24
	BYTE		        An2 
	BYTE	W24
	BYTE		        Gn3 
	BYTE	W24
	BYTE		TIE     Fs3 
	BYTE	W24
	BYTE	PEND
// 056   ----------------------------------------
	BYTE	W96
// 057   ----------------------------------------
	BYTE	W96
// 058   ----------------------------------------
	BYTE	W96
	BYTE		EOT   
// 059   ----------------------------------------
tcox_noecho_4_059:
	BYTE		N24     Gn3   v104
	BYTE	W24
	BYTE		        Fs3 
	BYTE	W24
	BYTE		        Dn3 
	BYTE	W24
	BYTE		        An2 
	BYTE	W24
	BYTE	PEND
// 060   ----------------------------------------
	BYTE	W96
// 061   ----------------------------------------
	BYTE	W96
// 062   ----------------------------------------
	BYTE	W96
// 063   ----------------------------------------
	BYTE	W96
// 064   ----------------------------------------
	BYTE	W96
// 065   ----------------------------------------
	BYTE	W96
// 066   ----------------------------------------
	BYTE	W96
// 067   ----------------------------------------
	BYTE	PATT
	 POIN2	tcox_noecho_4_055
// 068   ----------------------------------------
	BYTE	W96
// 069   ----------------------------------------
	BYTE	W96
// 070   ----------------------------------------
	BYTE	W96
	BYTE		EOT     Fs3 
// 071   ----------------------------------------
	BYTE	PATT
	 POIN2	tcox_noecho_4_059
// 072   ----------------------------------------
	BYTE	W96
// 073   ----------------------------------------
	BYTE	W96
// 074   ----------------------------------------
	BYTE	W96
// 075   ----------------------------------------
	BYTE	W96
// 076   ----------------------------------------
	BYTE	W96
// 077   ----------------------------------------
	BYTE	W96
// 078   ----------------------------------------
	BYTE	W96
// 079   ----------------------------------------
	BYTE	W96
// 080   ----------------------------------------
	BYTE	W96
// 081   ----------------------------------------
	BYTE	W96
// 082   ----------------------------------------
	BYTE	W96
// 083   ----------------------------------------
	BYTE	W96
// 084   ----------------------------------------
	BYTE	W96
// 085   ----------------------------------------
	BYTE	W96
// 086   ----------------------------------------
	BYTE	W96
// 087   ----------------------------------------
	BYTE	W96
// 088   ----------------------------------------
	BYTE	W96
// 089   ----------------------------------------
	BYTE	W96
// 090   ----------------------------------------
	BYTE	W96
// 091   ----------------------------------------
	BYTE	W96
// 092   ----------------------------------------
	BYTE	W96
// 093   ----------------------------------------
	BYTE	W96
// 094   ----------------------------------------
	BYTE	W96
// 095   ----------------------------------------
	BYTE	W96
// 096   ----------------------------------------
	BYTE	W96
// 097   ----------------------------------------
	BYTE	W96
// 098   ----------------------------------------
	BYTE	W96
// 099   ----------------------------------------
	BYTE	W96
	BYTE	GoTo
	 POIN2	tcox_noecho_4_B1
tcox_noecho_4_B2:
// 100   ----------------------------------------
	BYTE	W96
// 101   ----------------------------------------
	BYTE	W96
// 102   ----------------------------------------
	BYTE	W96
// 103   ----------------------------------------
	BYTE	W96
// 104   ----------------------------------------
	BYTE	W96
// 105   ----------------------------------------
	BYTE	W96
// 106   ----------------------------------------
	BYTE	W96
// 107   ----------------------------------------
	BYTE	W96
// 108   ----------------------------------------
	BYTE	W96
// 109   ----------------------------------------
	BYTE	W96
// 110   ----------------------------------------
	BYTE	W96
// 111   ----------------------------------------
	BYTE	W96
// 112   ----------------------------------------
	BYTE	W96
// 113   ----------------------------------------
	BYTE	W96
// 114   ----------------------------------------
	BYTE	W96
// 115   ----------------------------------------
	BYTE	FINE

//**************** Track 5 (Midi-Chn.6) ****************//

tcox_noecho_5:
	BYTE	KEYSH   tcox_noecho_key+0
// 000   ----------------------------------------
	BYTE		VOICE   68
	BYTE		VOL     120*tcox_noecho_mvl/mxv
	BYTE		PAN     c_v+2
	BYTE	W96
// 001   ----------------------------------------
	BYTE	W96
// 002   ----------------------------------------
	BYTE	W96
// 003   ----------------------------------------
	BYTE	W96
// 004   ----------------------------------------
	BYTE	W96
// 005   ----------------------------------------
	BYTE	W96
// 006   ----------------------------------------
	BYTE	W96
// 007   ----------------------------------------
	BYTE	W96
tcox_noecho_5_B1:
// 008   ----------------------------------------
	BYTE	W96
// 009   ----------------------------------------
	BYTE	W96
// 010   ----------------------------------------
	BYTE	W96
// 011   ----------------------------------------
	BYTE	W96
// 012   ----------------------------------------
	BYTE	W96
// 013   ----------------------------------------
	BYTE	W96
// 014   ----------------------------------------
	BYTE	W96
// 015   ----------------------------------------
	BYTE	W96
// 016   ----------------------------------------
	BYTE	W96
// 017   ----------------------------------------
	BYTE	W96
// 018   ----------------------------------------
	BYTE	W96
// 019   ----------------------------------------
tcox_noecho_5_019:
	BYTE	W72
	BYTE		N12     An3   v116
	BYTE	W12
	BYTE		N24   
	BYTE	W12
	BYTE	PEND
// 020   ----------------------------------------
	BYTE	W12
	BYTE		N12     Dn3 
	BYTE	W12
	BYTE		N12   
	BYTE	W12
	BYTE		        Cn3 
	BYTE	W12
	BYTE		N24     Dn3 
	BYTE	W24
	BYTE		N12   
	BYTE	W12
	BYTE		        Cn3 
	BYTE	W12
// 021   ----------------------------------------
tcox_noecho_5_021:
	BYTE		N18     Dn3   v116
	BYTE	W24
	BYTE		N24   
	BYTE	W48
	BYTE		N12     An3 
	BYTE	W12
	BYTE		N24   
	BYTE	W12
	BYTE	PEND
// 022   ----------------------------------------
	BYTE	W12
	BYTE		N12     Dn3 
	BYTE	W12
	BYTE		N12   
	BYTE	W12
	BYTE		        Cn3 
	BYTE	W12
	BYTE		N18     Fn3 
	BYTE	W18
	BYTE		N18   
	BYTE	W18
	BYTE		N60   
	BYTE	W12
// 023   ----------------------------------------
	BYTE	W60
	BYTE		N12     An3 
	BYTE	W12
	BYTE		N12   
	BYTE	W12
	BYTE		N12   
	BYTE	W12
// 024   ----------------------------------------
	BYTE		N18   
	BYTE	W18
	BYTE		N18   
	BYTE	W18
	BYTE		N18   
	BYTE	W24
	BYTE		N12     Dn3 
	BYTE	W12
	BYTE		        Cn3 
	BYTE	W12
	BYTE		N18     Dn3 
	BYTE	W12
// 025   ----------------------------------------
	BYTE	W06
	BYTE		N06     Cn3 
	BYTE	W06
	BYTE		N18     Dn3 
	BYTE	W18
	BYTE		N18   
	BYTE	W42
	BYTE		N12     An3 
	BYTE	W12
	BYTE		N24   
	BYTE	W12
// 026   ----------------------------------------
	BYTE	W12
	BYTE		N12     Dn3 
	BYTE	W12
	BYTE		N12   
	BYTE	W12
	BYTE		        Cn3 
	BYTE	W12
	BYTE		N24     An3 
	BYTE	W24
	BYTE		N36     Dn3 
	BYTE	W24
// 027   ----------------------------------------
	BYTE	W12
	BYTE		N60   
	BYTE	W60
	BYTE		N24     Gn3 
	BYTE	W24
// 028   ----------------------------------------
	BYTE		N24   
	BYTE	W24
	BYTE		N12   
	BYTE	W12
	BYTE		N36   
	BYTE	W36
	BYTE		N12     Fn3 
	BYTE	W12
	BYTE		        Gn3 
	BYTE	W12
// 029   ----------------------------------------
	BYTE		        Gs3 
	BYTE	W12
	BYTE		N12   
	BYTE	W12
	BYTE		N24     An3 
	BYTE	W24
	BYTE		N24   
	BYTE	W24
	BYTE		N12     Dn3 
	BYTE	W12
	BYTE		N12   
	BYTE	W12
// 030   ----------------------------------------
	BYTE		        Fn3 
	BYTE	W12
	BYTE		N24     Gn3 
	BYTE	W24
	BYTE		N24   
	BYTE	W24
	BYTE		        Fn3 
	BYTE	W24
	BYTE		N60     An3 
	BYTE	W12
// 031   ----------------------------------------
	BYTE	W84
	BYTE		N12     Dn3 
	BYTE	W12
// 032   ----------------------------------------
	BYTE		        Fn3 
	BYTE	W12
	BYTE		        Gn3 
	BYTE	W12
	BYTE		N12   
	BYTE	W12
	BYTE		N24   
	BYTE	W24
	BYTE		N12   
	BYTE	W12
	BYTE		        Fn3 
	BYTE	W12
	BYTE		        Gn3 
	BYTE	W12
// 033   ----------------------------------------
	BYTE		        Gs3 
	BYTE	W12
	BYTE		N12   
	BYTE	W12
	BYTE		N12   
	BYTE	W12
	BYTE		N24     An3 
	BYTE	W24
	BYTE		N12     Dn3 
	BYTE	W12
	BYTE		N12   
	BYTE	W12
	BYTE		N12   
	BYTE	W12
// 034   ----------------------------------------
	BYTE		N24     Gn3 
	BYTE	W24
	BYTE		N12   
	BYTE	W12
	BYTE		N24   
	BYTE	W24
	BYTE		        Fn3 
	BYTE	W24
	BYTE		TIE     An3 
	BYTE	W12
// 035   ----------------------------------------
	BYTE	W96
	BYTE		EOT   
// 036   ----------------------------------------
	BYTE	W96
// 037   ----------------------------------------
	BYTE	W96
// 038   ----------------------------------------
	BYTE	W96
// 039   ----------------------------------------
tcox_noecho_5_039:
	BYTE		N24     Gn3   v116
	BYTE	W24
	BYTE		N12     An3 
	BYTE	W12
	BYTE		N24     Gn3 
	BYTE	W24
	BYTE		N36     Fn3 
	BYTE	W36
	BYTE	PEND
// 040   ----------------------------------------
tcox_noecho_5_040:
	BYTE		N12     Gn3   v116
	BYTE	W12
	BYTE		N24     Fn3 
	BYTE	W24
	BYTE		        Gn3 
	BYTE	W24
	BYTE		        Fn3 
	BYTE	W24
	BYTE		TIE     An3 
	BYTE	W12
	BYTE	PEND
// 041   ----------------------------------------
	BYTE	W96
	BYTE		EOT   
// 042   ----------------------------------------
	BYTE	W96
// 043   ----------------------------------------
	BYTE	PATT
	 POIN2	tcox_noecho_5_039
// 044   ----------------------------------------
tcox_noecho_5_044:
	BYTE		N12     Gn3   v116
	BYTE	W12
	BYTE		N24     Fn3 
	BYTE	W24
	BYTE		        Gn3 
	BYTE	W24
	BYTE		        Fn3 
	BYTE	W24
	BYTE		TIE     En3 
	BYTE	W12
	BYTE	PEND
// 045   ----------------------------------------
	BYTE	W96
	BYTE		EOT   
// 046   ----------------------------------------
tcox_noecho_5_046:
	BYTE		N12     Dn3   v116
	BYTE	W12
	BYTE		N24   
	BYTE	W24
	BYTE		        An3 
	BYTE	W24
	BYTE		N12   
	BYTE	W12
	BYTE		        Fn3 
	BYTE	W12
	BYTE		N60     Dn3 
	BYTE	W12
	BYTE	PEND
// 047   ----------------------------------------
	BYTE	W96
// 048   ----------------------------------------
tcox_noecho_5_048:
	BYTE		N24     Dn3   v116
	BYTE	W24
	BYTE		N12   
	BYTE	W12
	BYTE		N24     An3 
	BYTE	W24
	BYTE		N12   
	BYTE	W12
	BYTE		N24     Fn3 
	BYTE	W24
	BYTE	PEND
// 049   ----------------------------------------
tcox_noecho_5_049:
	BYTE		N72     En3   v116
	BYTE	W72
	BYTE		N12     Cn3 
	BYTE	W12
	BYTE		        Dn3 
	BYTE	W12
	BYTE	PEND
// 050   ----------------------------------------
tcox_noecho_5_050:
	BYTE	W24
	BYTE		N12     Fn3   v116
	BYTE	W12
	BYTE		N36     En3 
	BYTE	W36
	BYTE		N12     Cn3 
	BYTE	W12
	BYTE		        Dn3 
	BYTE	W12
	BYTE	PEND
// 051   ----------------------------------------
	BYTE	W24
	BYTE		N72     An3 
	BYTE	W72
// 052   ----------------------------------------
	BYTE	W96
// 053   ----------------------------------------
	BYTE	W96
// 054   ----------------------------------------
	BYTE	W96
// 055   ----------------------------------------
	BYTE	W96
// 056   ----------------------------------------
	BYTE	W96
// 057   ----------------------------------------
	BYTE	W96
// 058   ----------------------------------------
	BYTE	W96
// 059   ----------------------------------------
	BYTE	W96
// 060   ----------------------------------------
	BYTE	W96
// 061   ----------------------------------------
	BYTE	W96
// 062   ----------------------------------------
	BYTE	W96
// 063   ----------------------------------------
	BYTE	W96
// 064   ----------------------------------------
	BYTE	W96
// 065   ----------------------------------------
	BYTE	W96
// 066   ----------------------------------------
	BYTE	W96
// 067   ----------------------------------------
	BYTE	PATT
	 POIN2	tcox_noecho_5_019
// 068   ----------------------------------------
	BYTE	W12
	BYTE		N12     Dn3   v116
	BYTE	W12
	BYTE		N12   
	BYTE	W12
	BYTE		        Cn3 
	BYTE	W12
	BYTE		        Dn3 
	BYTE	W12
	BYTE		        Cn3 
	BYTE	W12
	BYTE		        Dn3 
	BYTE	W12
	BYTE		        Cn3 
	BYTE	W12
// 069   ----------------------------------------
	BYTE	PATT
	 POIN2	tcox_noecho_5_021
// 070   ----------------------------------------
	BYTE	W12
	BYTE		N12     Dn3   v116
	BYTE	W12
	BYTE		N12   
	BYTE	W12
	BYTE		        Cn3 
	BYTE	W12
	BYTE		N18     Fn3 
	BYTE	W18
	BYTE		N18   
	BYTE	W18
	BYTE		N36   
	BYTE	W12
// 071   ----------------------------------------
	BYTE	W60
	BYTE		N12     Gs3 
	BYTE	W12
	BYTE		N24   
	BYTE	W24
// 072   ----------------------------------------
	BYTE		N18     An3 
	BYTE	W18
	BYTE		N18   
	BYTE	W18
	BYTE		N24   
	BYTE	W24
	BYTE		N12     Dn3 
	BYTE	W12
	BYTE		        Cn3 
	BYTE	W12
	BYTE		        Dn3 
	BYTE	W12
// 073   ----------------------------------------
	BYTE		        Cn3 
	BYTE	W12
	BYTE		        Dn3 
	BYTE	W12
	BYTE		N24   
	BYTE	W48
	BYTE		N12     An3 
	BYTE	W12
	BYTE		N24   
	BYTE	W12
// 074   ----------------------------------------
	BYTE	W12
	BYTE		N12     Dn3 
	BYTE	W12
	BYTE		N12   
	BYTE	W12
	BYTE		        Cn3 
	BYTE	W12
	BYTE		N24     An3 
	BYTE	W24
	BYTE		        Dn3 
	BYTE	W24
// 075   ----------------------------------------
	BYTE		N72   
	BYTE	W72
	BYTE		N24     Gn3 
	BYTE	W24
// 076   ----------------------------------------
	BYTE		N12     Fn3 
	BYTE	W12
	BYTE		        Gn3 
	BYTE	W24
	BYTE		N24   
	BYTE	W24
	BYTE		N12   
	BYTE	W12
	BYTE		        Fn3 
	BYTE	W12
	BYTE		        Gn3 
	BYTE	W12
// 077   ----------------------------------------
	BYTE		N24     Gs3 
	BYTE	W24
	BYTE		        An3 
	BYTE	W24
	BYTE		N24   
	BYTE	W24
	BYTE		N12     Dn3 
	BYTE	W12
	BYTE		N12   
	BYTE	W12
// 078   ----------------------------------------
	BYTE		        Fn3 
	BYTE	W12
	BYTE		        Gn3 
	BYTE	W24
	BYTE		N24   
	BYTE	W24
	BYTE		        Fn3 
	BYTE	W24
	BYTE		TIE     An3 
	BYTE	W12
// 079   ----------------------------------------
	BYTE	W96
	BYTE		EOT   
// 080   ----------------------------------------
	BYTE		N24     Gn3 
	BYTE	W24
	BYTE		N12   
	BYTE	W12
	BYTE		N24   
	BYTE	W24
	BYTE		N12   
	BYTE	W12
	BYTE		        Fn3 
	BYTE	W12
	BYTE		        Gn3 
	BYTE	W12
// 081   ----------------------------------------
	BYTE		        An2 
	BYTE	W12
	BYTE		        Gs2 
	BYTE	W12
	BYTE		        Fn2 
	BYTE	W12
	BYTE		N36     Dn3 
	BYTE	W36
	BYTE		N24   
	BYTE	W24
// 082   ----------------------------------------
	BYTE		N12     Fn3 
	BYTE	W12
	BYTE		N12   
	BYTE	W24
	BYTE		N24     Cn4 
	BYTE	W24
	BYTE		        Gn3 
	BYTE	W24
	BYTE		TIE     An3 
	BYTE	W12
// 083   ----------------------------------------
	BYTE	W96
	BYTE		EOT   
// 084   ----------------------------------------
	BYTE	W96
// 085   ----------------------------------------
	BYTE	W96
// 086   ----------------------------------------
	BYTE	PATT
	 POIN2	tcox_noecho_5_039
// 087   ----------------------------------------
	BYTE	PATT
	 POIN2	tcox_noecho_5_040
// 088   ----------------------------------------
	BYTE	W96
	BYTE		EOT     An3 
// 089   ----------------------------------------
	BYTE	W96
// 090   ----------------------------------------
	BYTE	PATT
	 POIN2	tcox_noecho_5_039
// 091   ----------------------------------------
	BYTE	PATT
	 POIN2	tcox_noecho_5_044
// 092   ----------------------------------------
	BYTE	W96
	BYTE		EOT     En3 
// 093   ----------------------------------------
	BYTE	PATT
	 POIN2	tcox_noecho_5_046
// 094   ----------------------------------------
	BYTE	W96
// 095   ----------------------------------------
	BYTE	PATT
	 POIN2	tcox_noecho_5_048
// 096   ----------------------------------------
	BYTE	PATT
	 POIN2	tcox_noecho_5_049
// 097   ----------------------------------------
	BYTE	PATT
	 POIN2	tcox_noecho_5_050
// 098   ----------------------------------------
	BYTE	W96
// 099   ----------------------------------------
	BYTE	W96
	BYTE	GoTo
	 POIN2	tcox_noecho_5_B1
tcox_noecho_5_B2:
// 100   ----------------------------------------
	BYTE	W96
// 101   ----------------------------------------
	BYTE		N12     Gn3   v116
	BYTE	W12
	BYTE		N24     An3 
	BYTE	W24
	BYTE		        Gn3 
	BYTE	W24
	BYTE		N36     Fn3 
	BYTE	W36
// 102   ----------------------------------------
	BYTE		N12     Gn3 
	BYTE	W12
	BYTE		N24     Fn3 
	BYTE	W24
	BYTE		        Gn3 
	BYTE	W24
	BYTE		        Fn3 
	BYTE	W24
	BYTE		N60     An3 
	BYTE	W12
// 103   ----------------------------------------
	BYTE	W96
// 104   ----------------------------------------
	BYTE	W96
// 105   ----------------------------------------
	BYTE		N18     Gn3 
	BYTE	W18
	BYTE		        An3 
	BYTE	W18
	BYTE		N24     Gn3 
	BYTE	W24
	BYTE		N36     Fn3 
	BYTE	W36
// 106   ----------------------------------------
	BYTE		N18     Gn3 
	BYTE	W18
	BYTE		        Fn3 
	BYTE	W18
	BYTE		N24     Gn3 
	BYTE	W24
	BYTE		        Fn3 
	BYTE	W24
	BYTE		TIE     En3 
	BYTE	W12
// 107   ----------------------------------------
	BYTE	W96
	BYTE		EOT   
// 108   ----------------------------------------
	BYTE	PATT
	 POIN2	tcox_noecho_5_046
// 109   ----------------------------------------
	BYTE	W96
// 110   ----------------------------------------
	BYTE		N12     Dn3   v116
	BYTE	W12
	BYTE		N24   
	BYTE	W24
	BYTE		        An3 
	BYTE	W24
	BYTE		N12   
	BYTE	W12
	BYTE		N24     Fn3 
	BYTE	W24
// 111   ----------------------------------------
	BYTE	PATT
	 POIN2	tcox_noecho_5_049
// 112   ----------------------------------------
	BYTE	W24
	BYTE		N12     Fn3   v116
	BYTE	W12
	BYTE		        En3 
	BYTE	W36
	BYTE		        Cn3 
	BYTE	W24
// 113   ----------------------------------------
	BYTE	W96
// 114   ----------------------------------------
	BYTE	W96
// 115   ----------------------------------------
	BYTE	FINE

//**************** Track 6 (Midi-Chn.8) ****************//

tcox_noecho_6:
	BYTE	KEYSH   tcox_noecho_key+0
// 000   ----------------------------------------
	BYTE		VOICE   103
	BYTE		VOL     63*tcox_noecho_mvl/mxv
	BYTE		PAN     c_v+32
	BYTE	W96
// 001   ----------------------------------------
	BYTE	W96
// 002   ----------------------------------------
	BYTE	W96
// 003   ----------------------------------------
	BYTE	W96
// 004   ----------------------------------------
	BYTE	W96
// 005   ----------------------------------------
	BYTE	W96
// 006   ----------------------------------------
	BYTE	W96
// 007   ----------------------------------------
	BYTE	W96
tcox_noecho_6_B1:
// 008   ----------------------------------------
tcox_noecho_6_008:
	BYTE	W36
	BYTE		N60     Cn3   v104
	BYTE		N60     Fn3 
	BYTE	W60
	BYTE	PEND
// 009   ----------------------------------------
tcox_noecho_6_009:
	BYTE	W36
	BYTE		N60     Dn3   v104
	BYTE		N60     Gn3 
	BYTE	W60
	BYTE	PEND
// 010   ----------------------------------------
tcox_noecho_6_010:
	BYTE	W36
	BYTE		N24     Ds3   v104
	BYTE		N24     Gs3 
	BYTE	W24
	BYTE		N12     Gn3 
	BYTE	W12
	BYTE		        Fn3 
	BYTE	W12
	BYTE		        Dn3 
	BYTE	W12
	BYTE	PEND
// 011   ----------------------------------------
	BYTE	W96
// 012   ----------------------------------------
	BYTE	PATT
	 POIN2	tcox_noecho_6_008
// 013   ----------------------------------------
	BYTE	PATT
	 POIN2	tcox_noecho_6_009
// 014   ----------------------------------------
	BYTE	PATT
	 POIN2	tcox_noecho_6_010
// 015   ----------------------------------------
	BYTE	W96
// 016   ----------------------------------------
	BYTE	W96
// 017   ----------------------------------------
	BYTE	W96
// 018   ----------------------------------------
	BYTE	W96
// 019   ----------------------------------------
	BYTE	W96
// 020   ----------------------------------------
	BYTE	PATT
	 POIN2	tcox_noecho_6_008
// 021   ----------------------------------------
	BYTE	PATT
	 POIN2	tcox_noecho_6_009
// 022   ----------------------------------------
	BYTE	PATT
	 POIN2	tcox_noecho_6_010
// 023   ----------------------------------------
	BYTE	W96
// 024   ----------------------------------------
	BYTE	PATT
	 POIN2	tcox_noecho_6_008
// 025   ----------------------------------------
	BYTE	PATT
	 POIN2	tcox_noecho_6_009
// 026   ----------------------------------------
	BYTE	PATT
	 POIN2	tcox_noecho_6_010
// 027   ----------------------------------------
	BYTE	W96
// 028   ----------------------------------------
	BYTE	W96
// 029   ----------------------------------------
	BYTE	W96
// 030   ----------------------------------------
	BYTE	W96
// 031   ----------------------------------------
	BYTE	W96
// 032   ----------------------------------------
	BYTE	W96
// 033   ----------------------------------------
	BYTE	W96
// 034   ----------------------------------------
	BYTE	W96
// 035   ----------------------------------------
	BYTE	W96
// 036   ----------------------------------------
	BYTE	W96
// 037   ----------------------------------------
tcox_noecho_6_037:
	BYTE		N12     Gn3   v104
	BYTE		N12     Dn4 
	BYTE		N12     Gn4 
	BYTE	W12
	BYTE		        Fn3 
	BYTE		N12     Cn4 
	BYTE		N12     Fn4 
	BYTE	W12
	BYTE		        Gn3 
	BYTE		N12     Dn4 
	BYTE		N12     Gn4 
	BYTE	W12
	BYTE		N24     Gs3 
	BYTE		N24     Ds4 
	BYTE		N24     Gs4 
	BYTE	W24
	BYTE		N12     Gn3 
	BYTE		N12     Dn4 
	BYTE		N12     Gn4 
	BYTE	W12
	BYTE		        Dn3 
	BYTE		N12     An3 
	BYTE		N12     Dn4 
	BYTE	W12
	BYTE		        Cn3 
	BYTE		N12     Gn3 
	BYTE		N12     Cn4 
	BYTE	W12
	BYTE	PEND
// 038   ----------------------------------------
tcox_noecho_6_038:
	BYTE		N48     Dn4   v104
	BYTE	W48
	BYTE		N24     Fn4 
	BYTE	W24
	BYTE		        En4 
	BYTE	W24
	BYTE	PEND
// 039   ----------------------------------------
tcox_noecho_6_039:
	BYTE		N24     Cn4   v104
	BYTE	W24
	BYTE		N12     Gn3 
	BYTE	W12
	BYTE		N24     Fn3 
	BYTE	W24
	BYTE		N36     En3 
	BYTE	W36
	BYTE	PEND
// 040   ----------------------------------------
	BYTE	W96
// 041   ----------------------------------------
	BYTE	W96
// 042   ----------------------------------------
	BYTE	PATT
	 POIN2	tcox_noecho_6_038
// 043   ----------------------------------------
	BYTE	PATT
	 POIN2	tcox_noecho_6_039
// 044   ----------------------------------------
	BYTE	W96
// 045   ----------------------------------------
	BYTE	W96
// 046   ----------------------------------------
	BYTE	PATT
	 POIN2	tcox_noecho_6_038
// 047   ----------------------------------------
	BYTE	PATT
	 POIN2	tcox_noecho_6_039
// 048   ----------------------------------------
	BYTE	W96
// 049   ----------------------------------------
	BYTE	W96
// 050   ----------------------------------------
	BYTE	W96
// 051   ----------------------------------------
	BYTE	W96
// 052   ----------------------------------------
	BYTE	W96
// 053   ----------------------------------------
	BYTE	W96
// 054   ----------------------------------------
	BYTE	W96
// 055   ----------------------------------------
	BYTE	W96
// 056   ----------------------------------------
	BYTE	W96
// 057   ----------------------------------------
	BYTE	W96
// 058   ----------------------------------------
	BYTE	W96
// 059   ----------------------------------------
	BYTE	W96
// 060   ----------------------------------------
	BYTE	W96
// 061   ----------------------------------------
	BYTE	W96
// 062   ----------------------------------------
	BYTE	W96
// 063   ----------------------------------------
	BYTE	W96
// 064   ----------------------------------------
	BYTE	W96
// 065   ----------------------------------------
	BYTE	W96
// 066   ----------------------------------------
	BYTE	W96
// 067   ----------------------------------------
	BYTE	W96
// 068   ----------------------------------------
	BYTE	PATT
	 POIN2	tcox_noecho_6_008
// 069   ----------------------------------------
	BYTE	PATT
	 POIN2	tcox_noecho_6_009
// 070   ----------------------------------------
	BYTE	PATT
	 POIN2	tcox_noecho_6_010
// 071   ----------------------------------------
	BYTE	W96
// 072   ----------------------------------------
	BYTE	PATT
	 POIN2	tcox_noecho_6_008
// 073   ----------------------------------------
	BYTE	PATT
	 POIN2	tcox_noecho_6_009
// 074   ----------------------------------------
	BYTE	PATT
	 POIN2	tcox_noecho_6_010
// 075   ----------------------------------------
	BYTE	W96
// 076   ----------------------------------------
	BYTE	W96
// 077   ----------------------------------------
	BYTE	W96
// 078   ----------------------------------------
	BYTE	W96
// 079   ----------------------------------------
	BYTE	W96
// 080   ----------------------------------------
	BYTE	W96
// 081   ----------------------------------------
	BYTE	W96
// 082   ----------------------------------------
	BYTE	W96
// 083   ----------------------------------------
	BYTE	W96
// 084   ----------------------------------------
	BYTE	PATT
	 POIN2	tcox_noecho_6_037
// 085   ----------------------------------------
	BYTE	PATT
	 POIN2	tcox_noecho_6_038
// 086   ----------------------------------------
	BYTE	PATT
	 POIN2	tcox_noecho_6_039
// 087   ----------------------------------------
	BYTE	W96
// 088   ----------------------------------------
	BYTE	W96
// 089   ----------------------------------------
	BYTE	PATT
	 POIN2	tcox_noecho_6_038
// 090   ----------------------------------------
	BYTE	PATT
	 POIN2	tcox_noecho_6_039
// 091   ----------------------------------------
	BYTE	W96
// 092   ----------------------------------------
	BYTE	W96
// 093   ----------------------------------------
	BYTE	PATT
	 POIN2	tcox_noecho_6_038
// 094   ----------------------------------------
	BYTE	PATT
	 POIN2	tcox_noecho_6_039
// 095   ----------------------------------------
	BYTE	W96
// 096   ----------------------------------------
	BYTE	W96
// 097   ----------------------------------------
	BYTE	W96
// 098   ----------------------------------------
	BYTE	W96
// 099   ----------------------------------------
	BYTE	PATT
	 POIN2	tcox_noecho_6_037
	BYTE	GoTo
	 POIN2	tcox_noecho_6_B1
tcox_noecho_6_B2:
// 100   ----------------------------------------
	BYTE	PATT
	 POIN2	tcox_noecho_6_038
// 101   ----------------------------------------
	BYTE	PATT
	 POIN2	tcox_noecho_6_039
// 102   ----------------------------------------
	BYTE	W96
// 103   ----------------------------------------
	BYTE	W96
// 104   ----------------------------------------
	BYTE	PATT
	 POIN2	tcox_noecho_6_038
// 105   ----------------------------------------
	BYTE	PATT
	 POIN2	tcox_noecho_6_039
// 106   ----------------------------------------
	BYTE	W96
// 107   ----------------------------------------
	BYTE	W96
// 108   ----------------------------------------
	BYTE	PATT
	 POIN2	tcox_noecho_6_038
// 109   ----------------------------------------
	BYTE	PATT
	 POIN2	tcox_noecho_6_039
// 110   ----------------------------------------
	BYTE	W96
// 111   ----------------------------------------
	BYTE	W96
// 112   ----------------------------------------
	BYTE	W96
// 113   ----------------------------------------
	BYTE	W96
// 114   ----------------------------------------
	BYTE	W96
// 115   ----------------------------------------
	BYTE	FINE

//**************** Track 7 (Midi-Chn.11) ****************//

tcox_noecho_7:
	BYTE	KEYSH   tcox_noecho_key+0
// 000   ----------------------------------------
	BYTE		VOICE   116
	BYTE		VOL     95*tcox_noecho_mvl/mxv
	BYTE	W96
// 001   ----------------------------------------
	BYTE	W96
// 002   ----------------------------------------
	BYTE	W96
// 003   ----------------------------------------
	BYTE	W96
// 004   ----------------------------------------
	BYTE	W96
// 005   ----------------------------------------
	BYTE	W96
// 006   ----------------------------------------
	BYTE	W96
// 007   ----------------------------------------
	BYTE	W96
tcox_noecho_7_B1:
// 008   ----------------------------------------
	BYTE	W96
// 009   ----------------------------------------
	BYTE	W96
// 010   ----------------------------------------
	BYTE	W96
// 011   ----------------------------------------
	BYTE	W96
// 012   ----------------------------------------
	BYTE	W96
// 013   ----------------------------------------
	BYTE	W96
// 014   ----------------------------------------
	BYTE	W96
// 015   ----------------------------------------
	BYTE	W96
// 016   ----------------------------------------
	BYTE	W96
// 017   ----------------------------------------
	BYTE	W96
// 018   ----------------------------------------
	BYTE	W96
// 019   ----------------------------------------
	BYTE	W96
// 020   ----------------------------------------
	BYTE	W96
// 021   ----------------------------------------
	BYTE	W96
// 022   ----------------------------------------
	BYTE	W96
// 023   ----------------------------------------
	BYTE	W96
// 024   ----------------------------------------
	BYTE	W96
// 025   ----------------------------------------
	BYTE	W96
// 026   ----------------------------------------
	BYTE	W96
// 027   ----------------------------------------
	BYTE	W96
// 028   ----------------------------------------
	BYTE	W96
// 029   ----------------------------------------
	BYTE	W96
// 030   ----------------------------------------
	BYTE	W96
// 031   ----------------------------------------
	BYTE	W96
// 032   ----------------------------------------
	BYTE	W96
// 033   ----------------------------------------
	BYTE	W96
// 034   ----------------------------------------
	BYTE	W96
// 035   ----------------------------------------
	BYTE	W96
// 036   ----------------------------------------
	BYTE	W96
// 037   ----------------------------------------
	BYTE	W96
// 038   ----------------------------------------
tcox_noecho_7_038:
	BYTE		N24     Dn2   v104
	BYTE		N24     An2 
	BYTE		N24     Dn3 
	BYTE	W24
	BYTE		        Dn2 
	BYTE		N24     An2 
	BYTE		N24     Dn3 
	BYTE	W24
	BYTE		        Dn2 
	BYTE		N24     An2 
	BYTE		N24     Dn3 
	BYTE	W24
	BYTE		        Dn2 
	BYTE		N24     An2 
	BYTE		N24     Dn3 
	BYTE	W24
	BYTE	PEND
// 039   ----------------------------------------
	BYTE	W96
// 040   ----------------------------------------
	BYTE	W96
// 041   ----------------------------------------
	BYTE	W96
// 042   ----------------------------------------
	BYTE	PATT
	 POIN2	tcox_noecho_7_038
// 043   ----------------------------------------
	BYTE	W96
// 044   ----------------------------------------
	BYTE	W96
// 045   ----------------------------------------
	BYTE	W96
// 046   ----------------------------------------
	BYTE	W96
// 047   ----------------------------------------
	BYTE	W96
// 048   ----------------------------------------
	BYTE	W96
// 049   ----------------------------------------
	BYTE	W96
// 050   ----------------------------------------
	BYTE	W96
// 051   ----------------------------------------
	BYTE	W96
// 052   ----------------------------------------
	BYTE	W96
// 053   ----------------------------------------
	BYTE	W96
// 054   ----------------------------------------
	BYTE	W96
// 055   ----------------------------------------
	BYTE	W96
// 056   ----------------------------------------
	BYTE	W96
// 057   ----------------------------------------
	BYTE	W96
// 058   ----------------------------------------
	BYTE	W96
// 059   ----------------------------------------
	BYTE	W96
// 060   ----------------------------------------
	BYTE	W96
// 061   ----------------------------------------
	BYTE	W96
// 062   ----------------------------------------
	BYTE	W96
// 063   ----------------------------------------
	BYTE	W96
// 064   ----------------------------------------
	BYTE	W96
// 065   ----------------------------------------
	BYTE	W96
// 066   ----------------------------------------
	BYTE	W96
// 067   ----------------------------------------
	BYTE	W96
// 068   ----------------------------------------
	BYTE	W96
// 069   ----------------------------------------
	BYTE	W96
// 070   ----------------------------------------
	BYTE	W96
// 071   ----------------------------------------
	BYTE	W96
// 072   ----------------------------------------
	BYTE	W96
// 073   ----------------------------------------
	BYTE	W96
// 074   ----------------------------------------
	BYTE	W96
// 075   ----------------------------------------
	BYTE	W96
// 076   ----------------------------------------
	BYTE	W96
// 077   ----------------------------------------
	BYTE	W96
// 078   ----------------------------------------
	BYTE	W96
// 079   ----------------------------------------
	BYTE	W96
// 080   ----------------------------------------
	BYTE	W96
// 081   ----------------------------------------
	BYTE	W96
// 082   ----------------------------------------
	BYTE	W96
// 083   ----------------------------------------
	BYTE	W96
// 084   ----------------------------------------
	BYTE	W96
// 085   ----------------------------------------
	BYTE	PATT
	 POIN2	tcox_noecho_7_038
// 086   ----------------------------------------
	BYTE	W96
// 087   ----------------------------------------
	BYTE	W96
// 088   ----------------------------------------
	BYTE	W96
// 089   ----------------------------------------
	BYTE	PATT
	 POIN2	tcox_noecho_7_038
// 090   ----------------------------------------
	BYTE	W96
// 091   ----------------------------------------
	BYTE	W96
// 092   ----------------------------------------
	BYTE	W96
// 093   ----------------------------------------
	BYTE	W96
// 094   ----------------------------------------
	BYTE	W96
// 095   ----------------------------------------
	BYTE	W96
// 096   ----------------------------------------
	BYTE	W96
// 097   ----------------------------------------
	BYTE	W96
// 098   ----------------------------------------
	BYTE	W96
// 099   ----------------------------------------
	BYTE	W96
	BYTE	GoTo
	 POIN2	tcox_noecho_7_B1
tcox_noecho_7_B2:
// 100   ----------------------------------------
	BYTE	PATT
	 POIN2	tcox_noecho_7_038
// 101   ----------------------------------------
	BYTE	W96
// 102   ----------------------------------------
	BYTE	W96
// 103   ----------------------------------------
	BYTE	W96
// 104   ----------------------------------------
	BYTE	PATT
	 POIN2	tcox_noecho_7_038
// 105   ----------------------------------------
	BYTE	W96
// 106   ----------------------------------------
	BYTE	W96
// 107   ----------------------------------------
	BYTE	W96
// 108   ----------------------------------------
	BYTE	W96
// 109   ----------------------------------------
	BYTE		N24     Dn3   v104
	BYTE		N24     An3 
	BYTE		N24     Dn4 
	BYTE	W24
	BYTE		        Dn3 
	BYTE		N24     An3 
	BYTE		N24     Dn4 
	BYTE	W24
	BYTE		        Dn3 
	BYTE		N24     An3 
	BYTE		N24     Dn4 
	BYTE	W24
	BYTE		        Dn3 
	BYTE		N24     An3 
	BYTE		N24     Dn4 
	BYTE	W24
// 110   ----------------------------------------
	BYTE	W96
// 111   ----------------------------------------
	BYTE	W96
// 112   ----------------------------------------
	BYTE	W96
// 113   ----------------------------------------
	BYTE		N96     Dn0 
	BYTE		N96     Dn1 
	BYTE	W96
// 114   ----------------------------------------
	BYTE		N15     Dn2 
	BYTE		N15     An2 
	BYTE		N15     Dn3 
	BYTE	W15
	BYTE		        Dn2 
	BYTE		N15     An2 
	BYTE		N15     Dn3 
	BYTE	W15
	BYTE		        Dn2 
	BYTE		N15     An2 
	BYTE		N15     Dn3 
	BYTE	W15
	BYTE		        Dn2 
	BYTE		N15     An2 
	BYTE		N15     Dn3 
	BYTE	W36
	BYTE	W03
	BYTE		N12     Dn2   v004
	BYTE	W12
// 115   ----------------------------------------
	BYTE	FINE

//**************** Track 8 (Midi-Chn.12) ****************//

tcox_noecho_8:
	BYTE	KEYSH   tcox_noecho_key+0
// 000   ----------------------------------------
	BYTE		VOICE   28
	BYTE		VOL     79*tcox_noecho_mvl/mxv
	BYTE	W96
// 001   ----------------------------------------
	BYTE	W96
// 002   ----------------------------------------
	BYTE	W96
// 003   ----------------------------------------
	BYTE	W96
// 004   ----------------------------------------
	BYTE	W96
// 005   ----------------------------------------
	BYTE	W96
// 006   ----------------------------------------
	BYTE	W96
// 007   ----------------------------------------
	BYTE	W96
tcox_noecho_8_B1:
// 008   ----------------------------------------
	BYTE	W96
// 009   ----------------------------------------
	BYTE	W96
// 010   ----------------------------------------
	BYTE	W96
// 011   ----------------------------------------
	BYTE	W96
// 012   ----------------------------------------
	BYTE	W96
// 013   ----------------------------------------
	BYTE	W96
// 014   ----------------------------------------
	BYTE	W96
// 015   ----------------------------------------
	BYTE	W96
// 016   ----------------------------------------
	BYTE	W96
// 017   ----------------------------------------
	BYTE	W96
// 018   ----------------------------------------
	BYTE	W96
// 019   ----------------------------------------
	BYTE	W96
// 020   ----------------------------------------
	BYTE	W96
// 021   ----------------------------------------
	BYTE	W96
// 022   ----------------------------------------
	BYTE	W96
// 023   ----------------------------------------
	BYTE	W96
// 024   ----------------------------------------
	BYTE	W96
// 025   ----------------------------------------
	BYTE	W96
// 026   ----------------------------------------
	BYTE	W96
// 027   ----------------------------------------
	BYTE	W96
// 028   ----------------------------------------
	BYTE	W96
// 029   ----------------------------------------
	BYTE	W96
// 030   ----------------------------------------
	BYTE	W96
// 031   ----------------------------------------
	BYTE	W96
// 032   ----------------------------------------
	BYTE	W96
// 033   ----------------------------------------
	BYTE	W96
// 034   ----------------------------------------
	BYTE	W96
// 035   ----------------------------------------
	BYTE	W96
// 036   ----------------------------------------
	BYTE	W96
// 037   ----------------------------------------
	BYTE	W96
// 038   ----------------------------------------
	BYTE	W96
// 039   ----------------------------------------
	BYTE	W96
// 040   ----------------------------------------
	BYTE	W96
// 041   ----------------------------------------
	BYTE	W96
// 042   ----------------------------------------
	BYTE	W96
// 043   ----------------------------------------
	BYTE	W96
// 044   ----------------------------------------
	BYTE	W96
// 045   ----------------------------------------
	BYTE	W96
// 046   ----------------------------------------
	BYTE	W96
// 047   ----------------------------------------
	BYTE	W96
// 048   ----------------------------------------
	BYTE	W96
// 049   ----------------------------------------
	BYTE	W96
// 050   ----------------------------------------
	BYTE	W96
// 051   ----------------------------------------
	BYTE	W96
// 052   ----------------------------------------
	BYTE	W96
// 053   ----------------------------------------
	BYTE	W96
// 054   ----------------------------------------
	BYTE	W96
// 055   ----------------------------------------
	BYTE	W96
// 056   ----------------------------------------
	BYTE	W96
// 057   ----------------------------------------
	BYTE	W96
// 058   ----------------------------------------
	BYTE	W96
// 059   ----------------------------------------
	BYTE	W96
// 060   ----------------------------------------
tcox_noecho_8_060:
	BYTE		N06     Dn1   v104
	BYTE	W12
	BYTE		N06   
	BYTE	W12
	BYTE		N06   
	BYTE	W12
	BYTE		        Cn2 
	BYTE		N06     Fn2 
	BYTE	W12
	BYTE		        Cn2 
	BYTE		N06     Fn2 
	BYTE	W12
	BYTE		        Cn2 
	BYTE		N06     Fn2 
	BYTE	W12
	BYTE		        Cn2 
	BYTE		N06     Fn2 
	BYTE	W12
	BYTE		        Cn2 
	BYTE		N06     Fn2 
	BYTE	W12
	BYTE	PEND
// 061   ----------------------------------------
tcox_noecho_8_061:
	BYTE		N06     Dn1   v104
	BYTE	W12
	BYTE		N06   
	BYTE	W12
	BYTE		N06   
	BYTE	W12
	BYTE		        Dn2 
	BYTE		N06     Gn2 
	BYTE	W12
	BYTE		        Dn2 
	BYTE		N06     Gn2 
	BYTE	W12
	BYTE		        Dn2 
	BYTE		N06     Gn2 
	BYTE	W12
	BYTE		        Dn2 
	BYTE		N06     Gn2 
	BYTE	W12
	BYTE		        Dn2 
	BYTE		N06     Gn2 
	BYTE	W12
	BYTE	PEND
// 062   ----------------------------------------
tcox_noecho_8_062:
	BYTE		N06     Dn1   v104
	BYTE	W12
	BYTE		N06   
	BYTE	W12
	BYTE		N06   
	BYTE	W12
	BYTE		        Ds2 
	BYTE		N06     Gs2 
	BYTE	W12
	BYTE		        Ds2 
	BYTE		N06     Gs2 
	BYTE	W12
	BYTE		        Dn2 
	BYTE		N06     Gn2 
	BYTE	W12
	BYTE		        Cn2 
	BYTE		N06     Fn2 
	BYTE	W12
	BYTE		        An1 
	BYTE		N06     Dn2 
	BYTE	W12
	BYTE	PEND
// 063   ----------------------------------------
tcox_noecho_8_063:
	BYTE		N06     Dn1   v104
	BYTE	W12
	BYTE		N06   
	BYTE	W12
	BYTE		N06   
	BYTE	W12
	BYTE		        An1 
	BYTE		N06     Dn2 
	BYTE	W12
	BYTE		        An1 
	BYTE		N06     Dn2 
	BYTE	W12
	BYTE		        An1 
	BYTE		N06     Dn2 
	BYTE	W12
	BYTE		        An1 
	BYTE		N06     Dn2 
	BYTE	W12
	BYTE		        An1 
	BYTE		N06     Dn2 
	BYTE	W12
	BYTE	PEND
// 064   ----------------------------------------
	BYTE	PATT
	 POIN2	tcox_noecho_8_060
// 065   ----------------------------------------
	BYTE	PATT
	 POIN2	tcox_noecho_8_061
// 066   ----------------------------------------
	BYTE	PATT
	 POIN2	tcox_noecho_8_062
// 067   ----------------------------------------
	BYTE	PATT
	 POIN2	tcox_noecho_8_063
// 068   ----------------------------------------
	BYTE	W96
// 069   ----------------------------------------
	BYTE	W96
// 070   ----------------------------------------
	BYTE	W96
// 071   ----------------------------------------
	BYTE	W96
// 072   ----------------------------------------
	BYTE	W96
// 073   ----------------------------------------
	BYTE	W96
// 074   ----------------------------------------
	BYTE	W96
// 075   ----------------------------------------
	BYTE	W96
// 076   ----------------------------------------
	BYTE	W96
// 077   ----------------------------------------
	BYTE	W96
// 078   ----------------------------------------
	BYTE	W96
// 079   ----------------------------------------
	BYTE	W96
// 080   ----------------------------------------
	BYTE	W96
// 081   ----------------------------------------
	BYTE	W96
// 082   ----------------------------------------
	BYTE	W96
// 083   ----------------------------------------
	BYTE	W96
// 084   ----------------------------------------
	BYTE	W96
// 085   ----------------------------------------
	BYTE	W96
// 086   ----------------------------------------
	BYTE	W96
// 087   ----------------------------------------
	BYTE	W96
// 088   ----------------------------------------
	BYTE	W96
// 089   ----------------------------------------
	BYTE	W96
// 090   ----------------------------------------
	BYTE	W96
// 091   ----------------------------------------
	BYTE	W96
// 092   ----------------------------------------
	BYTE	W96
// 093   ----------------------------------------
	BYTE	W96
// 094   ----------------------------------------
	BYTE	W96
// 095   ----------------------------------------
	BYTE	W96
// 096   ----------------------------------------
	BYTE	W96
// 097   ----------------------------------------
	BYTE	W96
// 098   ----------------------------------------
	BYTE	W96
// 099   ----------------------------------------
	BYTE	W96
	BYTE	GoTo
	 POIN2	tcox_noecho_8_B1
tcox_noecho_8_B2:
// 100   ----------------------------------------
	BYTE	W96
// 101   ----------------------------------------
	BYTE	W96
// 102   ----------------------------------------
	BYTE	W96
// 103   ----------------------------------------
	BYTE	W96
// 104   ----------------------------------------
	BYTE	W96
// 105   ----------------------------------------
	BYTE	W96
// 106   ----------------------------------------
	BYTE	W96
// 107   ----------------------------------------
	BYTE	W96
// 108   ----------------------------------------
	BYTE	W96
// 109   ----------------------------------------
	BYTE	W96
// 110   ----------------------------------------
	BYTE	W96
// 111   ----------------------------------------
	BYTE	W96
// 112   ----------------------------------------
	BYTE	W96
// 113   ----------------------------------------
	BYTE	W96
// 114   ----------------------------------------
	BYTE	W96
// 115   ----------------------------------------
	BYTE	FINE

//**************** Track 9 (Midi-Chn.13) ****************//

tcox_noecho_9:
	BYTE	KEYSH   tcox_noecho_key+0
// 000   ----------------------------------------
	BYTE		VOICE   63
	BYTE		VOL     52*tcox_noecho_mvl/mxv
	BYTE	W96
// 001   ----------------------------------------
	BYTE	W96
// 002   ----------------------------------------
	BYTE	W96
// 003   ----------------------------------------
	BYTE	W96
// 004   ----------------------------------------
	BYTE	W96
// 005   ----------------------------------------
	BYTE	W96
// 006   ----------------------------------------
	BYTE	W96
// 007   ----------------------------------------
	BYTE	W96
tcox_noecho_9_B1:
// 008   ----------------------------------------
	BYTE	W96
// 009   ----------------------------------------
	BYTE	W96
// 010   ----------------------------------------
	BYTE	W96
// 011   ----------------------------------------
	BYTE	W96
// 012   ----------------------------------------
	BYTE	W96
// 013   ----------------------------------------
	BYTE	W96
// 014   ----------------------------------------
	BYTE	W96
// 015   ----------------------------------------
	BYTE	W96
// 016   ----------------------------------------
	BYTE	W96
// 017   ----------------------------------------
	BYTE	W96
// 018   ----------------------------------------
	BYTE	W96
// 019   ----------------------------------------
	BYTE	W96
// 020   ----------------------------------------
	BYTE	W96
// 021   ----------------------------------------
	BYTE	W96
// 022   ----------------------------------------
	BYTE	W96
// 023   ----------------------------------------
	BYTE	W96
// 024   ----------------------------------------
	BYTE	W96
// 025   ----------------------------------------
	BYTE	W96
// 026   ----------------------------------------
	BYTE	W96
// 027   ----------------------------------------
	BYTE	W96
// 028   ----------------------------------------
	BYTE	W96
// 029   ----------------------------------------
	BYTE	W96
// 030   ----------------------------------------
	BYTE	W96
// 031   ----------------------------------------
	BYTE	W96
// 032   ----------------------------------------
	BYTE	W96
// 033   ----------------------------------------
	BYTE	W96
// 034   ----------------------------------------
	BYTE	W96
// 035   ----------------------------------------
	BYTE	W96
// 036   ----------------------------------------
	BYTE	W96
// 037   ----------------------------------------
	BYTE	W96
// 038   ----------------------------------------
	BYTE	W96
// 039   ----------------------------------------
	BYTE	W96
// 040   ----------------------------------------
	BYTE	W96
// 041   ----------------------------------------
	BYTE	W96
// 042   ----------------------------------------
	BYTE	W96
// 043   ----------------------------------------
	BYTE	W96
// 044   ----------------------------------------
	BYTE	W96
// 045   ----------------------------------------
	BYTE	W96
// 046   ----------------------------------------
	BYTE	W96
// 047   ----------------------------------------
	BYTE	W96
// 048   ----------------------------------------
	BYTE	W96
// 049   ----------------------------------------
	BYTE	W96
// 050   ----------------------------------------
	BYTE	W96
// 051   ----------------------------------------
	BYTE	W96
// 052   ----------------------------------------
	BYTE	W96
// 053   ----------------------------------------
	BYTE	W96
// 054   ----------------------------------------
	BYTE	W96
// 055   ----------------------------------------
	BYTE	W96
// 056   ----------------------------------------
	BYTE	W96
// 057   ----------------------------------------
	BYTE	W96
// 058   ----------------------------------------
	BYTE	W96
// 059   ----------------------------------------
	BYTE	W96
// 060   ----------------------------------------
	BYTE		N36     Dn0   v104
	BYTE		N36     Dn1 
	BYTE	W96
// 061   ----------------------------------------
	BYTE		        Dn0 
	BYTE		N36     Dn1 
	BYTE	W96
// 062   ----------------------------------------
	BYTE		        Dn0 
	BYTE		N36     Dn1 
	BYTE	W96
// 063   ----------------------------------------
	BYTE		        Dn0 
	BYTE		N36     Dn1 
	BYTE	W96
// 064   ----------------------------------------
	BYTE		        Dn0 
	BYTE		N36     Dn1 
	BYTE	W96
// 065   ----------------------------------------
	BYTE		        Dn0 
	BYTE		N36     Dn1 
	BYTE	W96
// 066   ----------------------------------------
	BYTE		        Dn0 
	BYTE		N36     Dn1 
	BYTE	W96
// 067   ----------------------------------------
	BYTE		        Dn0 
	BYTE		N36     Dn1 
	BYTE	W96
// 068   ----------------------------------------
	BYTE	W96
// 069   ----------------------------------------
	BYTE	W96
// 070   ----------------------------------------
	BYTE	W96
// 071   ----------------------------------------
	BYTE	W96
// 072   ----------------------------------------
	BYTE	W96
// 073   ----------------------------------------
	BYTE	W96
// 074   ----------------------------------------
	BYTE	W96
// 075   ----------------------------------------
	BYTE	W96
// 076   ----------------------------------------
	BYTE	W96
// 077   ----------------------------------------
	BYTE	W96
// 078   ----------------------------------------
	BYTE	W96
// 079   ----------------------------------------
	BYTE	W96
// 080   ----------------------------------------
	BYTE	W96
// 081   ----------------------------------------
	BYTE	W96
// 082   ----------------------------------------
	BYTE	W96
// 083   ----------------------------------------
	BYTE	W96
// 084   ----------------------------------------
	BYTE	W96
// 085   ----------------------------------------
	BYTE	W96
// 086   ----------------------------------------
	BYTE	W96
// 087   ----------------------------------------
	BYTE	W96
// 088   ----------------------------------------
	BYTE	W96
// 089   ----------------------------------------
	BYTE	W96
// 090   ----------------------------------------
	BYTE	W96
// 091   ----------------------------------------
	BYTE	W96
// 092   ----------------------------------------
	BYTE	W96
// 093   ----------------------------------------
	BYTE	W96
// 094   ----------------------------------------
	BYTE	W96
// 095   ----------------------------------------
	BYTE	W96
// 096   ----------------------------------------
	BYTE	W96
// 097   ----------------------------------------
	BYTE	W96
// 098   ----------------------------------------
	BYTE	W96
// 099   ----------------------------------------
	BYTE	W96
	BYTE	GoTo
	 POIN2	tcox_noecho_9_B1
tcox_noecho_9_B2:
// 100   ----------------------------------------
	BYTE	W96
// 101   ----------------------------------------
	BYTE	W96
// 102   ----------------------------------------
	BYTE	W96
// 103   ----------------------------------------
	BYTE	W96
// 104   ----------------------------------------
	BYTE	W96
// 105   ----------------------------------------
	BYTE	W96
// 106   ----------------------------------------
	BYTE	W96
// 107   ----------------------------------------
	BYTE	W96
// 108   ----------------------------------------
	BYTE	W96
// 109   ----------------------------------------
	BYTE	W96
// 110   ----------------------------------------
	BYTE	W96
// 111   ----------------------------------------
	BYTE	W96
// 112   ----------------------------------------
	BYTE	W96
// 113   ----------------------------------------
	BYTE	W96
// 114   ----------------------------------------
	BYTE	W96
// 115   ----------------------------------------
	BYTE	FINE

//**************** Track 10 (Midi-Chn.14) ****************//

tcox_noecho_10:
	BYTE	KEYSH   tcox_noecho_key+0
// 000   ----------------------------------------
	BYTE		VOICE   126
	BYTE		VOL     95*tcox_noecho_mvl/mxv
	BYTE	W96
// 001   ----------------------------------------
	BYTE	W96
// 002   ----------------------------------------
	BYTE	W96
// 003   ----------------------------------------
	BYTE	W96
// 004   ----------------------------------------
	BYTE	W96
// 005   ----------------------------------------
	BYTE	W96
// 006   ----------------------------------------
	BYTE	W96
// 007   ----------------------------------------
	BYTE	W96
tcox_noecho_10_B1:
// 008   ----------------------------------------
	BYTE	W96
// 009   ----------------------------------------
	BYTE	W96
// 010   ----------------------------------------
	BYTE	W96
// 011   ----------------------------------------
	BYTE	W96
// 012   ----------------------------------------
	BYTE	W96
// 013   ----------------------------------------
	BYTE	W96
// 014   ----------------------------------------
	BYTE	W96
// 015   ----------------------------------------
	BYTE	W96
// 016   ----------------------------------------
	BYTE	W96
// 017   ----------------------------------------
	BYTE	W96
// 018   ----------------------------------------
	BYTE	W96
// 019   ----------------------------------------
	BYTE	W96
// 020   ----------------------------------------
	BYTE	W96
// 021   ----------------------------------------
	BYTE	W96
// 022   ----------------------------------------
	BYTE	W96
// 023   ----------------------------------------
	BYTE	W96
// 024   ----------------------------------------
	BYTE	W96
// 025   ----------------------------------------
	BYTE	W96
// 026   ----------------------------------------
	BYTE	W96
// 027   ----------------------------------------
	BYTE	W96
// 028   ----------------------------------------
	BYTE	W96
// 029   ----------------------------------------
	BYTE	W96
// 030   ----------------------------------------
	BYTE	W96
// 031   ----------------------------------------
	BYTE	W96
// 032   ----------------------------------------
	BYTE	W96
// 033   ----------------------------------------
	BYTE	W96
// 034   ----------------------------------------
	BYTE	W96
// 035   ----------------------------------------
	BYTE	W96
// 036   ----------------------------------------
	BYTE	W96
// 037   ----------------------------------------
	BYTE	W96
// 038   ----------------------------------------
tcox_noecho_10_038:
	BYTE		N24     Dn3   v104
	BYTE	W24
	BYTE		N24   
	BYTE	W24
	BYTE		N24   
	BYTE	W24
	BYTE		N24   
	BYTE	W24
	BYTE	PEND
// 039   ----------------------------------------
	BYTE	W96
// 040   ----------------------------------------
	BYTE	W96
// 041   ----------------------------------------
	BYTE	W96
// 042   ----------------------------------------
	BYTE	PATT
	 POIN2	tcox_noecho_10_038
// 043   ----------------------------------------
	BYTE	W96
// 044   ----------------------------------------
	BYTE	W96
// 045   ----------------------------------------
	BYTE	W96
// 046   ----------------------------------------
	BYTE	W96
// 047   ----------------------------------------
	BYTE	W96
// 048   ----------------------------------------
	BYTE	W96
// 049   ----------------------------------------
	BYTE	W96
// 050   ----------------------------------------
	BYTE	W96
// 051   ----------------------------------------
	BYTE	W96
// 052   ----------------------------------------
	BYTE	W96
// 053   ----------------------------------------
	BYTE	W96
// 054   ----------------------------------------
	BYTE	W96
// 055   ----------------------------------------
	BYTE	W96
// 056   ----------------------------------------
	BYTE	W96
// 057   ----------------------------------------
	BYTE	W96
// 058   ----------------------------------------
	BYTE	W96
// 059   ----------------------------------------
	BYTE	W96
// 060   ----------------------------------------
	BYTE	W96
// 061   ----------------------------------------
	BYTE	W96
// 062   ----------------------------------------
	BYTE	W96
// 063   ----------------------------------------
	BYTE	W96
// 064   ----------------------------------------
	BYTE	W96
// 065   ----------------------------------------
	BYTE	W96
// 066   ----------------------------------------
	BYTE	W96
// 067   ----------------------------------------
	BYTE	W96
// 068   ----------------------------------------
	BYTE	W96
// 069   ----------------------------------------
	BYTE	W96
// 070   ----------------------------------------
	BYTE	W96
// 071   ----------------------------------------
	BYTE	W96
// 072   ----------------------------------------
	BYTE	W96
// 073   ----------------------------------------
	BYTE	W96
// 074   ----------------------------------------
	BYTE	W96
// 075   ----------------------------------------
	BYTE	W96
// 076   ----------------------------------------
	BYTE	W96
// 077   ----------------------------------------
	BYTE	W96
// 078   ----------------------------------------
	BYTE	W96
// 079   ----------------------------------------
	BYTE	W96
// 080   ----------------------------------------
	BYTE	W96
// 081   ----------------------------------------
	BYTE	W96
// 082   ----------------------------------------
	BYTE	W96
// 083   ----------------------------------------
	BYTE	W96
// 084   ----------------------------------------
	BYTE	W96
// 085   ----------------------------------------
	BYTE	PATT
	 POIN2	tcox_noecho_10_038
// 086   ----------------------------------------
	BYTE	W96
// 087   ----------------------------------------
	BYTE	W96
// 088   ----------------------------------------
	BYTE	W96
// 089   ----------------------------------------
	BYTE	PATT
	 POIN2	tcox_noecho_10_038
// 090   ----------------------------------------
	BYTE	W96
// 091   ----------------------------------------
	BYTE	W96
// 092   ----------------------------------------
	BYTE	W96
// 093   ----------------------------------------
	BYTE	W96
// 094   ----------------------------------------
	BYTE	W96
// 095   ----------------------------------------
	BYTE	W96
// 096   ----------------------------------------
	BYTE	W96
// 097   ----------------------------------------
	BYTE	W96
// 098   ----------------------------------------
	BYTE	W96
// 099   ----------------------------------------
	BYTE	W96
	BYTE	GoTo
	 POIN2	tcox_noecho_10_B1
tcox_noecho_10_B2:
// 100   ----------------------------------------
	BYTE	PATT
	 POIN2	tcox_noecho_10_038
// 101   ----------------------------------------
	BYTE	W96
// 102   ----------------------------------------
	BYTE	W96
// 103   ----------------------------------------
	BYTE	W96
// 104   ----------------------------------------
	BYTE	PATT
	 POIN2	tcox_noecho_10_038
// 105   ----------------------------------------
	BYTE	W96
// 106   ----------------------------------------
	BYTE	W96
// 107   ----------------------------------------
	BYTE	W96
// 108   ----------------------------------------
	BYTE	W96
// 109   ----------------------------------------
	BYTE		N24     Dn4   v104
	BYTE	W24
	BYTE		N24   
	BYTE	W24
	BYTE		N24   
	BYTE	W24
	BYTE		N24   
	BYTE	W24
// 110   ----------------------------------------
	BYTE	W96
// 111   ----------------------------------------
	BYTE	W96
// 112   ----------------------------------------
	BYTE	W96
// 113   ----------------------------------------
	BYTE	W96
// 114   ----------------------------------------
	BYTE		N15     Dn3 
	BYTE	W15
	BYTE		N15   
	BYTE	W15
	BYTE		N15   
	BYTE	W15
	BYTE		N15   
	BYTE	W48
	BYTE	W03
// 115   ----------------------------------------
	BYTE	FINE

//**************** Track 11 (Midi-Chn.15) ****************//

tcox_noecho_11:
	BYTE	KEYSH   tcox_noecho_key+0
// 000   ----------------------------------------
	BYTE		VOICE   127
	BYTE		VOL     66*tcox_noecho_mvl/mxv
	BYTE		BEND    c_v+63
	BYTE		N06     Cn1   v104
	BYTE		N06     Fs1 
	BYTE		N06     An2 
	BYTE	W06
	BYTE		        Fs1 
	BYTE	W06
	BYTE		        As1 
	BYTE	W12
	BYTE		        Cn1 
	BYTE		N06     Fs1 
	BYTE	W06
	BYTE		N06   
	BYTE	W06
	BYTE		        As1 
	BYTE	W12
	BYTE		        Cn1 
	BYTE		N06     Fs1 
	BYTE	W06
	BYTE		N06   
	BYTE	W06
	BYTE		        As1 
	BYTE	W12
	BYTE		        Cn1 
	BYTE		N06     Fs1 
	BYTE	W06
	BYTE		N06   
	BYTE	W06
	BYTE		        As1 
	BYTE	W12
// 001   ----------------------------------------
tcox_noecho_11_001:
	BYTE		N06     Cn1   v104
	BYTE		N06     Fs1 
	BYTE	W06
	BYTE		N06   
	BYTE	W06
	BYTE		        As1 
	BYTE	W12
	BYTE		        Cn1 
	BYTE		N06     Fs1 
	BYTE	W06
	BYTE		N06   
	BYTE	W06
	BYTE		        As1 
	BYTE	W12
	BYTE		        Cn1 
	BYTE		N06     Fs1 
	BYTE	W06
	BYTE		N06   
	BYTE	W06
	BYTE		        As1 
	BYTE	W12
	BYTE		        Cn1 
	BYTE		N06     Fs1 
	BYTE	W06
	BYTE		N06   
	BYTE	W06
	BYTE		        As1 
	BYTE	W12
	BYTE	PEND
// 002   ----------------------------------------
	BYTE	PATT
	 POIN2	tcox_noecho_11_001
// 003   ----------------------------------------
	BYTE	PATT
	 POIN2	tcox_noecho_11_001
// 004   ----------------------------------------
tcox_noecho_11_004:
	BYTE		BEND    c_v+63
	BYTE		N06     Cn1   v104
	BYTE		N06     Fs1 
	BYTE		N06     An2 
	BYTE	W06
	BYTE		        Fs1 
	BYTE	W06
	BYTE		        As1 
	BYTE	W12
	BYTE		        Cn1 
	BYTE		N06     Fs1 
	BYTE	W06
	BYTE		N06   
	BYTE	W06
	BYTE		        As1 
	BYTE	W12
	BYTE		        Cn1 
	BYTE		N06     Fs1 
	BYTE	W06
	BYTE		N06   
	BYTE	W06
	BYTE		        As1 
	BYTE	W12
	BYTE		        Cn1 
	BYTE		N06     Fs1 
	BYTE	W06
	BYTE		N06   
	BYTE	W06
	BYTE		        As1 
	BYTE	W12
	BYTE	PEND
// 005   ----------------------------------------
	BYTE	PATT
	 POIN2	tcox_noecho_11_001
// 006   ----------------------------------------
	BYTE	PATT
	 POIN2	tcox_noecho_11_001
// 007   ----------------------------------------
tcox_noecho_11_007:
	BYTE		N06     Dn1   v104
	BYTE		N06     Bn1 
	BYTE		N06     Cn2 
	BYTE	W12
	BYTE		        Cn1 
	BYTE		N06     An1 
	BYTE		N06     Bn1 
	BYTE	W12
	BYTE		        Cn1 
	BYTE		N06     Gn1 
	BYTE		N06     An1 
	BYTE	W12
	BYTE		        Dn1 
	BYTE		N06     Bn1 
	BYTE		N06     Cn2 
	BYTE	W12
	BYTE		        Cn1 
	BYTE		N06     An1 
	BYTE		N06     Bn1 
	BYTE	W12
	BYTE		        Cn1 
	BYTE		N06     Gn1 
	BYTE		N06     An1 
	BYTE	W12
	BYTE		        Dn1 
	BYTE		N06     Bn1 
	BYTE		N06     Cn2 
	BYTE	W12
	BYTE		        Cn1 
	BYTE		N06     An1 
	BYTE		N06     Bn1 
	BYTE	W12
	BYTE	PEND
tcox_noecho_11_B1:
// 008   ----------------------------------------
tcox_noecho_11_008:
	BYTE		N06     Cn1   v104
	BYTE		N06     Fs1 
	BYTE	W12
	BYTE		N06   
	BYTE	W12
	BYTE		        Dn1 
	BYTE		N06     Fs1 
	BYTE	W12
	BYTE		        Cn1 
	BYTE		N06     Fs1 
	BYTE	W12
	BYTE		N06   
	BYTE	W12
	BYTE		        Cn1 
	BYTE		N06     Fs1 
	BYTE	W12
	BYTE		        Dn1 
	BYTE		N06     Fs1 
	BYTE	W12
	BYTE		N06   
	BYTE	W12
	BYTE	PEND
// 009   ----------------------------------------
tcox_noecho_11_009:
	BYTE		N06     Cn1   v104
	BYTE		N06     Fs1 
	BYTE	W12
	BYTE		N06   
	BYTE	W12
	BYTE		        Dn1 
	BYTE		N06     Fs1 
	BYTE	W12
	BYTE		        Cn1 
	BYTE		N06     As1 
	BYTE	W12
	BYTE		        Fs1 
	BYTE	W12
	BYTE		        Cn1 
	BYTE		N06     Fs1 
	BYTE	W12
	BYTE		        Dn1 
	BYTE		N06     Fs1 
	BYTE	W12
	BYTE		N06   
	BYTE	W12
	BYTE	PEND
// 010   ----------------------------------------
	BYTE	PATT
	 POIN2	tcox_noecho_11_008
// 011   ----------------------------------------
	BYTE	PATT
	 POIN2	tcox_noecho_11_009
// 012   ----------------------------------------
	BYTE	PATT
	 POIN2	tcox_noecho_11_008
// 013   ----------------------------------------
	BYTE	PATT
	 POIN2	tcox_noecho_11_009
// 014   ----------------------------------------
	BYTE	PATT
	 POIN2	tcox_noecho_11_008
// 015   ----------------------------------------
	BYTE	PATT
	 POIN2	tcox_noecho_11_009
// 016   ----------------------------------------
tcox_noecho_11_016:
	BYTE		N06     Cn1   v104
	BYTE		N06     Fs1 
	BYTE		N06     An2 
	BYTE	W12
	BYTE		        Fs1 
	BYTE	W12
	BYTE		        Dn1 
	BYTE		N06     Fs1 
	BYTE	W12
	BYTE		        Cn1 
	BYTE		N06     Fs1 
	BYTE	W12
	BYTE		N06   
	BYTE	W12
	BYTE		        Cn1 
	BYTE		N06     Fs1 
	BYTE	W12
	BYTE		        Dn1 
	BYTE		N06     Fs1 
	BYTE	W12
	BYTE		N06   
	BYTE	W12
	BYTE	PEND
// 017   ----------------------------------------
	BYTE	PATT
	 POIN2	tcox_noecho_11_009
// 018   ----------------------------------------
	BYTE	PATT
	 POIN2	tcox_noecho_11_008
// 019   ----------------------------------------
	BYTE		N06     Dn1   v104
	BYTE		N06     Bn1 
	BYTE		N06     Cn2 
	BYTE	W12
	BYTE		        Cn1 
	BYTE		N06     An1 
	BYTE		N06     Bn1 
	BYTE	W12
	BYTE		        Cn1 
	BYTE		N06     Gn1 
	BYTE		N06     An1 
	BYTE	W12
	BYTE		        Dn1 
	BYTE		N06     Bn1 
	BYTE		N06     Cn2 
	BYTE	W12
	BYTE		        An1 
	BYTE		N06     Bn1 
	BYTE	W12
	BYTE		        Cn1 
	BYTE		N06     Gn1 
	BYTE		N06     An1 
	BYTE	W12
	BYTE		        Dn1 
	BYTE		N06     Bn1 
	BYTE		N06     Cn2 
	BYTE	W12
	BYTE		        An1 
	BYTE		N06     Bn1 
	BYTE	W12
// 020   ----------------------------------------
tcox_noecho_11_020:
	BYTE		N06     Cn1   v104
	BYTE		N06     Fs1 
	BYTE		N06     Cs2 
	BYTE	W12
	BYTE		        Fs1 
	BYTE	W12
	BYTE		        Dn1 
	BYTE		N06     Fs1 
	BYTE	W12
	BYTE		        Cn1 
	BYTE		N06     Fs1 
	BYTE	W12
	BYTE		N06   
	BYTE	W12
	BYTE		        Cn1 
	BYTE		N06     Fs1 
	BYTE	W12
	BYTE		        Dn1 
	BYTE		N06     Fs1 
	BYTE	W12
	BYTE		N06   
	BYTE	W12
	BYTE	PEND
// 021   ----------------------------------------
	BYTE	PATT
	 POIN2	tcox_noecho_11_009
// 022   ----------------------------------------
	BYTE	PATT
	 POIN2	tcox_noecho_11_008
// 023   ----------------------------------------
	BYTE	PATT
	 POIN2	tcox_noecho_11_009
// 024   ----------------------------------------
	BYTE	PATT
	 POIN2	tcox_noecho_11_008
// 025   ----------------------------------------
	BYTE	PATT
	 POIN2	tcox_noecho_11_009
// 026   ----------------------------------------
	BYTE	PATT
	 POIN2	tcox_noecho_11_008
// 027   ----------------------------------------
	BYTE	PATT
	 POIN2	tcox_noecho_11_009
// 028   ----------------------------------------
	BYTE	PATT
	 POIN2	tcox_noecho_11_016
// 029   ----------------------------------------
	BYTE	PATT
	 POIN2	tcox_noecho_11_009
// 030   ----------------------------------------
	BYTE	PATT
	 POIN2	tcox_noecho_11_008
// 031   ----------------------------------------
	BYTE	PATT
	 POIN2	tcox_noecho_11_009
// 032   ----------------------------------------
	BYTE	PATT
	 POIN2	tcox_noecho_11_020
// 033   ----------------------------------------
	BYTE	PATT
	 POIN2	tcox_noecho_11_009
// 034   ----------------------------------------
	BYTE	PATT
	 POIN2	tcox_noecho_11_008
// 035   ----------------------------------------
	BYTE	PATT
	 POIN2	tcox_noecho_11_009
// 036   ----------------------------------------
tcox_noecho_11_036:
	BYTE		N06     Cn1   v104
	BYTE	W24
	BYTE		N06   
	BYTE	W24
	BYTE		N06   
	BYTE	W24
	BYTE		N06   
	BYTE	W24
	BYTE	PEND
// 037   ----------------------------------------
tcox_noecho_11_037:
	BYTE		N06     Cn1   v104
	BYTE		N06     Dn1 
	BYTE		N06     As1 
	BYTE		N06     Bn1 
	BYTE		N06     Cn2 
	BYTE	W06
	BYTE		        Fs1 
	BYTE	W06
	BYTE		N06   
	BYTE		N06     An1 
	BYTE		N06     Bn1 
	BYTE	W12
	BYTE		        Cn1 
	BYTE		N06     Gn1 
	BYTE		N06     An1 
	BYTE		N06     As1 
	BYTE	W06
	BYTE		        Fs1 
	BYTE	W06
	BYTE		        Dn1 
	BYTE		N06     Fs1 
	BYTE		N06     Bn1 
	BYTE		N06     Cn2 
	BYTE	W12
	BYTE		        Cn1 
	BYTE		N06     An1 
	BYTE		N06     As1 
	BYTE		N06     Bn1 
	BYTE	W06
	BYTE		        Fs1 
	BYTE	W06
	BYTE		N06   
	BYTE		N06     Gn1 
	BYTE		N06     An1 
	BYTE	W12
	BYTE		        Cn1 
	BYTE		N06     Dn1 
	BYTE		N06     As1 
	BYTE		N06     Bn1 
	BYTE		N06     Cn2 
	BYTE	W06
	BYTE		        Fs1 
	BYTE	W06
	BYTE		N06   
	BYTE		N06     An1 
	BYTE		N06     Bn1 
	BYTE	W12
	BYTE	PEND
// 038   ----------------------------------------
tcox_noecho_11_038:
	BYTE		N06     Cn1   v104
	BYTE		N06     As1 
	BYTE		N06     An2 
	BYTE	W12
	BYTE		        Fs1 
	BYTE	W12
	BYTE		        Dn1 
	BYTE		N06     As1 
	BYTE	W12
	BYTE		        Cn1 
	BYTE		N06     Fs1 
	BYTE	W12
	BYTE		        As1 
	BYTE	W12
	BYTE		        Cn1 
	BYTE		N06     Fs1 
	BYTE	W12
	BYTE		        Dn1 
	BYTE		N06     As1 
	BYTE	W12
	BYTE		        Fs1 
	BYTE	W12
	BYTE	PEND
// 039   ----------------------------------------
tcox_noecho_11_039:
	BYTE		N06     Cn1   v104
	BYTE		N06     As1 
	BYTE	W12
	BYTE		        Fs1 
	BYTE	W12
	BYTE		        Dn1 
	BYTE		N06     As1 
	BYTE	W12
	BYTE		        Fs1 
	BYTE	W12
	BYTE		        Cn1 
	BYTE		N06     As1 
	BYTE	W06
	BYTE		        Dn1 
	BYTE	W06
	BYTE		        Cn1 
	BYTE		N06     Fs1 
	BYTE	W12
	BYTE		        Dn1 
	BYTE		N06     As1 
	BYTE	W12
	BYTE		        Fs1 
	BYTE	W12
	BYTE	PEND
// 040   ----------------------------------------
tcox_noecho_11_040:
	BYTE		N06     Cn1   v104
	BYTE		N06     As1 
	BYTE	W12
	BYTE		        Fs1 
	BYTE	W12
	BYTE		        Dn1 
	BYTE		N06     As1 
	BYTE	W12
	BYTE		        Cn1 
	BYTE		N06     Fs1 
	BYTE	W12
	BYTE		        As1 
	BYTE	W12
	BYTE		        Cn1 
	BYTE		N06     Fs1 
	BYTE	W12
	BYTE		        Dn1 
	BYTE		N06     As1 
	BYTE	W12
	BYTE		        Fs1 
	BYTE	W12
	BYTE	PEND
// 041   ----------------------------------------
	BYTE	PATT
	 POIN2	tcox_noecho_11_039
// 042   ----------------------------------------
	BYTE	PATT
	 POIN2	tcox_noecho_11_038
// 043   ----------------------------------------
	BYTE	PATT
	 POIN2	tcox_noecho_11_039
// 044   ----------------------------------------
	BYTE	PATT
	 POIN2	tcox_noecho_11_040
// 045   ----------------------------------------
	BYTE	PATT
	 POIN2	tcox_noecho_11_039
// 046   ----------------------------------------
	BYTE	PATT
	 POIN2	tcox_noecho_11_038
// 047   ----------------------------------------
	BYTE	PATT
	 POIN2	tcox_noecho_11_039
// 048   ----------------------------------------
	BYTE	PATT
	 POIN2	tcox_noecho_11_040
// 049   ----------------------------------------
tcox_noecho_11_049:
	BYTE		N06     Cn1   v104
	BYTE		N06     As1 
	BYTE	W12
	BYTE		        Fs1 
	BYTE	W12
	BYTE		        Dn1 
	BYTE		N06     As1 
	BYTE	W12
	BYTE		        Fs1 
	BYTE	W12
	BYTE		        Cn1 
	BYTE		N06     As1 
	BYTE	W06
	BYTE		        Dn1 
	BYTE	W06
	BYTE		        Cn1 
	BYTE		N06     Fs1 
	BYTE	W12
	BYTE		        Dn1 
	BYTE		N06     As1 
	BYTE	W12
	BYTE		        Dn1 
	BYTE		N06     Fs1 
	BYTE	W12
	BYTE	PEND
// 050   ----------------------------------------
	BYTE	W24
	BYTE		        Dn1 
	BYTE		N06     As1 
	BYTE	W12
	BYTE		        Dn1 
	BYTE		N06     Fs1 
	BYTE	W36
	BYTE		        Dn1 
	BYTE		N06     As1 
	BYTE	W12
	BYTE		        Dn1 
	BYTE		N06     Fs1 
	BYTE	W12
// 051   ----------------------------------------
	BYTE	W24
	BYTE		        Cn1 
	BYTE		N06     Bn1 
	BYTE		N06     Cn2 
	BYTE		N06     An2 
	BYTE	W06
	BYTE		        An1 
	BYTE		N06     Bn1 
	BYTE	W06
	BYTE		        Gn1 
	BYTE		N06     An1 
	BYTE	W12
	BYTE		        Cn1 
	BYTE		N06     Bn1 
	BYTE		N06     Cn2 
	BYTE	W06
	BYTE		        An1 
	BYTE		N06     Bn1 
	BYTE	W06
	BYTE		        Gn1 
	BYTE		N06     An1 
	BYTE	W06
	BYTE		        Fn1 
	BYTE		N06     Gn1 
	BYTE	W06
	BYTE		        Cn1 
	BYTE		N06     Bn1 
	BYTE		N06     Cn2 
	BYTE	W12
	BYTE		        Gn1 
	BYTE		N06     An1 
	BYTE	W12
// 052   ----------------------------------------
	BYTE	PATT
	 POIN2	tcox_noecho_11_004
// 053   ----------------------------------------
	BYTE	PATT
	 POIN2	tcox_noecho_11_001
// 054   ----------------------------------------
	BYTE	PATT
	 POIN2	tcox_noecho_11_001
// 055   ----------------------------------------
	BYTE	PATT
	 POIN2	tcox_noecho_11_001
// 056   ----------------------------------------
	BYTE	PATT
	 POIN2	tcox_noecho_11_004
// 057   ----------------------------------------
	BYTE	PATT
	 POIN2	tcox_noecho_11_001
// 058   ----------------------------------------
	BYTE	PATT
	 POIN2	tcox_noecho_11_001
// 059   ----------------------------------------
	BYTE	PATT
	 POIN2	tcox_noecho_11_007
// 060   ----------------------------------------
	BYTE	PATT
	 POIN2	tcox_noecho_11_016
// 061   ----------------------------------------
	BYTE	PATT
	 POIN2	tcox_noecho_11_009
// 062   ----------------------------------------
	BYTE	PATT
	 POIN2	tcox_noecho_11_008
// 063   ----------------------------------------
	BYTE	PATT
	 POIN2	tcox_noecho_11_009
// 064   ----------------------------------------
	BYTE	PATT
	 POIN2	tcox_noecho_11_008
// 065   ----------------------------------------
	BYTE	PATT
	 POIN2	tcox_noecho_11_009
// 066   ----------------------------------------
	BYTE	PATT
	 POIN2	tcox_noecho_11_008
// 067   ----------------------------------------
	BYTE	PATT
	 POIN2	tcox_noecho_11_009
// 068   ----------------------------------------
	BYTE	PATT
	 POIN2	tcox_noecho_11_020
// 069   ----------------------------------------
	BYTE	PATT
	 POIN2	tcox_noecho_11_009
// 070   ----------------------------------------
	BYTE	PATT
	 POIN2	tcox_noecho_11_008
// 071   ----------------------------------------
	BYTE	PATT
	 POIN2	tcox_noecho_11_009
// 072   ----------------------------------------
	BYTE	PATT
	 POIN2	tcox_noecho_11_008
// 073   ----------------------------------------
	BYTE	PATT
	 POIN2	tcox_noecho_11_009
// 074   ----------------------------------------
	BYTE	PATT
	 POIN2	tcox_noecho_11_008
// 075   ----------------------------------------
	BYTE	PATT
	 POIN2	tcox_noecho_11_009
// 076   ----------------------------------------
	BYTE	PATT
	 POIN2	tcox_noecho_11_016
// 077   ----------------------------------------
	BYTE	PATT
	 POIN2	tcox_noecho_11_009
// 078   ----------------------------------------
	BYTE	PATT
	 POIN2	tcox_noecho_11_008
// 079   ----------------------------------------
	BYTE	PATT
	 POIN2	tcox_noecho_11_009
// 080   ----------------------------------------
	BYTE	PATT
	 POIN2	tcox_noecho_11_020
// 081   ----------------------------------------
	BYTE	PATT
	 POIN2	tcox_noecho_11_009
// 082   ----------------------------------------
	BYTE	PATT
	 POIN2	tcox_noecho_11_008
// 083   ----------------------------------------
	BYTE	PATT
	 POIN2	tcox_noecho_11_009
// 084   ----------------------------------------
	BYTE	PATT
	 POIN2	tcox_noecho_11_037
// 085   ----------------------------------------
	BYTE	PATT
	 POIN2	tcox_noecho_11_038
// 086   ----------------------------------------
	BYTE	PATT
	 POIN2	tcox_noecho_11_039
// 087   ----------------------------------------
	BYTE	PATT
	 POIN2	tcox_noecho_11_040
// 088   ----------------------------------------
	BYTE	PATT
	 POIN2	tcox_noecho_11_039
// 089   ----------------------------------------
	BYTE	PATT
	 POIN2	tcox_noecho_11_038
// 090   ----------------------------------------
	BYTE	PATT
	 POIN2	tcox_noecho_11_039
// 091   ----------------------------------------
	BYTE	PATT
	 POIN2	tcox_noecho_11_040
// 092   ----------------------------------------
	BYTE	PATT
	 POIN2	tcox_noecho_11_039
// 093   ----------------------------------------
	BYTE	PATT
	 POIN2	tcox_noecho_11_038
// 094   ----------------------------------------
	BYTE	PATT
	 POIN2	tcox_noecho_11_039
// 095   ----------------------------------------
	BYTE	PATT
	 POIN2	tcox_noecho_11_040
// 096   ----------------------------------------
	BYTE	PATT
	 POIN2	tcox_noecho_11_049
// 097   ----------------------------------------
tcox_noecho_11_097:
	BYTE	W24
	BYTE		N06     Dn1   v104
	BYTE		N06     As1 
	BYTE	W12
	BYTE		        Dn1 
	BYTE		N06     Fs1 
	BYTE	W36
	BYTE		        Dn1 
	BYTE		N06     As1 
	BYTE	W12
	BYTE		        Dn1 
	BYTE		N06     Fs1 
	BYTE	W06
	BYTE		BEND    c_v+63
	BYTE	W06
	BYTE	PEND
// 098   ----------------------------------------
	BYTE	PATT
	 POIN2	tcox_noecho_11_036
// 099   ----------------------------------------
	BYTE	PATT
	 POIN2	tcox_noecho_11_037
	BYTE	GoTo
	 POIN2	tcox_noecho_11_B1
tcox_noecho_11_B2:
// 100   ----------------------------------------
	BYTE	PATT
	 POIN2	tcox_noecho_11_038
// 101   ----------------------------------------
	BYTE	PATT
	 POIN2	tcox_noecho_11_039
// 102   ----------------------------------------
	BYTE	PATT
	 POIN2	tcox_noecho_11_040
// 103   ----------------------------------------
	BYTE	PATT
	 POIN2	tcox_noecho_11_039
// 104   ----------------------------------------
	BYTE	PATT
	 POIN2	tcox_noecho_11_038
// 105   ----------------------------------------
	BYTE	PATT
	 POIN2	tcox_noecho_11_039
// 106   ----------------------------------------
	BYTE	PATT
	 POIN2	tcox_noecho_11_040
// 107   ----------------------------------------
	BYTE	PATT
	 POIN2	tcox_noecho_11_039
// 108   ----------------------------------------
	BYTE	PATT
	 POIN2	tcox_noecho_11_038
// 109   ----------------------------------------
	BYTE	PATT
	 POIN2	tcox_noecho_11_039
// 110   ----------------------------------------
	BYTE	PATT
	 POIN2	tcox_noecho_11_040
// 111   ----------------------------------------
	BYTE	PATT
	 POIN2	tcox_noecho_11_049
// 112   ----------------------------------------
	BYTE	PATT
	 POIN2	tcox_noecho_11_097
// 113   ----------------------------------------
	BYTE		N96     En2   v104
	BYTE	W96
// 114   ----------------------------------------
	BYTE	W96
// 115   ----------------------------------------
	BYTE	FINE

//******************************************************//
	ALIGN 4

tcox_noecho:
	BYTE	11	// NumTrks
	BYTE	0	// NumBlks
	BYTE	tcox_noecho_pri	// Priority
	BYTE	tcox_noecho_rev	// Reverb.

	POIN2	tcox_noecho_grp

	POIN2	tcox_noecho_1
	POIN2	tcox_noecho_2
	POIN2	tcox_noecho_3
	POIN2	tcox_noecho_4
	POIN2	tcox_noecho_5
	POIN2	tcox_noecho_6
	POIN2	tcox_noecho_7
	POIN2	tcox_noecho_8
	POIN2	tcox_noecho_9
	POIN2	tcox_noecho_10
	POIN2	tcox_noecho_11

	
