//Event file generated from Sappy .s format.
	#include "MPlayDef.event"

	#define	testimony_grp  MusicVoices
	#define	testimony_pri  0
	#define	testimony_rev  0
	#define	testimony_mvl  75
	#define	testimony_key  0
	#define	testimony_tbs  1
	#define	testimony_exg  0
	#define	testimony_cmp  1

	// .rodata
	//	testimony
	ALIGN 4

//**************** Track 1 (Midi-Chn.1) ****************//

testimony_1:
	BYTE	KEYSH   testimony_key+0
testimony_1_B1:
// 000   ----------------------------------------
	BYTE	TEMPO   126*testimony_tbs/2
	BYTE		VOICE   4
	BYTE		VOL     47*testimony_mvl/mxv
	BYTE		PAN     c_v+0
	BYTE		N09     An3   v080
	BYTE	W36
	BYTE		        Bn3 
	BYTE	W36
	BYTE		        Cn4 
	BYTE	W24
// 001   ----------------------------------------
testimony_1_001:
	BYTE	W12
	BYTE		N09     Bn3   v080
	BYTE	W36
	BYTE		        Dn4 
	BYTE	W24
	BYTE		        Bn3 
	BYTE	W24
	BYTE	PEND
// 002   ----------------------------------------
testimony_1_002:
	BYTE		N09     Cn4   v080
	BYTE	W36
	BYTE		        Bn3 
	BYTE	W36
	BYTE		        Gn3 
	BYTE	W24
	BYTE	PEND
// 003   ----------------------------------------
testimony_1_003:
	BYTE	W12
	BYTE		N09     En3   v080
	BYTE	W36
	BYTE		        Gn3 
	BYTE	W24
	BYTE		        Bn3 
	BYTE	W24
	BYTE	PEND
// 004   ----------------------------------------
testimony_1_004:
	BYTE		N09     An3   v080
	BYTE	W36
	BYTE		        Bn3 
	BYTE	W36
	BYTE		        Cn4 
	BYTE	W24
	BYTE	PEND
// 005   ----------------------------------------
	BYTE	PATT
	 POIN2	testimony_1_001
// 006   ----------------------------------------
	BYTE	PATT
	 POIN2	testimony_1_002
// 007   ----------------------------------------
testimony_1_007:
	BYTE	W12
	BYTE		N09     Dn3   v080
	BYTE	W36
	BYTE		        En3 
	BYTE	W24
	BYTE		        Bn3 
	BYTE	W24
	BYTE	PEND
// 008   ----------------------------------------
	BYTE	PATT
	 POIN2	testimony_1_004
// 009   ----------------------------------------
	BYTE	PATT
	 POIN2	testimony_1_001
// 010   ----------------------------------------
	BYTE	PATT
	 POIN2	testimony_1_002
// 011   ----------------------------------------
	BYTE	PATT
	 POIN2	testimony_1_003
// 012   ----------------------------------------
	BYTE	PATT
	 POIN2	testimony_1_004
// 013   ----------------------------------------
	BYTE	PATT
	 POIN2	testimony_1_001
// 014   ----------------------------------------
	BYTE	PATT
	 POIN2	testimony_1_002
// 015   ----------------------------------------
	BYTE	PATT
	 POIN2	testimony_1_007
// 016   ----------------------------------------
	BYTE	PATT
	 POIN2	testimony_1_004
// 017   ----------------------------------------
	BYTE	PATT
	 POIN2	testimony_1_001
// 018   ----------------------------------------
	BYTE	PATT
	 POIN2	testimony_1_002
// 019   ----------------------------------------
	BYTE	PATT
	 POIN2	testimony_1_003
// 020   ----------------------------------------
	BYTE	PATT
	 POIN2	testimony_1_004
// 021   ----------------------------------------
	BYTE	PATT
	 POIN2	testimony_1_001
// 022   ----------------------------------------
	BYTE	PATT
	 POIN2	testimony_1_002
// 023   ----------------------------------------
	BYTE	PATT
	 POIN2	testimony_1_007
	BYTE	GoTo
	 POIN2	testimony_1_B1
testimony_1_B2:
// 024   ----------------------------------------
	BYTE	FINE

//**************** Track 2 (Midi-Chn.2) ****************//

testimony_2:
	BYTE	KEYSH   testimony_key+0
testimony_2_B1:
// 000   ----------------------------------------
	BYTE		VOICE   19
	BYTE		VOL     40*testimony_mvl/mxv
	BYTE		PAN     c_v-20
	BYTE	W96
// 001   ----------------------------------------
	BYTE	W96
// 002   ----------------------------------------
	BYTE	W96
// 003   ----------------------------------------
	BYTE	W96
// 004   ----------------------------------------
	BYTE	W96
// 005   ----------------------------------------
	BYTE	W96
// 006   ----------------------------------------
	BYTE	W96
// 007   ----------------------------------------
	BYTE	W96
// 008   ----------------------------------------
	BYTE		TIE     En3   v100
	BYTE	W96
// 009   ----------------------------------------
	BYTE		N96     Bn3 
	BYTE	W96
// 010   ----------------------------------------
	BYTE		        Cn4 
	BYTE	W96
// 011   ----------------------------------------
	BYTE		        Bn3 
	BYTE	W96
// 012   ----------------------------------------
	BYTE	W96
// 013   ----------------------------------------
	BYTE		        An3 
	BYTE	W96
	BYTE		EOT     En3 
// 014   ----------------------------------------
	BYTE		TIE     Dn3 
	BYTE		N96     Cn4 
	BYTE	W96
// 015   ----------------------------------------
	BYTE		        Bn3 
	BYTE	W96
	BYTE		EOT     Dn3 
// 016   ----------------------------------------
	BYTE		TIE     En3 
	BYTE		N96     An3 
	BYTE	W96
// 017   ----------------------------------------
	BYTE		        Cn4 
	BYTE	W96
// 018   ----------------------------------------
	BYTE		        Bn3 
	BYTE	W96
// 019   ----------------------------------------
	BYTE		        Gn3 
	BYTE	W96
// 020   ----------------------------------------
	BYTE		        An3 
	BYTE	W96
// 021   ----------------------------------------
	BYTE		        Cn4 
	BYTE	W96
	BYTE		EOT     En3 
// 022   ----------------------------------------
	BYTE		TIE     Dn3 
	BYTE		N96     Bn3 
	BYTE	W96
// 023   ----------------------------------------
	BYTE		        Gn3 
	BYTE	W96
	BYTE		EOT     Dn3 
	BYTE	GoTo
	 POIN2	testimony_2_B1
testimony_2_B2:
// 024   ----------------------------------------
	BYTE	FINE

//**************** Track 3 (Midi-Chn.3) ****************//

testimony_3:
	BYTE	KEYSH   testimony_key+0
testimony_3_B1:
// 000   ----------------------------------------
	BYTE		VOICE   5
	BYTE		VOL     70*testimony_mvl/mxv
	BYTE		PAN     c_v+6
	BYTE		N06     An4   v080
	BYTE	W06
	BYTE		        An4   v068
	BYTE	W06
	BYTE		        An4   v056
	BYTE	W06
	BYTE		        An4   v040
	BYTE	W06
	BYTE		N06   
	BYTE	W12
	BYTE		        Bn4   v080
	BYTE	W06
	BYTE		        Bn4   v068
	BYTE	W06
	BYTE		        Bn4   v056
	BYTE	W06
	BYTE		        Bn4   v040
	BYTE	W06
	BYTE		N06   
	BYTE	W12
	BYTE		        Cn5   v080
	BYTE	W06
	BYTE		        Cn5   v068
	BYTE	W06
	BYTE		        Cn5   v056
	BYTE	W06
	BYTE		        Cn5   v040
	BYTE	W06
// 001   ----------------------------------------
testimony_3_001:
	BYTE		N06     Cn5   v040
	BYTE	W12
	BYTE		        Bn4   v080
	BYTE	W06
	BYTE		        Bn4   v068
	BYTE	W06
	BYTE		        Bn4   v056
	BYTE	W06
	BYTE		        Bn4   v040
	BYTE	W06
	BYTE		N06   
	BYTE	W12
	BYTE		        Dn5   v080
	BYTE	W06
	BYTE		        Dn5   v068
	BYTE	W06
	BYTE		        Dn5   v056
	BYTE	W06
	BYTE		        Dn5   v040
	BYTE	W06
	BYTE		        Bn4   v080
	BYTE	W06
	BYTE		        Bn4   v068
	BYTE	W06
	BYTE		        Bn4   v056
	BYTE	W06
	BYTE		        Bn4   v040
	BYTE	W06
	BYTE	PEND
// 002   ----------------------------------------
testimony_3_002:
	BYTE		N06     Cn5   v080
	BYTE	W06
	BYTE		        Cn5   v068
	BYTE	W06
	BYTE		        Cn5   v056
	BYTE	W06
	BYTE		        Cn5   v040
	BYTE	W06
	BYTE		N06   
	BYTE	W12
	BYTE		        Bn4   v080
	BYTE	W06
	BYTE		        Bn4   v068
	BYTE	W06
	BYTE		        Bn4   v056
	BYTE	W06
	BYTE		        Bn4   v040
	BYTE	W06
	BYTE		N06   
	BYTE	W12
	BYTE		        Gn4   v080
	BYTE	W06
	BYTE		        Gn4   v068
	BYTE	W06
	BYTE		        Gn4   v056
	BYTE	W06
	BYTE		        Gn4   v040
	BYTE	W06
	BYTE	PEND
// 003   ----------------------------------------
testimony_3_003:
	BYTE		N06     Gn4   v040
	BYTE	W12
	BYTE		        En4   v080
	BYTE	W06
	BYTE		        En4   v068
	BYTE	W06
	BYTE		        En4   v056
	BYTE	W06
	BYTE		        En4   v040
	BYTE	W06
	BYTE		N06   
	BYTE	W12
	BYTE		        Gn4   v080
	BYTE	W06
	BYTE		        Gn4   v068
	BYTE	W06
	BYTE		        Gn4   v056
	BYTE	W06
	BYTE		        Gn4   v040
	BYTE	W06
	BYTE		        Bn4   v080
	BYTE	W06
	BYTE		        Bn4   v068
	BYTE	W06
	BYTE		        Bn4   v056
	BYTE	W06
	BYTE		        Bn4   v040
	BYTE	W06
	BYTE	PEND
// 004   ----------------------------------------
testimony_3_004:
	BYTE		N06     An4   v080
	BYTE	W06
	BYTE		        An4   v068
	BYTE	W06
	BYTE		        An4   v056
	BYTE	W06
	BYTE		        An4   v040
	BYTE	W06
	BYTE		N06   
	BYTE	W12
	BYTE		        Bn4   v080
	BYTE	W06
	BYTE		        Bn4   v068
	BYTE	W06
	BYTE		        Bn4   v056
	BYTE	W06
	BYTE		        Bn4   v040
	BYTE	W06
	BYTE		N06   
	BYTE	W12
	BYTE		        Cn5   v080
	BYTE	W06
	BYTE		        Cn5   v068
	BYTE	W06
	BYTE		        Cn5   v056
	BYTE	W06
	BYTE		        Cn5   v040
	BYTE	W06
	BYTE	PEND
// 005   ----------------------------------------
	BYTE	PATT
	 POIN2	testimony_3_001
// 006   ----------------------------------------
	BYTE	PATT
	 POIN2	testimony_3_002
// 007   ----------------------------------------
testimony_3_007:
	BYTE		N06     Gn4   v040
	BYTE	W12
	BYTE		        Dn4   v080
	BYTE	W06
	BYTE		        Dn4   v068
	BYTE	W06
	BYTE		        Dn4   v056
	BYTE	W06
	BYTE		        Dn4   v040
	BYTE	W06
	BYTE		N06   
	BYTE	W12
	BYTE		        En4   v080
	BYTE	W06
	BYTE		        En4   v068
	BYTE	W06
	BYTE		        En4   v056
	BYTE	W06
	BYTE		        En4   v040
	BYTE	W06
	BYTE		        Bn4   v080
	BYTE	W06
	BYTE		        Bn4   v068
	BYTE	W06
	BYTE		        Bn4   v056
	BYTE	W06
	BYTE		        Bn4   v040
	BYTE	W06
	BYTE	PEND
// 008   ----------------------------------------
	BYTE	PATT
	 POIN2	testimony_3_004
// 009   ----------------------------------------
	BYTE	PATT
	 POIN2	testimony_3_001
// 010   ----------------------------------------
	BYTE	PATT
	 POIN2	testimony_3_002
// 011   ----------------------------------------
	BYTE	PATT
	 POIN2	testimony_3_003
// 012   ----------------------------------------
	BYTE	PATT
	 POIN2	testimony_3_004
// 013   ----------------------------------------
	BYTE	PATT
	 POIN2	testimony_3_001
// 014   ----------------------------------------
	BYTE	PATT
	 POIN2	testimony_3_002
// 015   ----------------------------------------
	BYTE	PATT
	 POIN2	testimony_3_007
// 016   ----------------------------------------
	BYTE	PATT
	 POIN2	testimony_3_004
// 017   ----------------------------------------
	BYTE	PATT
	 POIN2	testimony_3_001
// 018   ----------------------------------------
	BYTE	PATT
	 POIN2	testimony_3_002
// 019   ----------------------------------------
	BYTE	PATT
	 POIN2	testimony_3_003
// 020   ----------------------------------------
	BYTE	PATT
	 POIN2	testimony_3_004
// 021   ----------------------------------------
	BYTE	PATT
	 POIN2	testimony_3_001
// 022   ----------------------------------------
	BYTE	PATT
	 POIN2	testimony_3_002
// 023   ----------------------------------------
	BYTE	PATT
	 POIN2	testimony_3_007
	BYTE	GoTo
	 POIN2	testimony_3_B1
testimony_3_B2:
// 024   ----------------------------------------
	BYTE	FINE

//**************** Track 4 (Midi-Chn.4) ****************//

testimony_4:
	BYTE	KEYSH   testimony_key+0
testimony_4_B1:
// 000   ----------------------------------------
	BYTE		VOICE   34
	BYTE		VOL     67*testimony_mvl/mxv
	BYTE		PAN     c_v+0
	BYTE	W12
	BYTE		N10     An2   v100
	BYTE	W12
	BYTE		N10   
	BYTE	W24
	BYTE		N10   
	BYTE	W12
	BYTE		N10   
	BYTE	W24
	BYTE		N10   
	BYTE	W12
// 001   ----------------------------------------
testimony_4_001:
	BYTE		N10     An2   v100
	BYTE	W24
	BYTE		N10   
	BYTE	W12
	BYTE		N10   
	BYTE	W24
	BYTE		N10   
	BYTE	W24
	BYTE		N10   
	BYTE	W12
	BYTE	PEND
// 002   ----------------------------------------
testimony_4_002:
	BYTE	W12
	BYTE		N10     An2   v100
	BYTE	W12
	BYTE		N10   
	BYTE	W24
	BYTE		N10   
	BYTE	W12
	BYTE		N10   
	BYTE	W24
	BYTE		N10   
	BYTE	W12
	BYTE	PEND
// 003   ----------------------------------------
	BYTE	PATT
	 POIN2	testimony_4_001
// 004   ----------------------------------------
	BYTE	PATT
	 POIN2	testimony_4_002
// 005   ----------------------------------------
	BYTE	PATT
	 POIN2	testimony_4_001
// 006   ----------------------------------------
	BYTE	PATT
	 POIN2	testimony_4_002
// 007   ----------------------------------------
	BYTE	PATT
	 POIN2	testimony_4_001
// 008   ----------------------------------------
	BYTE	PATT
	 POIN2	testimony_4_002
// 009   ----------------------------------------
	BYTE	PATT
	 POIN2	testimony_4_001
// 010   ----------------------------------------
	BYTE	PATT
	 POIN2	testimony_4_002
// 011   ----------------------------------------
testimony_4_011:
	BYTE		N10     An2   v100
	BYTE	W24
	BYTE		N10   
	BYTE	W12
	BYTE		N10   
	BYTE	W24
	BYTE		N10   
	BYTE	W24
	BYTE		        Gn2 
	BYTE	W12
	BYTE	PEND
// 012   ----------------------------------------
testimony_4_012:
	BYTE	W12
	BYTE		N10     Fn2   v100
	BYTE	W12
	BYTE		N10   
	BYTE	W24
	BYTE		N10   
	BYTE	W12
	BYTE		N10   
	BYTE	W24
	BYTE		N10   
	BYTE	W12
	BYTE	PEND
// 013   ----------------------------------------
testimony_4_013:
	BYTE		N10     Fn2   v100
	BYTE	W24
	BYTE		N10   
	BYTE	W12
	BYTE		N10   
	BYTE	W24
	BYTE		N10   
	BYTE	W24
	BYTE		N10   
	BYTE	W12
	BYTE	PEND
// 014   ----------------------------------------
testimony_4_014:
	BYTE	W12
	BYTE		N10     Gn2   v100
	BYTE	W12
	BYTE		N10   
	BYTE	W24
	BYTE		N10   
	BYTE	W12
	BYTE		N10   
	BYTE	W24
	BYTE		N10   
	BYTE	W12
	BYTE	PEND
// 015   ----------------------------------------
testimony_4_015:
	BYTE		N10     Gn2   v100
	BYTE	W24
	BYTE		N10   
	BYTE	W12
	BYTE		N10   
	BYTE	W24
	BYTE		N10   
	BYTE	W24
	BYTE		N10   
	BYTE	W12
	BYTE	PEND
// 016   ----------------------------------------
	BYTE	PATT
	 POIN2	testimony_4_002
// 017   ----------------------------------------
	BYTE	PATT
	 POIN2	testimony_4_001
// 018   ----------------------------------------
	BYTE	PATT
	 POIN2	testimony_4_002
// 019   ----------------------------------------
	BYTE	PATT
	 POIN2	testimony_4_011
// 020   ----------------------------------------
	BYTE	PATT
	 POIN2	testimony_4_012
// 021   ----------------------------------------
	BYTE	PATT
	 POIN2	testimony_4_013
// 022   ----------------------------------------
	BYTE	PATT
	 POIN2	testimony_4_014
// 023   ----------------------------------------
	BYTE	PATT
	 POIN2	testimony_4_015
	BYTE	GoTo
	 POIN2	testimony_4_B1
testimony_4_B2:
// 024   ----------------------------------------
	BYTE	FINE

//**************** Track 5 (Midi-Chn.5) ****************//

testimony_5:
	BYTE	KEYSH   testimony_key+0
testimony_5_B1:
// 000   ----------------------------------------
	BYTE		VOICE   34
	BYTE		VOL     70*testimony_mvl/mxv
	BYTE		PAN     c_v+0
	BYTE	W12
	BYTE		N12     An1   v100
	BYTE	W12
	BYTE		N12   
	BYTE	W12
	BYTE		        An1   v052
	BYTE	W12
	BYTE		        An1   v100
	BYTE	W12
	BYTE		N12   
	BYTE	W12
	BYTE		        An1   v052
	BYTE	W12
	BYTE		        An1   v100
	BYTE	W12
// 001   ----------------------------------------
testimony_5_001:
	BYTE		N12     An1   v100
	BYTE	W12
	BYTE		        An1   v052
	BYTE	W12
	BYTE		        An1   v100
	BYTE	W12
	BYTE		N12   
	BYTE	W12
	BYTE		        An1   v052
	BYTE	W12
	BYTE		        An1   v100
	BYTE	W12
	BYTE		        An1   v052
	BYTE	W12
	BYTE		        An1   v100
	BYTE	W12
	BYTE	PEND
// 002   ----------------------------------------
testimony_5_002:
	BYTE		N12     An1   v052
	BYTE	W12
	BYTE		        An1   v100
	BYTE	W12
	BYTE		N12   
	BYTE	W12
	BYTE		        An1   v052
	BYTE	W12
	BYTE		        An1   v100
	BYTE	W12
	BYTE		N12   
	BYTE	W12
	BYTE		        An1   v052
	BYTE	W12
	BYTE		        An1   v100
	BYTE	W12
	BYTE	PEND
// 003   ----------------------------------------
	BYTE	PATT
	 POIN2	testimony_5_001
// 004   ----------------------------------------
	BYTE	PATT
	 POIN2	testimony_5_002
// 005   ----------------------------------------
	BYTE	PATT
	 POIN2	testimony_5_001
// 006   ----------------------------------------
	BYTE	PATT
	 POIN2	testimony_5_002
// 007   ----------------------------------------
	BYTE	PATT
	 POIN2	testimony_5_001
// 008   ----------------------------------------
	BYTE	PATT
	 POIN2	testimony_5_002
// 009   ----------------------------------------
	BYTE	PATT
	 POIN2	testimony_5_001
// 010   ----------------------------------------
	BYTE	PATT
	 POIN2	testimony_5_002
// 011   ----------------------------------------
testimony_5_011:
	BYTE		N12     An1   v100
	BYTE	W12
	BYTE		        An1   v052
	BYTE	W12
	BYTE		        An1   v100
	BYTE	W12
	BYTE		N12   
	BYTE	W12
	BYTE		        An1   v052
	BYTE	W12
	BYTE		        An1   v100
	BYTE	W12
	BYTE		        An1   v052
	BYTE	W12
	BYTE		        Gn1   v100
	BYTE	W12
	BYTE	PEND
// 012   ----------------------------------------
testimony_5_012:
	BYTE		N12     Gn1   v052
	BYTE	W12
	BYTE		        Fn1   v100
	BYTE	W12
	BYTE		N12   
	BYTE	W12
	BYTE		        Fn1   v052
	BYTE	W12
	BYTE		        Fn1   v100
	BYTE	W12
	BYTE		N12   
	BYTE	W12
	BYTE		        Fn1   v052
	BYTE	W12
	BYTE		        Fn1   v100
	BYTE	W12
	BYTE	PEND
// 013   ----------------------------------------
testimony_5_013:
	BYTE		N12     Fn1   v100
	BYTE	W12
	BYTE		        Fn1   v052
	BYTE	W12
	BYTE		        Fn1   v100
	BYTE	W12
	BYTE		N12   
	BYTE	W12
	BYTE		        Fn1   v052
	BYTE	W12
	BYTE		        Fn1   v100
	BYTE	W12
	BYTE		        Fn1   v052
	BYTE	W12
	BYTE		        Fn1   v100
	BYTE	W12
	BYTE	PEND
// 014   ----------------------------------------
testimony_5_014:
	BYTE		N12     Fn1   v052
	BYTE	W12
	BYTE		        Gn1   v100
	BYTE	W12
	BYTE		N12   
	BYTE	W12
	BYTE		        Gn1   v052
	BYTE	W12
	BYTE		        Gn1   v100
	BYTE	W12
	BYTE		N12   
	BYTE	W12
	BYTE		        Gn1   v052
	BYTE	W12
	BYTE		        Gn1   v100
	BYTE	W12
	BYTE	PEND
// 015   ----------------------------------------
testimony_5_015:
	BYTE		N12     Gn1   v100
	BYTE	W12
	BYTE		        Gn1   v052
	BYTE	W12
	BYTE		        Gn1   v100
	BYTE	W12
	BYTE		N12   
	BYTE	W12
	BYTE		        Gn1   v052
	BYTE	W12
	BYTE		        Gn1   v100
	BYTE	W12
	BYTE		        Gn1   v052
	BYTE	W12
	BYTE		        Gn1   v100
	BYTE	W12
	BYTE	PEND
// 016   ----------------------------------------
	BYTE		        Gn1   v052
	BYTE	W12
	BYTE		        An1   v100
	BYTE	W12
	BYTE		N12   
	BYTE	W12
	BYTE		        An1   v052
	BYTE	W12
	BYTE		        An1   v100
	BYTE	W12
	BYTE		N12   
	BYTE	W12
	BYTE		        An1   v052
	BYTE	W12
	BYTE		        An1   v100
	BYTE	W12
// 017   ----------------------------------------
	BYTE	PATT
	 POIN2	testimony_5_001
// 018   ----------------------------------------
	BYTE	PATT
	 POIN2	testimony_5_002
// 019   ----------------------------------------
	BYTE	PATT
	 POIN2	testimony_5_011
// 020   ----------------------------------------
	BYTE	PATT
	 POIN2	testimony_5_012
// 021   ----------------------------------------
	BYTE	PATT
	 POIN2	testimony_5_013
// 022   ----------------------------------------
	BYTE	PATT
	 POIN2	testimony_5_014
// 023   ----------------------------------------
	BYTE	PATT
	 POIN2	testimony_5_015
	BYTE	GoTo
	 POIN2	testimony_5_B1
testimony_5_B2:
// 024   ----------------------------------------
	BYTE	FINE

//**************** Track 6 (Midi-Chn.6) ****************//

testimony_6:
	BYTE	KEYSH   testimony_key+0
testimony_6_B1:
// 000   ----------------------------------------
	BYTE		VOICE   19
	BYTE		VOL     54*testimony_mvl/mxv
	BYTE	W96
// 001   ----------------------------------------
	BYTE		PAN     c_v+0
	BYTE	W96
// 002   ----------------------------------------
	BYTE	W96
// 003   ----------------------------------------
	BYTE	W96
// 004   ----------------------------------------
	BYTE	W96
// 005   ----------------------------------------
	BYTE	W96
// 006   ----------------------------------------
	BYTE	W96
// 007   ----------------------------------------
	BYTE	W96
// 008   ----------------------------------------
	BYTE		N96     En3   v060
	BYTE	W96
// 009   ----------------------------------------
	BYTE		        Bn3 
	BYTE	W96
// 010   ----------------------------------------
	BYTE		        Cn4 
	BYTE	W96
// 011   ----------------------------------------
	BYTE		        Bn3 
	BYTE	W96
// 012   ----------------------------------------
	BYTE		        En3 
	BYTE	W96
// 013   ----------------------------------------
	BYTE		        An3 
	BYTE	W96
// 014   ----------------------------------------
	BYTE		        Cn4 
	BYTE	W96
// 015   ----------------------------------------
	BYTE		        Bn3 
	BYTE	W96
// 016   ----------------------------------------
	BYTE		        An3 
	BYTE	W96
// 017   ----------------------------------------
	BYTE		        Cn4 
	BYTE	W96
// 018   ----------------------------------------
	BYTE		        Bn3 
	BYTE	W96
// 019   ----------------------------------------
	BYTE		        Gn3 
	BYTE	W96
// 020   ----------------------------------------
	BYTE		        An3 
	BYTE	W96
// 021   ----------------------------------------
	BYTE		        Cn4 
	BYTE	W96
// 022   ----------------------------------------
	BYTE		        Bn3 
	BYTE	W96
// 023   ----------------------------------------
	BYTE		        Gn3 
	BYTE	W96
	BYTE	GoTo
	 POIN2	testimony_6_B1
testimony_6_B2:
// 024   ----------------------------------------
	BYTE	FINE

//**************** Track 7 (Midi-Chn.7) ****************//

testimony_7:
	BYTE	KEYSH   testimony_key+0
testimony_7_B1:
// 000   ----------------------------------------
	BYTE		VOICE   34
	BYTE		VOL     63*testimony_mvl/mxv
	BYTE		PAN     c_v+0
	BYTE		MOD     0
	BYTE	W12
	BYTE		N12     An1   v100
	BYTE	W12
	BYTE		N12   
	BYTE	W24
	BYTE		N12   
	BYTE	W12
	BYTE		N12   
	BYTE	W24
	BYTE		N12   
	BYTE	W12
// 001   ----------------------------------------
testimony_7_001:
	BYTE		N12     An1   v100
	BYTE	W24
	BYTE		N12   
	BYTE	W12
	BYTE		N12   
	BYTE	W24
	BYTE		N12   
	BYTE	W24
	BYTE		N12   
	BYTE	W12
	BYTE	PEND
// 002   ----------------------------------------
testimony_7_002:
	BYTE	W12
	BYTE		N12     An1   v100
	BYTE	W12
	BYTE		N12   
	BYTE	W24
	BYTE		N12   
	BYTE	W12
	BYTE		N12   
	BYTE	W24
	BYTE		N12   
	BYTE	W12
	BYTE	PEND
// 003   ----------------------------------------
	BYTE	PATT
	 POIN2	testimony_7_001
// 004   ----------------------------------------
	BYTE	PATT
	 POIN2	testimony_7_002
// 005   ----------------------------------------
	BYTE	PATT
	 POIN2	testimony_7_001
// 006   ----------------------------------------
	BYTE	PATT
	 POIN2	testimony_7_002
// 007   ----------------------------------------
	BYTE	PATT
	 POIN2	testimony_7_001
// 008   ----------------------------------------
	BYTE	PATT
	 POIN2	testimony_7_002
// 009   ----------------------------------------
	BYTE	PATT
	 POIN2	testimony_7_001
// 010   ----------------------------------------
	BYTE	PATT
	 POIN2	testimony_7_002
// 011   ----------------------------------------
testimony_7_011:
	BYTE		N12     An1   v100
	BYTE	W24
	BYTE		N12   
	BYTE	W12
	BYTE		N12   
	BYTE	W24
	BYTE		N12   
	BYTE	W24
	BYTE		        Gn1 
	BYTE	W12
	BYTE	PEND
// 012   ----------------------------------------
testimony_7_012:
	BYTE	W12
	BYTE		N12     Fn1   v100
	BYTE	W12
	BYTE		N12   
	BYTE	W24
	BYTE		N12   
	BYTE	W12
	BYTE		N12   
	BYTE	W24
	BYTE		N12   
	BYTE	W12
	BYTE	PEND
// 013   ----------------------------------------
testimony_7_013:
	BYTE		N12     Fn1   v100
	BYTE	W24
	BYTE		N12   
	BYTE	W12
	BYTE		N12   
	BYTE	W24
	BYTE		N12   
	BYTE	W24
	BYTE		N12   
	BYTE	W12
	BYTE	PEND
// 014   ----------------------------------------
testimony_7_014:
	BYTE	W12
	BYTE		N12     Gn1   v100
	BYTE	W12
	BYTE		N12   
	BYTE	W24
	BYTE		N12   
	BYTE	W12
	BYTE		N12   
	BYTE	W24
	BYTE		N12   
	BYTE	W12
	BYTE	PEND
// 015   ----------------------------------------
testimony_7_015:
	BYTE		N12     Gn1   v100
	BYTE	W24
	BYTE		N12   
	BYTE	W12
	BYTE		N12   
	BYTE	W24
	BYTE		N12   
	BYTE	W24
	BYTE		N12   
	BYTE	W12
	BYTE	PEND
// 016   ----------------------------------------
	BYTE	PATT
	 POIN2	testimony_7_002
// 017   ----------------------------------------
	BYTE	PATT
	 POIN2	testimony_7_001
// 018   ----------------------------------------
	BYTE	PATT
	 POIN2	testimony_7_002
// 019   ----------------------------------------
	BYTE	PATT
	 POIN2	testimony_7_011
// 020   ----------------------------------------
	BYTE	PATT
	 POIN2	testimony_7_012
// 021   ----------------------------------------
	BYTE	PATT
	 POIN2	testimony_7_013
// 022   ----------------------------------------
	BYTE	PATT
	 POIN2	testimony_7_014
// 023   ----------------------------------------
	BYTE	PATT
	 POIN2	testimony_7_015
	BYTE	GoTo
	 POIN2	testimony_7_B1
testimony_7_B2:
// 024   ----------------------------------------
	BYTE	FINE

//**************** Track 8 (Midi-Chn.8) ****************//

testimony_8:
	BYTE	KEYSH   testimony_key+0
testimony_8_B1:
// 000   ----------------------------------------
	BYTE		VOICE   4
	BYTE		VOL     56*testimony_mvl/mxv
	BYTE		PAN     c_v-30
	BYTE		MOD     0
	BYTE		N12     An3   v100
	BYTE	W36
	BYTE		        Bn3 
	BYTE	W36
	BYTE		        Cn4 
	BYTE	W24
// 001   ----------------------------------------
testimony_8_001:
	BYTE	W12
	BYTE		N12     Bn3   v100
	BYTE	W36
	BYTE		        Dn4 
	BYTE	W24
	BYTE		        Bn3 
	BYTE	W24
	BYTE	PEND
// 002   ----------------------------------------
testimony_8_002:
	BYTE		N12     Cn4   v100
	BYTE	W36
	BYTE		        Bn3 
	BYTE	W36
	BYTE		        Gn3 
	BYTE	W24
	BYTE	PEND
// 003   ----------------------------------------
testimony_8_003:
	BYTE	W12
	BYTE		N12     En3   v100
	BYTE	W36
	BYTE		        Gn3 
	BYTE	W24
	BYTE		        Bn3 
	BYTE	W24
	BYTE	PEND
// 004   ----------------------------------------
testimony_8_004:
	BYTE		N12     An3   v100
	BYTE	W36
	BYTE		        Bn3 
	BYTE	W36
	BYTE		        Cn4 
	BYTE	W24
	BYTE	PEND
// 005   ----------------------------------------
	BYTE	PATT
	 POIN2	testimony_8_001
// 006   ----------------------------------------
	BYTE	PATT
	 POIN2	testimony_8_002
// 007   ----------------------------------------
testimony_8_007:
	BYTE	W12
	BYTE		N12     Dn3   v100
	BYTE	W36
	BYTE		        En3 
	BYTE	W24
	BYTE		        Bn3 
	BYTE	W24
	BYTE	PEND
// 008   ----------------------------------------
	BYTE	PATT
	 POIN2	testimony_8_004
// 009   ----------------------------------------
	BYTE	PATT
	 POIN2	testimony_8_001
// 010   ----------------------------------------
	BYTE	PATT
	 POIN2	testimony_8_002
// 011   ----------------------------------------
	BYTE	PATT
	 POIN2	testimony_8_003
// 012   ----------------------------------------
	BYTE	PATT
	 POIN2	testimony_8_004
// 013   ----------------------------------------
	BYTE	PATT
	 POIN2	testimony_8_001
// 014   ----------------------------------------
	BYTE	PATT
	 POIN2	testimony_8_002
// 015   ----------------------------------------
	BYTE	PATT
	 POIN2	testimony_8_007
// 016   ----------------------------------------
	BYTE	PATT
	 POIN2	testimony_8_004
// 017   ----------------------------------------
	BYTE	PATT
	 POIN2	testimony_8_001
// 018   ----------------------------------------
	BYTE	PATT
	 POIN2	testimony_8_002
// 019   ----------------------------------------
	BYTE	PATT
	 POIN2	testimony_8_003
// 020   ----------------------------------------
	BYTE	PATT
	 POIN2	testimony_8_004
// 021   ----------------------------------------
	BYTE	PATT
	 POIN2	testimony_8_001
// 022   ----------------------------------------
	BYTE	PATT
	 POIN2	testimony_8_002
// 023   ----------------------------------------
	BYTE	PATT
	 POIN2	testimony_8_007
	BYTE	GoTo
	 POIN2	testimony_8_B1
testimony_8_B2:
// 024   ----------------------------------------
	BYTE	FINE

//**************** Track 9 (Midi-Chn.9) ****************//

testimony_9:
	BYTE	KEYSH   testimony_key+0
testimony_9_B1:
// 000   ----------------------------------------
	BYTE		VOICE   4
	BYTE		VOL     62*testimony_mvl/mxv
	BYTE		PAN     c_v+30
	BYTE		MOD     0
	BYTE		N12     An3   v100
	BYTE	W36
	BYTE		        Bn3 
	BYTE	W36
	BYTE		        Cn4 
	BYTE	W24
// 001   ----------------------------------------
testimony_9_001:
	BYTE	W12
	BYTE		N12     Bn3   v100
	BYTE	W36
	BYTE		        Dn4 
	BYTE	W24
	BYTE		        Bn3 
	BYTE	W24
	BYTE	PEND
// 002   ----------------------------------------
testimony_9_002:
	BYTE		N12     Cn4   v100
	BYTE	W36
	BYTE		        Bn3 
	BYTE	W36
	BYTE		        Gn3 
	BYTE	W24
	BYTE	PEND
// 003   ----------------------------------------
testimony_9_003:
	BYTE	W12
	BYTE		N12     En3   v100
	BYTE	W36
	BYTE		        Gn3 
	BYTE	W24
	BYTE		        Bn3 
	BYTE	W24
	BYTE	PEND
// 004   ----------------------------------------
testimony_9_004:
	BYTE		N12     An3   v100
	BYTE	W36
	BYTE		        Bn3 
	BYTE	W36
	BYTE		        Cn4 
	BYTE	W24
	BYTE	PEND
// 005   ----------------------------------------
	BYTE	PATT
	 POIN2	testimony_9_001
// 006   ----------------------------------------
	BYTE	PATT
	 POIN2	testimony_9_002
// 007   ----------------------------------------
testimony_9_007:
	BYTE	W12
	BYTE		N12     Dn3   v100
	BYTE	W36
	BYTE		        En3 
	BYTE	W24
	BYTE		        Bn3 
	BYTE	W24
	BYTE	PEND
// 008   ----------------------------------------
	BYTE	PATT
	 POIN2	testimony_9_004
// 009   ----------------------------------------
	BYTE	PATT
	 POIN2	testimony_9_001
// 010   ----------------------------------------
	BYTE	PATT
	 POIN2	testimony_9_002
// 011   ----------------------------------------
	BYTE	PATT
	 POIN2	testimony_9_003
// 012   ----------------------------------------
	BYTE	PATT
	 POIN2	testimony_9_004
// 013   ----------------------------------------
	BYTE	PATT
	 POIN2	testimony_9_001
// 014   ----------------------------------------
	BYTE	PATT
	 POIN2	testimony_9_002
// 015   ----------------------------------------
	BYTE	PATT
	 POIN2	testimony_9_007
// 016   ----------------------------------------
	BYTE	PATT
	 POIN2	testimony_9_004
// 017   ----------------------------------------
	BYTE	PATT
	 POIN2	testimony_9_001
// 018   ----------------------------------------
	BYTE	PATT
	 POIN2	testimony_9_002
// 019   ----------------------------------------
	BYTE	PATT
	 POIN2	testimony_9_003
// 020   ----------------------------------------
	BYTE	PATT
	 POIN2	testimony_9_004
// 021   ----------------------------------------
	BYTE	PATT
	 POIN2	testimony_9_001
// 022   ----------------------------------------
	BYTE	PATT
	 POIN2	testimony_9_002
// 023   ----------------------------------------
	BYTE	PATT
	 POIN2	testimony_9_007
	BYTE	GoTo
	 POIN2	testimony_9_B1
testimony_9_B2:
// 024   ----------------------------------------
	BYTE	FINE

//**************** Track 10 (Midi-Chn.11) ****************//

testimony_10:
	BYTE	KEYSH   testimony_key+0
testimony_10_B1:
// 000   ----------------------------------------
	BYTE		VOICE   19
	BYTE		VOL     56*testimony_mvl/mxv
	BYTE		PAN     c_v+20
	BYTE	W96
// 001   ----------------------------------------
	BYTE	W96
// 002   ----------------------------------------
	BYTE	W96
// 003   ----------------------------------------
	BYTE	W96
// 004   ----------------------------------------
	BYTE	W96
// 005   ----------------------------------------
	BYTE	W96
// 006   ----------------------------------------
	BYTE	W96
// 007   ----------------------------------------
	BYTE	W96
// 008   ----------------------------------------
	BYTE		TIE     An2   v100
	BYTE	W96
// 009   ----------------------------------------
	BYTE		N96     En3   v088
	BYTE	W96
// 010   ----------------------------------------
	BYTE		        An3   v080
	BYTE	W96
// 011   ----------------------------------------
	BYTE		        En3   v088
	BYTE	W96
	BYTE		EOT     An2 
// 012   ----------------------------------------
testimony_10_012:
	BYTE		TIE     An2   v100
	BYTE		TIE     Fn3   v088
	BYTE	W96
	BYTE	PEND
// 013   ----------------------------------------
	BYTE	W96
	BYTE		EOT     An2 
	BYTE		        Fn3 
// 014   ----------------------------------------
testimony_10_014:
	BYTE		TIE     Gn2   v100
	BYTE		N96     Gn3   v088
	BYTE	W96
	BYTE	PEND
// 015   ----------------------------------------
	BYTE		        Dn3 
	BYTE	W96
	BYTE		EOT     Gn2 
// 016   ----------------------------------------
	BYTE		TIE     An2   v100
	BYTE	W96
// 017   ----------------------------------------
	BYTE		N96     En3   v088
	BYTE	W96
// 018   ----------------------------------------
	BYTE		        An3   v080
	BYTE	W96
// 019   ----------------------------------------
	BYTE		        En3   v088
	BYTE	W96
	BYTE		EOT     An2 
// 020   ----------------------------------------
	BYTE	PATT
	 POIN2	testimony_10_012
// 021   ----------------------------------------
	BYTE	W96
	BYTE		EOT     An2 
	BYTE		        Fn3 
// 022   ----------------------------------------
	BYTE	PATT
	 POIN2	testimony_10_014
// 023   ----------------------------------------
	BYTE		N96     Bn2   v088
	BYTE	W96
	BYTE		EOT     Gn2 
	BYTE	GoTo
	 POIN2	testimony_10_B1
testimony_10_B2:
// 024   ----------------------------------------
	BYTE	FINE

//******************************************************//
	ALIGN 4

testimony:
	BYTE	10	// NumTrks
	BYTE	0	// NumBlks
	BYTE	testimony_pri	// Priority
	BYTE	testimony_rev	// Reverb.

	POIN2	testimony_grp

	POIN2	testimony_1
	POIN2	testimony_2
	POIN2	testimony_3
	POIN2	testimony_4
	POIN2	testimony_5
	POIN2	testimony_6
	POIN2	testimony_7
	POIN2	testimony_8
	POIN2	testimony_9
	POIN2	testimony_10

	
